{"glyphs":{"0":{"ha":835,"x_min":68,"x_max":768,"o":"m 418 1019 q 604 960 525 1019 q 725 785 683 901 q 768 500 768 669 q 725 217 768 332 q 604 44 683 102 q 417 -13 525 -13 q 231 44 309 -13 q 110 216 153 101 q 68 498 68 330 q 111 784 68 667 q 232 960 153 901 q 418 1019 311 1019 m 419 83 q 592 183 534 83 q 649 500 649 283 q 591 822 649 719 q 418 924 532 924 q 244 821 303 924 q 185 500 185 718 q 244 183 185 284 q 419 83 303 83 z "},"1":{"ha":552,"x_min":65,"x_max":375,"o":"m 263 812 l 65 812 l 65 888 q 203 900 154 888 q 273 937 253 913 q 295 1004 293 962 l 375 1004 l 375 0 l 263 0 l 263 812 z "},"2":{"ha":832,"x_min":76,"x_max":753,"o":"m 99 111 q 140 264 99 200 q 238 371 180 328 q 390 466 295 413 q 520 547 472 513 q 600 627 568 580 q 633 738 633 675 q 607 833 633 792 q 532 897 581 874 q 421 920 484 920 q 301 894 352 920 q 220 819 249 867 q 186 708 191 772 l 76 708 q 119 865 78 794 q 239 977 160 935 q 426 1018 317 1018 q 595 983 523 1018 q 708 884 668 948 q 747 738 747 821 q 707 584 747 648 q 610 480 667 521 q 460 388 553 439 q 331 310 378 342 q 251 231 283 277 q 219 122 219 184 l 219 99 l 753 99 l 753 0 l 99 0 l 99 111 z "},"3":{"ha":851,"x_min":61,"x_max":785,"o":"m 76 716 q 121 876 76 808 q 243 982 166 945 q 413 1018 319 1018 q 593 988 515 1018 q 714 899 671 957 q 758 762 758 841 q 708 625 758 685 q 563 531 659 565 q 727 437 668 503 q 785 275 785 371 q 738 122 785 188 q 606 22 690 57 q 413 -14 522 -14 q 234 22 313 -14 q 110 126 156 58 q 61 283 64 193 l 171 283 q 249 135 184 188 q 413 82 313 82 q 547 106 489 82 q 636 174 605 131 q 668 275 668 218 q 633 384 668 339 q 536 452 597 429 q 399 476 475 475 l 310 477 l 310 572 l 395 574 q 519 600 463 574 q 608 668 576 626 q 640 759 640 710 q 614 841 640 803 q 535 902 587 879 q 413 925 483 925 q 303 902 355 925 q 219 832 251 878 q 185 716 186 785 l 76 716 z "},"4":{"ha":858,"x_min":59,"x_max":811,"o":"m 642 1004 l 642 364 l 811 364 l 811 266 l 642 266 l 642 0 l 535 0 l 535 266 l 59 266 l 59 369 l 530 1004 l 642 1004 m 531 364 l 531 856 l 165 364 l 531 364 z "},"5":{"ha":890,"x_min":72,"x_max":810,"o":"m 751 1004 l 749 908 l 260 908 l 232 562 q 476 655 323 655 q 643 617 567 655 q 765 506 719 579 q 810 329 810 432 q 766 149 810 226 q 641 28 722 71 q 453 -14 560 -14 q 284 19 363 -14 q 151 111 206 52 q 72 249 96 171 l 169 283 q 277 134 206 189 q 447 80 348 80 q 577 109 521 80 q 664 194 633 139 q 694 326 694 250 q 663 449 694 396 q 576 531 631 502 q 457 560 522 560 q 373 552 409 560 q 300 521 336 544 q 226 453 264 498 q 222 452 222 452 q 216 454 220 452 l 119 478 l 165 1004 l 751 1004 z "},"6":{"ha":845,"x_min":68,"x_max":781,"o":"m 453 1026 q 602 996 533 1026 q 715 909 670 966 q 773 774 760 852 l 669 774 q 592 891 648 848 q 454 934 536 934 q 254 832 323 934 q 185 533 185 730 q 186 470 185 492 q 243 568 203 526 q 336 634 282 610 q 452 658 391 658 q 625 619 551 658 q 740 508 699 581 q 781 338 781 436 q 740 159 781 236 q 622 39 699 82 q 441 -4 544 -4 q 244 56 328 -4 q 114 228 160 115 q 68 497 68 341 q 112 777 68 658 q 243 961 156 897 q 453 1026 329 1026 m 440 567 q 328 539 381 567 q 241 464 274 511 q 208 363 208 417 q 236 221 208 283 q 318 123 265 158 q 441 88 372 88 q 556 118 506 88 q 635 204 607 149 q 663 332 663 260 q 606 505 663 442 q 440 567 548 567 z "},"7":{"ha":810,"x_min":61,"x_max":753,"o":"m 753 1004 l 753 908 q 579 610 665 785 q 433 269 493 436 q 360 0 374 103 l 241 0 q 311 257 260 106 q 443 581 361 408 q 631 908 525 753 l 61 908 l 61 1004 l 753 1004 z "},"8":{"ha":892,"x_min":69,"x_max":823,"o":"m 446 1022 q 616 990 541 1022 q 735 897 692 958 q 778 751 778 835 q 617 533 778 599 q 716 485 669 524 q 793 392 764 447 q 823 281 823 338 q 776 131 823 195 q 644 31 730 66 q 446 -4 559 -4 q 248 31 333 -4 q 116 131 163 66 q 69 281 69 195 q 99 392 69 338 q 176 485 128 447 q 275 533 224 524 q 114 751 114 599 q 157 897 114 835 q 275 990 200 958 q 446 1022 351 1022 m 446 581 q 606 626 547 581 q 665 754 665 671 q 638 851 665 810 q 560 915 610 893 q 446 938 510 938 q 332 915 381 938 q 254 851 282 892 q 226 754 226 809 q 286 626 226 672 q 446 581 346 581 m 446 85 q 583 109 524 85 q 674 177 642 133 q 706 280 706 222 q 673 384 706 338 q 582 456 641 430 q 446 481 524 481 q 310 456 369 481 q 219 384 251 430 q 187 280 187 338 q 219 177 187 222 q 309 109 251 133 q 446 85 368 85 z "},"9":{"ha":856,"x_min":71,"x_max":787,"o":"m 397 -5 q 247 25 317 -5 q 130 113 177 56 q 71 247 83 170 l 177 247 q 254 131 196 174 q 394 88 313 88 q 604 190 530 88 q 678 499 678 292 q 677 554 678 517 q 622 453 660 497 q 528 385 583 409 q 408 360 473 360 q 235 399 310 360 q 118 511 160 438 q 77 685 77 585 q 118 863 77 786 q 235 983 158 940 q 415 1026 311 1026 q 612 966 528 1026 q 741 794 696 907 q 787 525 787 681 q 742 240 787 359 q 609 58 697 122 q 397 -5 522 -5 m 416 456 q 528 483 474 456 q 614 557 581 510 q 647 659 647 604 q 619 801 648 738 q 537 899 590 864 q 415 935 484 935 q 300 904 350 935 q 223 818 250 874 q 195 690 195 762 q 251 518 195 581 q 416 456 308 456 z "},"\r":{"ha":323,"x_min":0,"x_max":0,"o":""}," ":{"ha":338,"x_min":0,"x_max":0,"o":""},"A":{"ha":977,"x_min":61,"x_max":916,"o":"m 426 1004 l 552 1004 l 916 0 l 805 0 l 701 286 l 278 286 l 172 0 l 61 0 l 426 1004 m 671 389 l 490 896 l 306 389 l 671 389 z "},"Á":{"ha":977,"x_min":61,"x_max":916,"o":"m 426 1004 l 552 1004 l 916 0 l 805 0 l 701 286 l 278 286 l 172 0 l 61 0 l 426 1004 m 671 389 l 490 896 l 306 389 l 671 389 m 671 1215 l 326 1111 l 306 1170 l 642 1303 l 671 1215 z "},"Ă":{"ha":977,"x_min":61,"x_max":916,"o":"m 426 1004 l 552 1004 l 916 0 l 805 0 l 701 286 l 278 286 l 172 0 l 61 0 l 426 1004 m 671 389 l 490 896 l 306 389 l 671 389 m 696 1288 q 658 1219 685 1251 q 588 1166 631 1186 q 492 1145 545 1145 q 397 1165 439 1145 q 329 1216 356 1184 q 293 1288 303 1249 l 378 1288 q 422 1238 397 1258 q 492 1217 447 1217 q 608 1288 565 1217 l 696 1288 z "},"Ắ":{"ha":977,"x_min":61,"x_max":916,"o":"m 426 1004 l 552 1004 l 916 0 l 805 0 l 701 286 l 278 286 l 172 0 l 61 0 l 426 1004 m 671 389 l 490 896 l 306 389 l 671 389 z "},"Ặ":{"ha":977,"x_min":61,"x_max":916,"o":"m 426 1004 l 552 1004 l 916 0 l 805 0 l 701 286 l 278 286 l 172 0 l 61 0 l 426 1004 m 671 389 l 490 896 l 306 389 l 671 389 m 696 1288 q 658 1219 685 1251 q 588 1166 631 1186 q 492 1145 545 1145 q 397 1165 439 1145 q 329 1216 356 1184 q 293 1288 303 1249 l 378 1288 q 422 1238 397 1258 q 492 1217 447 1217 q 608 1288 565 1217 l 696 1288 z "},"Ằ":{"ha":977,"x_min":61,"x_max":916,"o":"m 426 1004 l 552 1004 l 916 0 l 805 0 l 701 286 l 278 286 l 172 0 l 61 0 l 426 1004 m 671 389 l 490 896 l 306 389 l 671 389 z "},"Ẳ":{"ha":977,"x_min":61,"x_max":916,"o":"m 426 1004 l 552 1004 l 916 0 l 805 0 l 701 286 l 278 286 l 172 0 l 61 0 l 426 1004 m 671 389 l 490 896 l 306 389 l 671 389 z "},"Ẵ":{"ha":977,"x_min":61,"x_max":916,"o":"m 426 1004 l 552 1004 l 916 0 l 805 0 l 701 286 l 278 286 l 172 0 l 61 0 l 426 1004 m 671 389 l 490 896 l 306 389 l 671 389 z "},"Â":{"ha":977,"x_min":61,"x_max":916,"o":"m 426 1004 l 552 1004 l 916 0 l 805 0 l 701 286 l 278 286 l 172 0 l 61 0 l 426 1004 m 671 389 l 490 896 l 306 389 l 671 389 m 490 1233 l 384 1142 l 280 1142 l 451 1294 l 531 1294 l 699 1142 l 588 1142 l 490 1233 z "},"Ấ":{"ha":977,"x_min":61,"x_max":916,"o":"m 426 1004 l 552 1004 l 916 0 l 805 0 l 701 286 l 278 286 l 172 0 l 61 0 l 426 1004 m 671 389 l 490 896 l 306 389 l 671 389 z "},"Ậ":{"ha":977,"x_min":61,"x_max":916,"o":"m 426 1004 l 552 1004 l 916 0 l 805 0 l 701 286 l 278 286 l 172 0 l 61 0 l 426 1004 m 671 389 l 490 896 l 306 389 l 671 389 m 488 1233 l 383 1142 l 278 1142 l 450 1294 l 529 1294 l 698 1142 l 587 1142 l 488 1233 z "},"Ầ":{"ha":977,"x_min":61,"x_max":916,"o":"m 426 1004 l 552 1004 l 916 0 l 805 0 l 701 286 l 278 286 l 172 0 l 61 0 l 426 1004 m 671 389 l 490 896 l 306 389 l 671 389 z "},"Ẩ":{"ha":977,"x_min":61,"x_max":916,"o":"m 426 1004 l 552 1004 l 916 0 l 805 0 l 701 286 l 278 286 l 172 0 l 61 0 l 426 1004 m 671 389 l 490 896 l 306 389 l 671 389 z "},"Ẫ":{"ha":977,"x_min":61,"x_max":916,"o":"m 426 1004 l 552 1004 l 916 0 l 805 0 l 701 286 l 278 286 l 172 0 l 61 0 l 426 1004 m 671 389 l 490 896 l 306 389 l 671 389 z "},"Ȁ":{"ha":977,"x_min":61,"x_max":916,"o":"m 426 1004 l 552 1004 l 916 0 l 805 0 l 701 286 l 278 286 l 172 0 l 61 0 l 426 1004 m 671 389 l 490 896 l 306 389 l 671 389 m 444 1115 l 406 1067 l 201 1235 l 260 1306 l 444 1115 m 660 1115 l 622 1067 l 417 1235 l 476 1306 l 660 1115 z "},"Ä":{"ha":977,"x_min":61,"x_max":916,"o":"m 426 1004 l 552 1004 l 916 0 l 805 0 l 701 286 l 278 286 l 172 0 l 61 0 l 426 1004 m 671 389 l 490 896 l 306 389 l 671 389 m 319 1280 l 436 1280 l 436 1160 l 319 1160 l 319 1280 m 538 1280 l 656 1280 l 656 1160 l 538 1160 l 538 1280 z "},"Ạ":{"ha":977,"x_min":61,"x_max":916,"o":"m 426 1004 l 552 1004 l 916 0 l 805 0 l 701 286 l 278 286 l 172 0 l 61 0 l 426 1004 m 671 389 l 490 896 l 306 389 l 671 389 z "},"À":{"ha":977,"x_min":61,"x_max":916,"o":"m 426 1004 l 552 1004 l 916 0 l 805 0 l 701 286 l 278 286 l 172 0 l 61 0 l 426 1004 m 671 389 l 490 896 l 306 389 l 671 389 m 653 1170 l 633 1111 l 288 1215 l 317 1303 l 653 1170 z "},"Ả":{"ha":977,"x_min":61,"x_max":916,"o":"m 426 1004 l 552 1004 l 916 0 l 805 0 l 701 286 l 278 286 l 172 0 l 61 0 l 426 1004 m 671 389 l 490 896 l 306 389 l 671 389 m 429 1252 q 488 1272 459 1272 q 532 1250 518 1272 q 540 1224 540 1237 q 526 1188 540 1206 q 490 1156 513 1169 l 526 1101 q 588 1157 566 1126 q 609 1222 609 1188 q 588 1288 609 1255 q 546 1325 572 1312 q 490 1338 521 1338 q 394 1306 444 1338 l 429 1252 z "},"Ȃ":{"ha":977,"x_min":61,"x_max":916,"o":"m 426 1004 l 552 1004 l 916 0 l 805 0 l 701 286 l 278 286 l 172 0 l 61 0 l 426 1004 m 671 389 l 490 896 l 306 389 l 671 389 m 602 1204 q 556 1255 583 1235 q 486 1275 528 1275 q 416 1255 441 1275 q 373 1204 392 1235 l 288 1204 q 324 1276 297 1244 q 392 1328 350 1308 q 486 1347 433 1347 q 582 1327 540 1347 q 652 1274 624 1306 q 690 1204 679 1241 l 602 1204 z "},"Ā":{"ha":977,"x_min":61,"x_max":916,"o":"m 426 1004 l 552 1004 l 916 0 l 805 0 l 701 286 l 278 286 l 172 0 l 61 0 l 426 1004 m 671 389 l 490 896 l 306 389 l 671 389 m 685 1191 l 291 1191 l 291 1271 l 685 1271 l 685 1191 z "},"Ą":{"ha":977,"x_min":61,"x_max":953,"o":"m 853 -169 q 910 -161 883 -169 q 953 -144 936 -153 l 953 -205 q 900 -224 935 -216 q 828 -232 866 -232 q 728 -203 763 -232 q 694 -124 694 -174 q 719 -53 694 -83 q 805 0 744 -24 l 701 286 l 278 286 l 172 0 l 61 0 l 426 1004 l 552 1004 l 915 3 l 919 2 l 916 1 l 916 0 l 915 0 q 816 -56 845 -30 q 786 -116 786 -82 q 802 -156 786 -142 q 853 -169 818 -169 m 671 389 l 490 896 l 306 389 l 671 389 z "},"Å":{"ha":977,"x_min":61,"x_max":916,"o":"m 426 1004 l 552 1004 l 916 0 l 805 0 l 701 286 l 278 286 l 172 0 l 61 0 l 426 1004 m 671 389 l 490 896 l 306 389 l 671 389 m 631 1232 q 612 1160 631 1192 q 560 1110 593 1128 q 489 1091 528 1091 q 418 1110 450 1091 q 367 1162 385 1129 q 348 1235 348 1195 q 367 1303 348 1272 q 418 1352 386 1334 q 489 1371 451 1371 q 560 1352 528 1371 q 612 1302 593 1334 q 631 1232 631 1270 m 563 1231 q 541 1286 563 1265 q 488 1307 519 1307 q 434 1285 456 1307 q 411 1231 411 1264 q 422 1193 411 1211 q 450 1165 433 1176 q 488 1154 468 1154 q 541 1177 519 1154 q 563 1231 563 1200 z "},"Ǻ":{"ha":977,"x_min":61,"x_max":916,"o":"m 916 0 l 805 0 l 701 286 l 278 286 l 172 0 l 61 0 l 413 968 q 366 1018 383 987 q 349 1087 349 1049 q 382 1173 349 1136 q 465 1218 415 1210 l 486 1306 l 576 1306 l 536 1211 q 602 1163 577 1197 q 627 1084 627 1128 q 610 1017 627 1047 q 565 969 594 988 l 916 0 m 486 1159 q 433 1137 456 1159 q 410 1083 410 1115 q 421 1045 410 1063 q 449 1017 432 1028 q 486 1006 467 1006 q 524 1016 507 1006 q 552 1045 542 1027 q 562 1083 562 1063 q 540 1138 562 1116 q 486 1159 518 1159 m 671 389 l 490 896 l 306 389 l 671 389 z "},"Ã":{"ha":977,"x_min":61,"x_max":916,"o":"m 426 1004 l 552 1004 l 916 0 l 805 0 l 701 286 l 278 286 l 172 0 l 61 0 l 426 1004 m 671 389 l 490 896 l 306 389 l 671 389 m 692 1214 q 642 1186 669 1197 q 577 1176 615 1176 q 532 1181 552 1176 q 483 1194 511 1185 q 442 1207 458 1203 q 406 1211 426 1211 q 369 1206 385 1211 q 342 1194 353 1201 q 312 1174 332 1188 l 290 1234 q 342 1270 317 1258 q 401 1283 366 1283 q 444 1278 423 1283 q 492 1263 465 1273 q 540 1250 522 1254 q 578 1245 558 1245 q 625 1254 605 1245 q 670 1281 645 1263 l 692 1214 z "},"Æ":{"ha":1335,"x_min":0,"x_max":1242,"o":"m 1242 0 l 622 0 l 622 290 l 274 290 l 111 0 l 0 0 l 560 1004 l 1225 1004 l 1224 908 l 745 908 l 745 555 l 1108 555 l 1108 460 l 745 460 l 745 97 l 1242 97 l 1242 0 m 622 922 l 318 389 l 622 389 l 622 922 z "},"Ǽ":{"ha":1335,"x_min":0,"x_max":1242,"o":"m 1242 0 l 622 0 l 622 290 l 274 290 l 111 0 l 0 0 l 560 1004 l 1225 1004 l 1224 908 l 745 908 l 745 555 l 1108 555 l 1108 460 l 745 460 l 745 97 l 1242 97 l 1242 0 m 622 922 l 318 389 l 622 389 l 622 922 m 1065 1215 l 720 1111 l 701 1170 l 1037 1303 l 1065 1215 z "},"B":{"ha":919,"x_min":134,"x_max":838,"o":"m 134 1004 l 446 1004 q 719 937 625 1004 q 813 743 813 870 q 769 602 813 659 q 624 512 725 546 q 838 269 838 468 q 741 67 838 134 q 454 0 644 0 l 134 0 l 134 1004 m 468 556 q 637 596 567 556 q 708 729 708 636 q 638 866 708 820 q 449 912 569 912 l 242 912 l 242 556 l 468 556 m 451 94 q 659 137 589 94 q 728 272 728 181 q 657 414 728 368 q 468 460 585 460 l 242 460 l 242 94 l 451 94 z "},"C":{"ha":961,"x_min":89,"x_max":879,"o":"m 503 1018 q 689 978 607 1018 q 821 870 772 938 q 879 721 870 803 l 764 714 q 679 865 745 809 q 502 922 613 922 q 283 816 358 922 q 208 502 208 711 q 284 189 208 295 q 510 83 360 83 q 625 108 573 83 q 712 178 677 133 q 761 285 747 224 l 875 274 q 818 128 866 194 q 690 24 770 63 q 511 -14 610 -14 q 283 48 378 -14 q 139 226 188 110 q 89 503 89 342 q 138 779 89 663 q 279 957 186 895 q 503 1018 372 1018 z "},"Ć":{"ha":961,"x_min":89,"x_max":879,"o":"m 503 1018 q 689 978 607 1018 q 821 870 772 938 q 879 721 870 803 l 764 714 q 679 865 745 809 q 502 922 613 922 q 283 816 358 922 q 208 502 208 711 q 284 189 208 295 q 510 83 360 83 q 625 108 573 83 q 712 178 677 133 q 761 285 747 224 l 875 274 q 818 128 866 194 q 690 24 770 63 q 511 -14 610 -14 q 283 48 378 -14 q 139 226 188 110 q 89 503 89 342 q 138 779 89 663 q 279 957 186 895 q 503 1018 372 1018 m 686 1215 l 341 1111 l 322 1170 l 658 1303 l 686 1215 z "},"Č":{"ha":961,"x_min":89,"x_max":879,"o":"m 503 1018 q 689 978 607 1018 q 821 870 772 938 q 879 721 870 803 l 764 714 q 679 865 745 809 q 502 922 613 922 q 283 816 358 922 q 208 502 208 711 q 284 189 208 295 q 510 83 360 83 q 625 108 573 83 q 712 178 677 133 q 761 285 747 224 l 875 274 q 818 128 866 194 q 690 24 770 63 q 511 -14 610 -14 q 283 48 378 -14 q 139 226 188 110 q 89 503 89 342 q 138 779 89 663 q 279 957 186 895 q 503 1018 372 1018 m 713 1291 l 544 1138 l 465 1138 l 292 1291 l 398 1291 l 503 1200 l 602 1291 l 713 1291 z "},"Ç":{"ha":961,"x_min":89,"x_max":879,"o":"m 510 83 q 625 108 573 83 q 712 178 677 133 q 761 285 747 224 l 875 274 q 822 134 866 197 q 703 31 777 70 q 538 -13 630 -8 l 512 -78 q 603 -110 575 -81 q 632 -178 632 -139 q 590 -256 632 -228 q 485 -283 548 -283 q 361 -249 413 -283 l 381 -200 q 423 -224 401 -215 q 473 -232 444 -232 q 530 -218 511 -232 q 549 -179 549 -205 q 523 -133 549 -149 q 440 -117 497 -118 q 432 -115 434 -117 q 433 -108 431 -113 l 475 -12 q 266 60 353 -4 q 134 237 179 124 q 89 503 89 350 q 138 779 89 663 q 279 957 186 895 q 503 1018 372 1018 q 689 978 607 1018 q 821 870 772 938 q 879 721 870 803 l 764 714 q 679 865 745 809 q 502 922 613 922 q 283 816 358 922 q 208 502 208 711 q 284 189 208 295 q 510 83 360 83 z "},"Ĉ":{"ha":961,"x_min":89,"x_max":879,"o":"m 503 1018 q 689 978 607 1018 q 821 870 772 938 q 879 721 870 803 l 764 714 q 679 865 745 809 q 502 922 613 922 q 283 816 358 922 q 208 502 208 711 q 284 189 208 295 q 510 83 360 83 q 625 108 573 83 q 712 178 677 133 q 761 285 747 224 l 875 274 q 818 128 866 194 q 690 24 770 63 q 511 -14 610 -14 q 283 48 378 -14 q 139 226 188 110 q 89 503 89 342 q 138 779 89 663 q 279 957 186 895 q 503 1018 372 1018 m 503 1233 l 398 1142 l 294 1142 l 465 1294 l 544 1294 l 713 1142 l 602 1142 l 503 1233 z "},"Ċ":{"ha":961,"x_min":89,"x_max":879,"o":"m 503 1018 q 689 978 607 1018 q 821 870 772 938 q 879 721 870 803 l 764 714 q 679 865 745 809 q 502 922 613 922 q 283 816 358 922 q 208 502 208 711 q 284 189 208 295 q 510 83 360 83 q 625 108 573 83 q 712 178 677 133 q 761 285 747 224 l 875 274 q 818 128 866 194 q 690 24 770 63 q 511 -14 610 -14 q 283 48 378 -14 q 139 226 188 110 q 89 503 89 342 q 138 779 89 663 q 279 957 186 895 q 503 1018 372 1018 m 444 1254 l 563 1254 l 563 1135 l 444 1135 l 444 1254 z "},"D":{"ha":953,"x_min":134,"x_max":872,"o":"m 349 1003 q 648 945 533 1001 q 817 781 763 890 q 872 509 872 673 q 739 127 872 253 q 334 0 607 0 l 134 0 l 134 1004 l 349 1003 m 247 96 l 333 96 q 651 192 544 96 q 758 506 758 288 q 709 743 758 655 q 569 870 661 832 q 340 908 478 908 l 247 908 l 247 96 z "},"Ð":{"ha":966,"x_min":49,"x_max":885,"o":"m 362 1003 q 661 945 545 1001 q 831 781 776 890 q 885 509 885 673 q 752 127 885 253 q 347 0 620 0 l 147 0 l 147 458 l 49 458 l 49 548 l 147 548 l 147 1004 l 362 1003 m 346 96 q 663 192 556 96 q 770 506 770 288 q 722 743 770 655 q 582 870 674 832 q 352 908 490 908 l 259 908 l 259 548 l 499 548 l 499 458 l 259 458 l 259 96 l 346 96 z "},"Ď":{"ha":953,"x_min":134,"x_max":872,"o":"m 349 1003 q 648 945 533 1001 q 817 781 763 890 q 872 509 872 673 q 739 127 872 253 q 334 0 607 0 l 134 0 l 134 1004 l 349 1003 m 247 96 l 333 96 q 651 192 544 96 q 758 506 758 288 q 709 743 758 655 q 569 870 661 832 q 340 908 478 908 l 247 908 l 247 96 m 673 1291 l 504 1138 l 425 1138 l 252 1291 l 358 1291 l 463 1200 l 562 1291 l 673 1291 z "},"Đ":{"ha":966,"x_min":49,"x_max":885,"o":"m 362 1003 q 661 945 545 1001 q 831 781 776 890 q 885 509 885 673 q 752 127 885 253 q 347 0 620 0 l 147 0 l 147 458 l 49 458 l 49 548 l 147 548 l 147 1004 l 362 1003 m 346 96 q 663 192 556 96 q 770 506 770 288 q 722 743 770 655 q 582 870 674 832 q 352 908 490 908 l 259 908 l 259 548 l 499 548 l 499 458 l 259 458 l 259 96 l 346 96 z "},"Ḍ":{"ha":953,"x_min":134,"x_max":872,"o":"m 349 1003 q 648 945 533 1001 q 817 781 763 890 q 872 509 872 673 q 739 127 872 253 q 334 0 607 0 l 134 0 l 134 1004 l 349 1003 m 247 96 l 333 96 q 651 192 544 96 q 758 506 758 288 q 709 743 758 655 q 569 870 661 832 q 340 908 478 908 l 247 908 l 247 96 z "},"E":{"ha":858,"x_min":134,"x_max":767,"o":"m 134 1004 l 751 1004 l 751 907 l 242 907 l 242 556 l 705 556 l 705 458 l 242 458 l 242 100 l 767 99 l 767 0 l 134 0 l 134 1004 z "},"É":{"ha":858,"x_min":134,"x_max":767,"o":"m 134 1004 l 751 1004 l 751 907 l 242 907 l 242 556 l 705 556 l 705 458 l 242 458 l 242 100 l 767 99 l 767 0 l 134 0 l 134 1004 m 628 1215 l 283 1111 l 263 1170 l 599 1303 l 628 1215 z "},"Ĕ":{"ha":858,"x_min":134,"x_max":767,"o":"m 134 1004 l 751 1004 l 751 907 l 242 907 l 242 556 l 705 556 l 705 458 l 242 458 l 242 100 l 767 99 l 767 0 l 134 0 l 134 1004 m 653 1288 q 615 1219 642 1251 q 545 1166 588 1186 q 449 1145 502 1145 q 354 1165 396 1145 q 286 1216 313 1184 q 250 1288 260 1249 l 335 1288 q 379 1238 354 1258 q 449 1217 403 1217 q 565 1288 522 1217 l 653 1288 z "},"Ě":{"ha":858,"x_min":134,"x_max":767,"o":"m 134 1004 l 751 1004 l 751 907 l 242 907 l 242 556 l 705 556 l 705 458 l 242 458 l 242 100 l 767 99 l 767 0 l 134 0 l 134 1004 m 655 1291 l 486 1138 l 407 1138 l 234 1291 l 340 1291 l 445 1200 l 544 1291 l 655 1291 z "},"Ê":{"ha":858,"x_min":134,"x_max":767,"o":"m 134 1004 l 751 1004 l 751 907 l 242 907 l 242 556 l 705 556 l 705 458 l 242 458 l 242 100 l 767 99 l 767 0 l 134 0 l 134 1004 m 445 1233 l 340 1142 l 235 1142 l 407 1294 l 486 1294 l 655 1142 l 544 1142 l 445 1233 z "},"Ế":{"ha":858,"x_min":134,"x_max":767,"o":"m 134 1004 l 751 1004 l 751 907 l 242 907 l 242 556 l 705 556 l 705 458 l 242 458 l 242 100 l 767 99 l 767 0 l 134 0 l 134 1004 z "},"Ệ":{"ha":858,"x_min":134,"x_max":767,"o":"m 134 1004 l 751 1004 l 751 907 l 242 907 l 242 556 l 705 556 l 705 458 l 242 458 l 242 100 l 767 99 l 767 0 l 134 0 l 134 1004 m 445 1233 l 340 1142 l 235 1142 l 407 1294 l 486 1294 l 655 1142 l 544 1142 l 445 1233 z "},"Ề":{"ha":858,"x_min":134,"x_max":767,"o":"m 134 1004 l 751 1004 l 751 907 l 242 907 l 242 556 l 705 556 l 705 458 l 242 458 l 242 100 l 767 99 l 767 0 l 134 0 l 134 1004 z "},"Ể":{"ha":858,"x_min":134,"x_max":767,"o":"m 134 1004 l 751 1004 l 751 907 l 242 907 l 242 556 l 705 556 l 705 458 l 242 458 l 242 100 l 767 99 l 767 0 l 134 0 l 134 1004 z "},"Ễ":{"ha":858,"x_min":134,"x_max":767,"o":"m 134 1004 l 751 1004 l 751 907 l 242 907 l 242 556 l 705 556 l 705 458 l 242 458 l 242 100 l 767 99 l 767 0 l 134 0 l 134 1004 z "},"Ȅ":{"ha":858,"x_min":134,"x_max":767,"o":"m 134 1004 l 751 1004 l 751 907 l 242 907 l 242 556 l 705 556 l 705 458 l 242 458 l 242 100 l 767 99 l 767 0 l 134 0 l 134 1004 m 400 1115 l 363 1067 l 157 1235 l 216 1306 l 400 1115 m 617 1115 l 578 1067 l 374 1235 l 433 1306 l 617 1115 z "},"Ë":{"ha":858,"x_min":134,"x_max":767,"o":"m 134 1004 l 751 1004 l 751 907 l 242 907 l 242 556 l 705 556 l 705 458 l 242 458 l 242 100 l 767 99 l 767 0 l 134 0 l 134 1004 m 275 1280 l 392 1280 l 392 1160 l 275 1160 l 275 1280 m 494 1280 l 613 1280 l 613 1160 l 494 1160 l 494 1280 z "},"Ė":{"ha":858,"x_min":134,"x_max":767,"o":"m 134 1004 l 751 1004 l 751 907 l 242 907 l 242 556 l 705 556 l 705 458 l 242 458 l 242 100 l 767 99 l 767 0 l 134 0 l 134 1004 m 386 1254 l 504 1254 l 504 1135 l 386 1135 l 386 1254 z "},"Ẹ":{"ha":858,"x_min":134,"x_max":767,"o":"m 134 1004 l 751 1004 l 751 907 l 242 907 l 242 556 l 705 556 l 705 458 l 242 458 l 242 100 l 767 99 l 767 0 l 134 0 l 134 1004 z "},"È":{"ha":858,"x_min":134,"x_max":767,"o":"m 134 1004 l 751 1004 l 751 907 l 242 907 l 242 556 l 705 556 l 705 458 l 242 458 l 242 100 l 767 99 l 767 0 l 134 0 l 134 1004 m 609 1170 l 590 1111 l 244 1215 l 274 1303 l 609 1170 z "},"Ẻ":{"ha":858,"x_min":134,"x_max":767,"o":"m 134 1004 l 751 1004 l 751 907 l 242 907 l 242 556 l 705 556 l 705 458 l 242 458 l 242 100 l 767 99 l 767 0 l 134 0 l 134 1004 m 386 1252 q 445 1272 416 1272 q 489 1250 475 1272 q 497 1224 497 1237 q 483 1188 497 1206 q 447 1156 470 1169 l 483 1101 q 544 1157 523 1126 q 566 1222 566 1188 q 544 1288 566 1255 q 503 1325 528 1312 q 447 1338 478 1338 q 351 1306 401 1338 l 386 1252 z "},"Ȇ":{"ha":858,"x_min":134,"x_max":767,"o":"m 134 1004 l 751 1004 l 751 907 l 242 907 l 242 556 l 705 556 l 705 458 l 242 458 l 242 100 l 767 99 l 767 0 l 134 0 l 134 1004 m 558 1204 q 512 1255 540 1235 q 442 1275 485 1275 q 373 1255 397 1275 q 329 1204 348 1235 l 244 1204 q 280 1276 253 1244 q 348 1328 306 1308 q 442 1347 390 1347 q 538 1327 496 1347 q 608 1274 581 1306 q 646 1204 635 1241 l 558 1204 z "},"Ē":{"ha":858,"x_min":134,"x_max":767,"o":"m 134 1004 l 751 1004 l 751 907 l 242 907 l 242 556 l 705 556 l 705 458 l 242 458 l 242 100 l 767 99 l 767 0 l 134 0 l 134 1004 m 642 1191 l 248 1191 l 248 1271 l 642 1271 l 642 1191 z "},"Ę":{"ha":858,"x_min":134,"x_max":808,"o":"m 708 -169 q 765 -161 738 -169 q 808 -144 791 -153 l 808 -205 q 755 -224 790 -216 q 683 -232 721 -232 q 583 -203 617 -232 q 549 -124 549 -174 q 574 -53 549 -83 q 660 0 599 -24 l 134 0 l 134 1004 l 751 1004 l 751 907 l 242 907 l 242 556 l 705 556 l 705 458 l 242 458 l 242 100 l 767 99 l 767 3 l 774 2 q 672 -55 703 -28 q 641 -116 641 -81 q 657 -156 641 -142 q 708 -169 673 -169 z "},"Ẽ":{"ha":858,"x_min":134,"x_max":767,"o":"m 134 1004 l 751 1004 l 751 907 l 242 907 l 242 556 l 705 556 l 705 458 l 242 458 l 242 100 l 767 99 l 767 0 l 134 0 l 134 1004 m 648 1214 q 598 1186 625 1197 q 533 1176 572 1176 q 488 1181 508 1176 q 440 1194 467 1185 q 398 1207 415 1203 q 363 1211 382 1211 q 325 1206 342 1211 q 299 1194 309 1201 q 268 1174 288 1188 l 247 1234 q 298 1270 274 1258 q 357 1283 322 1283 q 400 1278 379 1283 q 449 1263 421 1273 q 496 1250 478 1254 q 534 1245 514 1245 q 581 1254 561 1245 q 626 1281 601 1263 l 648 1214 z "},"F":{"ha":801,"x_min":134,"x_max":744,"o":"m 744 1004 l 744 908 l 247 908 l 247 554 l 697 554 l 697 458 l 247 458 l 247 0 l 134 0 l 134 1004 l 744 1004 z "},"G":{"ha":1015,"x_min":89,"x_max":899,"o":"m 508 -14 q 284 48 378 -14 q 139 225 190 110 q 89 499 89 341 q 141 777 89 660 q 289 956 193 894 q 513 1018 385 1018 q 689 977 606 1018 q 823 869 772 937 q 881 723 875 801 l 763 715 q 717 819 752 772 q 629 893 683 866 q 511 919 576 919 q 348 872 417 919 q 242 731 278 824 q 205 507 205 639 q 242 273 205 367 q 349 132 280 178 q 514 85 419 85 q 658 125 598 85 q 750 222 719 164 q 783 338 781 281 l 787 435 l 533 435 l 533 517 l 899 516 l 899 0 l 813 0 l 813 159 q 693 34 769 82 q 508 -14 617 -14 z "},"Ğ":{"ha":1015,"x_min":89,"x_max":899,"o":"m 508 -14 q 284 48 378 -14 q 139 225 190 110 q 89 499 89 341 q 141 777 89 660 q 289 956 193 894 q 513 1018 385 1018 q 689 977 606 1018 q 823 869 772 937 q 881 723 875 801 l 763 715 q 717 819 752 772 q 629 893 683 866 q 511 919 576 919 q 348 872 417 919 q 242 731 278 824 q 205 507 205 639 q 242 273 205 367 q 349 132 280 178 q 514 85 419 85 q 658 125 598 85 q 750 222 719 164 q 783 338 781 281 l 787 435 l 533 435 l 533 517 l 899 516 l 899 0 l 813 0 l 813 159 q 693 34 769 82 q 508 -14 617 -14 m 718 1288 q 680 1219 707 1251 q 610 1166 653 1186 q 514 1145 567 1145 q 419 1165 461 1145 q 351 1216 378 1184 q 315 1288 325 1249 l 401 1288 q 444 1238 419 1258 q 514 1217 469 1217 q 630 1288 588 1217 l 718 1288 z "},"Ĝ":{"ha":1015,"x_min":89,"x_max":899,"o":"m 508 -14 q 284 48 378 -14 q 139 225 190 110 q 89 499 89 341 q 141 777 89 660 q 289 956 193 894 q 513 1018 385 1018 q 689 977 606 1018 q 823 869 772 937 q 881 723 875 801 l 763 715 q 717 819 752 772 q 629 893 683 866 q 511 919 576 919 q 348 872 417 919 q 242 731 278 824 q 205 507 205 639 q 242 273 205 367 q 349 132 280 178 q 514 85 419 85 q 658 125 598 85 q 750 222 719 164 q 783 338 781 281 l 787 435 l 533 435 l 533 517 l 899 516 l 899 0 l 813 0 l 813 159 q 693 34 769 82 q 508 -14 617 -14 m 510 1233 l 405 1142 l 301 1142 l 472 1294 l 551 1294 l 720 1142 l 609 1142 l 510 1233 z "},"Ģ":{"ha":1015,"x_min":89,"x_max":899,"o":"m 508 -14 q 284 48 378 -14 q 139 225 190 110 q 89 499 89 341 q 141 777 89 660 q 289 956 193 894 q 513 1018 385 1018 q 689 977 606 1018 q 823 869 772 937 q 881 723 875 801 l 763 715 q 717 819 752 772 q 629 893 683 866 q 511 919 576 919 q 348 872 417 919 q 242 731 278 824 q 205 507 205 639 q 242 273 205 367 q 349 132 280 178 q 514 85 419 85 q 658 125 598 85 q 750 222 719 164 q 783 338 781 281 l 787 435 l 533 435 l 533 517 l 899 516 l 899 0 l 813 0 l 813 159 q 693 34 769 82 q 508 -14 617 -14 z "},"Ġ":{"ha":1015,"x_min":89,"x_max":899,"o":"m 508 -14 q 284 48 378 -14 q 139 225 190 110 q 89 499 89 341 q 141 777 89 660 q 289 956 193 894 q 513 1018 385 1018 q 689 977 606 1018 q 823 869 772 937 q 881 723 875 801 l 763 715 q 717 819 752 772 q 629 893 683 866 q 511 919 576 919 q 348 872 417 919 q 242 731 278 824 q 205 507 205 639 q 242 273 205 367 q 349 132 280 178 q 514 85 419 85 q 658 125 598 85 q 750 222 719 164 q 783 338 781 281 l 787 435 l 533 435 l 533 517 l 899 516 l 899 0 l 813 0 l 813 159 q 693 34 769 82 q 508 -14 617 -14 m 451 1254 l 569 1254 l 569 1135 l 451 1135 l 451 1254 z "},"H":{"ha":971,"x_min":134,"x_max":842,"o":"m 242 472 l 242 0 l 134 0 l 134 1004 l 242 1004 l 242 569 l 734 569 l 734 1004 l 842 1004 l 842 0 l 734 0 l 734 472 l 242 472 z "},"Ħ":{"ha":1013,"x_min":17,"x_max":995,"o":"m 995 776 l 859 776 l 859 0 l 751 0 l 751 472 l 259 472 l 259 0 l 151 0 l 151 776 l 17 776 l 17 851 l 151 851 l 151 1004 l 259 1004 l 259 851 l 751 851 l 751 1004 l 859 1004 l 859 851 l 995 851 l 995 776 m 751 776 l 259 776 l 259 569 l 751 569 l 751 776 z "},"Ĥ":{"ha":971,"x_min":134,"x_max":842,"o":"m 242 472 l 242 0 l 134 0 l 134 1004 l 242 1004 l 242 569 l 734 569 l 734 1004 l 842 1004 l 842 0 l 734 0 l 734 472 l 242 472 m 488 1233 l 383 1142 l 278 1142 l 450 1294 l 529 1294 l 698 1142 l 587 1142 l 488 1233 z "},"Ḥ":{"ha":971,"x_min":134,"x_max":842,"o":"m 242 472 l 242 0 l 134 0 l 134 1004 l 242 1004 l 242 569 l 734 569 l 734 1004 l 842 1004 l 842 0 l 734 0 l 734 472 l 242 472 z "},"I":{"ha":371,"x_min":134,"x_max":242,"o":"m 242 1004 l 242 0 l 134 0 l 134 1004 l 242 1004 z "},"Í":{"ha":371,"x_min":6,"x_max":371,"o":"m 242 1004 l 242 0 l 134 0 l 134 1004 l 242 1004 m 371 1215 l 26 1111 l 6 1170 l 342 1303 l 371 1215 z "},"Ĭ":{"ha":371,"x_min":-7,"x_max":396,"o":"m 242 1004 l 242 0 l 134 0 l 134 1004 l 242 1004 m 396 1288 q 358 1219 385 1251 q 288 1166 331 1186 q 192 1145 245 1145 q 97 1165 139 1145 q 29 1216 56 1184 q -7 1288 3 1249 l 78 1288 q 122 1238 97 1258 q 192 1217 147 1217 q 308 1288 265 1217 l 396 1288 z "},"Î":{"ha":371,"x_min":-22,"x_max":398,"o":"m 242 1004 l 242 0 l 134 0 l 134 1004 l 242 1004 m 188 1233 l 83 1142 l -22 1142 l 150 1294 l 229 1294 l 398 1142 l 287 1142 l 188 1233 z "},"Ȉ":{"ha":371,"x_min":-100,"x_max":360,"o":"m 242 1004 l 242 0 l 134 0 l 134 1004 l 242 1004 m 143 1115 l 106 1067 l -100 1235 l -41 1306 l 143 1115 m 360 1115 l 322 1067 l 117 1235 l 176 1306 l 360 1115 z "},"Ï":{"ha":371,"x_min":19,"x_max":356,"o":"m 242 1004 l 242 0 l 134 0 l 134 1004 l 242 1004 m 19 1280 l 136 1280 l 136 1160 l 19 1160 l 19 1280 m 238 1280 l 356 1280 l 356 1160 l 238 1160 l 238 1280 z "},"İ":{"ha":371,"x_min":130,"x_max":248,"o":"m 242 1004 l 242 0 l 134 0 l 134 1004 l 242 1004 m 130 1254 l 248 1254 l 248 1135 l 130 1135 l 130 1254 z "},"Ị":{"ha":371,"x_min":133,"x_max":251,"o":"m 242 1004 l 242 0 l 134 0 l 134 1004 l 242 1004 z "},"Ì":{"ha":371,"x_min":-12,"x_max":352,"o":"m 242 1004 l 242 0 l 134 0 l 134 1004 l 242 1004 m 352 1170 l 333 1111 l -12 1215 l 17 1303 l 352 1170 z "},"Ỉ":{"ha":371,"x_min":94,"x_max":309,"o":"m 242 1004 l 242 0 l 134 0 l 134 1004 l 242 1004 m 129 1252 q 188 1272 159 1272 q 232 1250 218 1272 q 240 1224 240 1237 q 226 1188 240 1206 q 190 1156 213 1169 l 226 1101 q 288 1157 266 1126 q 309 1222 309 1188 q 288 1288 309 1255 q 246 1325 272 1312 q 190 1338 221 1338 q 94 1306 144 1338 l 129 1252 z "},"Ȋ":{"ha":371,"x_min":-13,"x_max":389,"o":"m 242 1004 l 242 0 l 134 0 l 134 1004 l 242 1004 m 301 1204 q 255 1255 283 1235 q 185 1275 228 1275 q 116 1255 140 1275 q 72 1204 91 1235 l -13 1204 q 23 1276 -3 1244 q 91 1328 49 1308 q 185 1347 133 1347 q 281 1327 239 1347 q 351 1274 324 1306 q 389 1204 378 1241 l 301 1204 z "},"Ī":{"ha":371,"x_min":-9,"x_max":385,"o":"m 242 1004 l 242 0 l 134 0 l 134 1004 l 242 1004 m 385 1191 l -9 1191 l -9 1271 l 385 1271 l 385 1191 z "},"Į":{"ha":371,"x_min":17,"x_max":275,"o":"m 176 -172 q 232 -164 206 -172 q 275 -147 258 -156 l 275 -208 q 223 -227 257 -219 q 151 -235 188 -235 q 51 -206 85 -235 q 17 -126 17 -177 q 43 -55 17 -85 q 135 0 69 -24 l 134 0 l 134 1004 l 242 1004 l 242 0 l 236 0 l 242 -1 q 139 -58 170 -31 q 108 -119 108 -84 q 124 -158 108 -145 q 176 -172 140 -172 z "},"Ĩ":{"ha":371,"x_min":-10,"x_max":391,"o":"m 242 1004 l 242 0 l 134 0 l 134 1004 l 242 1004 m 391 1214 q 341 1186 368 1197 q 276 1176 315 1176 q 231 1181 251 1176 q 183 1194 210 1185 q 141 1207 158 1203 q 106 1211 125 1211 q 68 1206 85 1211 q 42 1194 52 1201 q 11 1174 31 1188 l -10 1234 q 41 1270 17 1258 q 100 1283 65 1283 q 143 1278 122 1283 q 192 1263 164 1273 q 239 1250 222 1254 q 277 1245 257 1245 q 324 1254 304 1245 q 369 1281 344 1263 l 391 1214 z "},"J":{"ha":525,"x_min":35,"x_max":397,"o":"m 397 226 q 378 94 397 146 q 316 14 360 42 q 195 -14 272 -14 q 102 -2 147 -14 q 35 20 58 10 l 45 126 q 56 122 51 124 q 65 117 60 119 q 115 99 91 106 q 169 92 138 92 q 240 108 215 92 q 277 160 266 124 q 288 258 288 196 l 288 1004 l 397 1004 l 397 226 z "},"Ĵ":{"ha":525,"x_min":35,"x_max":549,"o":"m 397 226 q 378 94 397 146 q 316 14 360 42 q 195 -14 272 -14 q 102 -2 147 -14 q 35 20 58 10 l 45 126 q 56 122 51 124 q 65 117 60 119 q 115 99 91 106 q 169 92 138 92 q 240 108 215 92 q 277 160 266 124 q 288 258 288 196 l 288 1004 l 397 1004 l 397 226 m 340 1233 l 234 1142 l 130 1142 l 301 1294 l 381 1294 l 549 1142 l 438 1142 l 340 1233 z "},"K":{"ha":929,"x_min":134,"x_max":881,"o":"m 753 0 l 427 530 l 247 324 l 247 0 l 134 0 l 134 1004 l 247 1004 l 247 469 l 719 1004 l 851 1004 l 510 612 l 881 0 l 753 0 z "},"Ķ":{"ha":929,"x_min":134,"x_max":881,"o":"m 753 0 l 427 530 l 247 324 l 247 0 l 134 0 l 134 1004 l 247 1004 l 247 469 l 719 1004 l 851 1004 l 510 612 l 881 0 l 753 0 z "},"L":{"ha":776,"x_min":134,"x_max":731,"o":"m 247 1004 l 247 101 l 731 101 l 731 0 l 134 0 l 135 1004 l 247 1004 z "},"Ĺ":{"ha":776,"x_min":8,"x_max":731,"o":"m 247 1004 l 247 101 l 731 101 l 731 0 l 134 0 l 135 1004 l 247 1004 m 372 1215 l 27 1111 l 8 1170 l 344 1303 l 372 1215 z "},"Ľ":{"ha":776,"x_min":134,"x_max":731,"o":"m 247 1004 l 247 101 l 731 101 l 731 0 l 134 0 l 135 1004 l 247 1004 m 540 868 l 506 875 l 506 1004 l 603 1004 l 603 869 l 549 744 l 489 744 l 540 868 z "},"Ļ":{"ha":776,"x_min":134,"x_max":731,"o":"m 247 1004 l 247 101 l 731 101 l 731 0 l 134 0 l 135 1004 l 247 1004 z "},"Ŀ":{"ha":776,"x_min":134,"x_max":731,"o":"m 247 1004 l 247 101 l 731 101 l 731 0 l 134 0 l 135 1004 l 247 1004 m 721 475 l 575 475 l 575 615 l 721 615 l 721 475 z "},"Ł":{"ha":778,"x_min":31,"x_max":733,"o":"m 733 101 l 733 0 l 135 0 l 136 452 l 31 424 l 31 519 l 136 546 l 137 1004 l 248 1004 l 248 574 l 482 635 l 482 545 l 248 482 l 248 101 l 733 101 z "},"M":{"ha":1203,"x_min":134,"x_max":1075,"o":"m 134 1004 l 280 1004 l 603 144 l 931 1004 l 1075 1004 l 1075 0 l 963 0 l 963 824 l 658 0 l 549 0 l 247 815 l 247 0 l 134 0 l 134 1004 z "},"N":{"ha":1023,"x_min":134,"x_max":894,"o":"m 894 1004 l 894 0 l 798 0 l 242 819 l 242 0 l 134 0 l 134 1004 l 235 1004 l 786 192 l 786 1004 l 894 1004 z "},"Ń":{"ha":1023,"x_min":134,"x_max":894,"o":"m 894 1004 l 894 0 l 798 0 l 242 819 l 242 0 l 134 0 l 134 1004 l 235 1004 l 786 192 l 786 1004 l 894 1004 m 697 1215 l 351 1111 l 332 1170 l 668 1303 l 697 1215 z "},"Ň":{"ha":1023,"x_min":134,"x_max":894,"o":"m 894 1004 l 894 0 l 798 0 l 242 819 l 242 0 l 134 0 l 134 1004 l 235 1004 l 786 192 l 786 1004 l 894 1004 m 724 1291 l 555 1138 l 476 1138 l 303 1291 l 408 1291 l 514 1200 l 613 1291 l 724 1291 z "},"Ņ":{"ha":1023,"x_min":134,"x_max":894,"o":"m 894 1004 l 894 0 l 798 0 l 242 819 l 242 0 l 134 0 l 134 1004 l 235 1004 l 786 192 l 786 1004 l 894 1004 z "},"Ṅ":{"ha":1023,"x_min":134,"x_max":894,"o":"m 894 1004 l 894 0 l 798 0 l 242 819 l 242 0 l 134 0 l 134 1004 l 235 1004 l 786 192 l 786 1004 l 894 1004 m 455 1254 l 573 1254 l 573 1135 l 455 1135 l 455 1254 z "},"Ŋ":{"ha":1025,"x_min":134,"x_max":897,"o":"m 897 38 l 897 -94 q 878 -226 897 -174 q 816 -306 860 -278 q 695 -333 772 -333 q 602 -322 647 -333 q 535 -300 558 -310 l 545 -194 q 556 -199 551 -197 q 565 -203 560 -201 q 615 -222 591 -215 q 669 -228 638 -228 q 740 -212 715 -228 q 777 -160 766 -196 q 789 -62 789 -124 l 789 13 l 242 819 l 242 0 l 134 0 l 134 1004 l 235 1004 l 786 192 l 786 1004 l 894 1004 l 894 38 l 897 38 z "},"Ñ":{"ha":1023,"x_min":134,"x_max":894,"o":"m 894 1004 l 894 0 l 798 0 l 242 819 l 242 0 l 134 0 l 134 1004 l 235 1004 l 786 192 l 786 1004 l 894 1004 m 717 1214 q 667 1186 694 1197 q 602 1176 640 1176 q 557 1181 577 1176 q 508 1194 536 1185 q 467 1207 483 1203 q 431 1211 451 1211 q 394 1206 410 1211 q 367 1194 378 1201 q 337 1174 357 1188 l 315 1234 q 367 1270 342 1258 q 426 1283 391 1283 q 469 1278 448 1283 q 517 1263 490 1273 q 565 1250 547 1254 q 603 1245 583 1245 q 650 1254 630 1245 q 695 1281 670 1263 l 717 1214 z "},"O":{"ha":1032,"x_min":89,"x_max":943,"o":"m 517 -14 q 288 46 384 -14 q 140 220 192 106 q 89 498 89 335 q 141 780 89 663 q 289 957 192 897 q 518 1018 385 1018 q 745 958 649 1018 q 892 781 840 897 q 943 500 943 664 q 892 222 943 338 q 744 46 840 106 q 517 -14 649 -14 m 519 83 q 746 186 668 83 q 824 499 824 289 q 745 817 824 712 q 518 922 667 922 q 289 816 369 922 q 208 499 208 711 q 288 186 208 290 q 519 83 368 83 z "},"Ó":{"ha":1032,"x_min":89,"x_max":943,"o":"m 517 -14 q 288 46 384 -14 q 140 220 192 106 q 89 498 89 335 q 141 780 89 663 q 289 957 192 897 q 518 1018 385 1018 q 745 958 649 1018 q 892 781 840 897 q 943 500 943 664 q 892 222 943 338 q 744 46 840 106 q 517 -14 649 -14 m 519 83 q 746 186 668 83 q 824 499 824 289 q 745 817 824 712 q 518 922 667 922 q 289 816 369 922 q 208 499 208 711 q 288 186 208 290 q 519 83 368 83 m 701 1215 l 356 1111 l 336 1170 l 672 1303 l 701 1215 z "},"Ŏ":{"ha":1032,"x_min":89,"x_max":943,"o":"m 517 -14 q 288 46 384 -14 q 140 220 192 106 q 89 498 89 335 q 141 780 89 663 q 289 957 192 897 q 518 1018 385 1018 q 745 958 649 1018 q 892 781 840 897 q 943 500 943 664 q 892 222 943 338 q 744 46 840 106 q 517 -14 649 -14 m 519 83 q 746 186 668 83 q 824 499 824 289 q 745 817 824 712 q 518 922 667 922 q 289 816 369 922 q 208 499 208 711 q 288 186 208 290 q 519 83 368 83 m 726 1288 q 688 1219 715 1251 q 618 1166 660 1186 q 522 1145 575 1145 q 427 1165 469 1145 q 359 1216 385 1184 q 323 1288 333 1249 l 408 1288 q 452 1238 427 1258 q 522 1217 476 1217 q 638 1288 595 1217 l 726 1288 z "},"Ô":{"ha":1032,"x_min":89,"x_max":943,"o":"m 517 -14 q 288 46 384 -14 q 140 220 192 106 q 89 498 89 335 q 141 780 89 663 q 289 957 192 897 q 518 1018 385 1018 q 745 958 649 1018 q 892 781 840 897 q 943 500 943 664 q 892 222 943 338 q 744 46 840 106 q 517 -14 649 -14 m 519 83 q 746 186 668 83 q 824 499 824 289 q 745 817 824 712 q 518 922 667 922 q 289 816 369 922 q 208 499 208 711 q 288 186 208 290 q 519 83 368 83 m 518 1233 l 413 1142 l 308 1142 l 480 1294 l 559 1294 l 728 1142 l 617 1142 l 518 1233 z "},"Ố":{"ha":1032,"x_min":89,"x_max":943,"o":"m 517 -14 q 288 46 384 -14 q 140 220 192 106 q 89 498 89 335 q 141 780 89 663 q 289 957 192 897 q 518 1018 385 1018 q 745 958 649 1018 q 892 781 840 897 q 943 500 943 664 q 892 222 943 338 q 744 46 840 106 q 517 -14 649 -14 m 519 83 q 746 186 668 83 q 824 499 824 289 q 745 817 824 712 q 518 922 667 922 q 289 816 369 922 q 208 499 208 711 q 288 186 208 290 q 519 83 368 83 z "},"Ộ":{"ha":1032,"x_min":89,"x_max":943,"o":"m 517 -14 q 288 46 384 -14 q 140 220 192 106 q 89 498 89 335 q 141 780 89 663 q 289 957 192 897 q 518 1018 385 1018 q 745 958 649 1018 q 892 781 840 897 q 943 500 943 664 q 892 222 943 338 q 744 46 840 106 q 517 -14 649 -14 m 519 83 q 746 186 668 83 q 824 499 824 289 q 745 817 824 712 q 518 922 667 922 q 289 816 369 922 q 208 499 208 711 q 288 186 208 290 q 519 83 368 83 m 518 1233 l 413 1142 l 308 1142 l 480 1294 l 559 1294 l 728 1142 l 617 1142 l 518 1233 z "},"Ồ":{"ha":1032,"x_min":89,"x_max":943,"o":"m 517 -14 q 288 46 384 -14 q 140 220 192 106 q 89 498 89 335 q 141 780 89 663 q 289 957 192 897 q 518 1018 385 1018 q 745 958 649 1018 q 892 781 840 897 q 943 500 943 664 q 892 222 943 338 q 744 46 840 106 q 517 -14 649 -14 m 519 83 q 746 186 668 83 q 824 499 824 289 q 745 817 824 712 q 518 922 667 922 q 289 816 369 922 q 208 499 208 711 q 288 186 208 290 q 519 83 368 83 z "},"Ổ":{"ha":1032,"x_min":89,"x_max":943,"o":"m 517 -14 q 288 46 384 -14 q 140 220 192 106 q 89 498 89 335 q 141 780 89 663 q 289 957 192 897 q 518 1018 385 1018 q 745 958 649 1018 q 892 781 840 897 q 943 500 943 664 q 892 222 943 338 q 744 46 840 106 q 517 -14 649 -14 m 519 83 q 746 186 668 83 q 824 499 824 289 q 745 817 824 712 q 518 922 667 922 q 289 816 369 922 q 208 499 208 711 q 288 186 208 290 q 519 83 368 83 z "},"Ỗ":{"ha":1032,"x_min":89,"x_max":943,"o":"m 517 -14 q 288 46 384 -14 q 140 220 192 106 q 89 498 89 335 q 141 780 89 663 q 289 957 192 897 q 518 1018 385 1018 q 745 958 649 1018 q 892 781 840 897 q 943 500 943 664 q 892 222 943 338 q 744 46 840 106 q 517 -14 649 -14 m 519 83 q 746 186 668 83 q 824 499 824 289 q 745 817 824 712 q 518 922 667 922 q 289 816 369 922 q 208 499 208 711 q 288 186 208 290 q 519 83 368 83 z "},"Ȍ":{"ha":1032,"x_min":89,"x_max":943,"o":"m 517 -14 q 288 46 384 -14 q 140 220 192 106 q 89 498 89 335 q 141 780 89 663 q 289 957 192 897 q 518 1018 385 1018 q 745 958 649 1018 q 892 781 840 897 q 943 500 943 664 q 892 222 943 338 q 744 46 840 106 q 517 -14 649 -14 m 519 83 q 746 186 668 83 q 824 499 824 289 q 745 817 824 712 q 518 922 667 922 q 289 816 369 922 q 208 499 208 711 q 288 186 208 290 q 519 83 368 83 m 474 1115 l 436 1067 l 231 1235 l 290 1306 l 474 1115 m 690 1115 l 652 1067 l 447 1235 l 506 1306 l 690 1115 z "},"Ö":{"ha":1032,"x_min":89,"x_max":943,"o":"m 517 -14 q 288 46 384 -14 q 140 220 192 106 q 89 498 89 335 q 141 780 89 663 q 289 957 192 897 q 518 1018 385 1018 q 745 958 649 1018 q 892 781 840 897 q 943 500 943 664 q 892 222 943 338 q 744 46 840 106 q 517 -14 649 -14 m 519 83 q 746 186 668 83 q 824 499 824 289 q 745 817 824 712 q 518 922 667 922 q 289 816 369 922 q 208 499 208 711 q 288 186 208 290 q 519 83 368 83 m 349 1280 l 466 1280 l 466 1160 l 349 1160 l 349 1280 m 568 1280 l 686 1280 l 686 1160 l 568 1160 l 568 1280 z "},"Ọ":{"ha":1032,"x_min":89,"x_max":943,"o":"m 517 -14 q 288 46 384 -14 q 140 220 192 106 q 89 498 89 335 q 141 780 89 663 q 289 957 192 897 q 518 1018 385 1018 q 745 958 649 1018 q 892 781 840 897 q 943 500 943 664 q 892 222 943 338 q 744 46 840 106 q 517 -14 649 -14 m 519 83 q 746 186 668 83 q 824 499 824 289 q 745 817 824 712 q 518 922 667 922 q 289 816 369 922 q 208 499 208 711 q 288 186 208 290 q 519 83 368 83 z "},"Ò":{"ha":1032,"x_min":89,"x_max":943,"o":"m 517 -14 q 288 46 384 -14 q 140 220 192 106 q 89 498 89 335 q 141 780 89 663 q 289 957 192 897 q 518 1018 385 1018 q 745 958 649 1018 q 892 781 840 897 q 943 500 943 664 q 892 222 943 338 q 744 46 840 106 q 517 -14 649 -14 m 519 83 q 746 186 668 83 q 824 499 824 289 q 745 817 824 712 q 518 922 667 922 q 289 816 369 922 q 208 499 208 711 q 288 186 208 290 q 519 83 368 83 m 683 1170 l 663 1111 l 318 1215 l 347 1303 l 683 1170 z "},"Ỏ":{"ha":1032,"x_min":89,"x_max":943,"o":"m 517 -14 q 288 46 384 -14 q 140 220 192 106 q 89 498 89 335 q 141 780 89 663 q 289 957 192 897 q 518 1018 385 1018 q 745 958 649 1018 q 892 781 840 897 q 943 500 943 664 q 892 222 943 338 q 744 46 840 106 q 517 -14 649 -14 m 519 83 q 746 186 668 83 q 824 499 824 289 q 745 817 824 712 q 518 922 667 922 q 289 816 369 922 q 208 499 208 711 q 288 186 208 290 q 519 83 368 83 m 459 1252 q 518 1272 489 1272 q 562 1250 548 1272 q 569 1224 569 1237 q 556 1188 569 1206 q 520 1156 543 1169 l 556 1101 q 617 1157 596 1126 q 639 1222 639 1188 q 617 1288 639 1255 q 576 1325 601 1312 q 520 1338 551 1338 q 424 1306 474 1338 l 459 1252 z "},"Ơ":{"ha":1072,"x_min":89,"x_max":1010,"o":"m 1010 1025 q 976 878 1009 928 q 872 821 944 828 q 943 500 943 692 q 892 222 943 338 q 744 46 840 106 q 517 -14 649 -14 q 288 46 384 -14 q 140 220 192 106 q 89 498 89 335 q 141 780 89 663 q 289 957 192 897 q 518 1018 385 1018 q 688 987 612 1018 q 819 895 764 956 q 874 907 854 897 q 904 944 894 917 q 916 1025 914 972 l 1010 1025 m 519 83 q 746 186 668 83 q 824 499 824 289 q 745 817 824 712 q 518 922 667 922 q 289 816 369 922 q 208 499 208 711 q 288 186 208 290 q 519 83 368 83 z "},"Ớ":{"ha":1072,"x_min":89,"x_max":1010,"o":"m 1010 1025 q 976 878 1009 928 q 872 821 944 828 q 943 500 943 692 q 892 222 943 338 q 744 46 840 106 q 517 -14 649 -14 q 288 46 384 -14 q 140 220 192 106 q 89 498 89 335 q 141 780 89 663 q 289 957 192 897 q 518 1018 385 1018 q 688 987 612 1018 q 819 895 764 956 q 874 907 854 897 q 904 944 894 917 q 916 1025 914 972 l 1010 1025 m 519 83 q 746 186 668 83 q 824 499 824 289 q 745 817 824 712 q 518 922 667 922 q 289 816 369 922 q 208 499 208 711 q 288 186 208 290 q 519 83 368 83 m 701 1215 l 356 1111 l 336 1170 l 672 1303 l 701 1215 z "},"Ợ":{"ha":1072,"x_min":89,"x_max":1010,"o":"m 1010 1025 q 976 878 1009 928 q 872 821 944 828 q 943 500 943 692 q 892 222 943 338 q 744 46 840 106 q 517 -14 649 -14 q 288 46 384 -14 q 140 220 192 106 q 89 498 89 335 q 141 780 89 663 q 289 957 192 897 q 518 1018 385 1018 q 688 987 612 1018 q 819 895 764 956 q 874 907 854 897 q 904 944 894 917 q 916 1025 914 972 l 1010 1025 m 519 83 q 746 186 668 83 q 824 499 824 289 q 745 817 824 712 q 518 922 667 922 q 289 816 369 922 q 208 499 208 711 q 288 186 208 290 q 519 83 368 83 z "},"Ờ":{"ha":1072,"x_min":89,"x_max":1010,"o":"m 1010 1025 q 976 878 1009 928 q 872 821 944 828 q 943 500 943 692 q 892 222 943 338 q 744 46 840 106 q 517 -14 649 -14 q 288 46 384 -14 q 140 220 192 106 q 89 498 89 335 q 141 780 89 663 q 289 957 192 897 q 518 1018 385 1018 q 688 987 612 1018 q 819 895 764 956 q 874 907 854 897 q 904 944 894 917 q 916 1025 914 972 l 1010 1025 m 519 83 q 746 186 668 83 q 824 499 824 289 q 745 817 824 712 q 518 922 667 922 q 289 816 369 922 q 208 499 208 711 q 288 186 208 290 q 519 83 368 83 m 683 1170 l 663 1111 l 318 1215 l 347 1303 l 683 1170 z "},"Ở":{"ha":1072,"x_min":89,"x_max":1010,"o":"m 1010 1025 q 976 878 1009 928 q 872 821 944 828 q 943 500 943 692 q 892 222 943 338 q 744 46 840 106 q 517 -14 649 -14 q 288 46 384 -14 q 140 220 192 106 q 89 498 89 335 q 141 780 89 663 q 289 957 192 897 q 518 1018 385 1018 q 688 987 612 1018 q 819 895 764 956 q 874 907 854 897 q 904 944 894 917 q 916 1025 914 972 l 1010 1025 m 519 83 q 746 186 668 83 q 824 499 824 289 q 745 817 824 712 q 518 922 667 922 q 289 816 369 922 q 208 499 208 711 q 288 186 208 290 q 519 83 368 83 m 459 1252 q 518 1272 489 1272 q 562 1250 548 1272 q 569 1224 569 1237 q 556 1188 569 1206 q 520 1156 543 1169 l 556 1101 q 617 1157 596 1126 q 639 1222 639 1188 q 617 1288 639 1255 q 576 1325 601 1312 q 520 1338 551 1338 q 424 1306 474 1338 l 459 1252 z "},"Ỡ":{"ha":1072,"x_min":89,"x_max":1010,"o":"m 1010 1025 q 976 878 1009 928 q 872 821 944 828 q 943 500 943 692 q 892 222 943 338 q 744 46 840 106 q 517 -14 649 -14 q 288 46 384 -14 q 140 220 192 106 q 89 498 89 335 q 141 780 89 663 q 289 957 192 897 q 518 1018 385 1018 q 688 987 612 1018 q 819 895 764 956 q 874 907 854 897 q 904 944 894 917 q 916 1025 914 972 l 1010 1025 m 519 83 q 746 186 668 83 q 824 499 824 289 q 745 817 824 712 q 518 922 667 922 q 289 816 369 922 q 208 499 208 711 q 288 186 208 290 q 519 83 368 83 m 722 1214 q 672 1186 699 1197 q 607 1176 645 1176 q 561 1181 582 1176 q 513 1194 541 1185 q 472 1207 488 1203 q 436 1211 456 1211 q 399 1206 415 1211 q 372 1194 383 1201 q 342 1174 362 1188 l 320 1234 q 372 1270 347 1258 q 431 1283 396 1283 q 474 1278 453 1283 q 522 1263 494 1273 q 570 1250 552 1254 q 608 1245 588 1245 q 655 1254 635 1245 q 700 1281 675 1263 l 722 1214 z "},"Ő":{"ha":1032,"x_min":89,"x_max":943,"o":"m 517 -14 q 288 46 384 -14 q 140 220 192 106 q 89 498 89 335 q 141 780 89 663 q 289 957 192 897 q 518 1018 385 1018 q 745 958 649 1018 q 892 781 840 897 q 943 500 943 664 q 892 222 943 338 q 744 46 840 106 q 517 -14 649 -14 m 519 83 q 746 186 668 83 q 824 499 824 289 q 745 817 824 712 q 518 922 667 922 q 289 816 369 922 q 208 499 208 711 q 288 186 208 290 q 519 83 368 83 m 581 1235 l 377 1067 l 338 1115 l 522 1306 l 581 1235 m 799 1235 l 594 1066 l 556 1115 l 739 1306 l 799 1235 z "},"Ȏ":{"ha":1032,"x_min":89,"x_max":943,"o":"m 517 -14 q 288 46 384 -14 q 140 220 192 106 q 89 498 89 335 q 141 780 89 663 q 289 957 192 897 q 518 1018 385 1018 q 745 958 649 1018 q 892 781 840 897 q 943 500 943 664 q 892 222 943 338 q 744 46 840 106 q 517 -14 649 -14 m 519 83 q 746 186 668 83 q 824 499 824 289 q 745 817 824 712 q 518 922 667 922 q 289 816 369 922 q 208 499 208 711 q 288 186 208 290 q 519 83 368 83 m 632 1204 q 586 1255 613 1235 q 516 1275 558 1275 q 446 1255 471 1275 q 403 1204 422 1235 l 317 1204 q 353 1276 327 1244 q 422 1328 380 1308 q 516 1347 463 1347 q 612 1327 569 1347 q 682 1274 654 1306 q 719 1204 709 1241 l 632 1204 z "},"Ō":{"ha":1032,"x_min":89,"x_max":943,"o":"m 517 -14 q 288 46 384 -14 q 140 220 192 106 q 89 498 89 335 q 141 780 89 663 q 289 957 192 897 q 518 1018 385 1018 q 745 958 649 1018 q 892 781 840 897 q 943 500 943 664 q 892 222 943 338 q 744 46 840 106 q 517 -14 649 -14 m 519 83 q 746 186 668 83 q 824 499 824 289 q 745 817 824 712 q 518 922 667 922 q 289 816 369 922 q 208 499 208 711 q 288 186 208 290 q 519 83 368 83 m 715 1191 l 321 1191 l 321 1271 l 715 1271 l 715 1191 z "},"Ǫ":{"ha":1032,"x_min":89,"x_max":943,"o":"m 629 -1 q 530 -57 560 -31 q 501 -117 501 -83 q 517 -157 501 -144 q 568 -170 533 -170 q 624 -162 598 -170 q 667 -146 651 -155 l 667 -206 q 615 -225 649 -217 q 543 -233 581 -233 q 443 -205 477 -233 q 409 -125 409 -176 q 428 -62 409 -90 q 492 -13 447 -35 q 276 54 367 -8 q 137 228 185 115 q 89 498 89 341 q 141 780 89 663 q 289 957 192 897 q 518 1018 385 1018 q 745 958 649 1018 q 892 781 840 897 q 943 500 943 664 q 906 257 943 362 q 798 88 869 153 q 629 -1 728 22 m 208 499 q 288 186 208 290 q 519 83 368 83 q 746 186 668 83 q 824 499 824 289 q 745 817 824 712 q 518 922 667 922 q 289 816 369 922 q 208 499 208 711 z "},"Ø":{"ha":1033,"x_min":42,"x_max":990,"o":"m 42 43 l 161 176 q 88 498 88 300 q 139 780 88 663 q 287 957 191 897 q 515 1018 383 1018 q 683 988 608 1018 q 814 898 758 957 l 926 1022 l 990 961 l 867 825 q 942 500 942 698 q 890 222 942 338 q 743 46 839 106 q 515 -14 647 -14 q 345 16 421 -14 q 217 103 270 46 l 106 -19 l 42 43 m 736 817 q 515 922 663 922 q 222 531 228 922 l 222 508 q 256 275 222 375 l 736 817 m 517 83 q 730 176 658 83 q 806 463 801 269 l 806 491 q 772 727 806 623 l 293 185 q 517 83 367 83 z "},"Ǿ":{"ha":1033,"x_min":42,"x_max":990,"o":"m 42 43 l 161 176 q 88 498 88 300 q 139 780 88 663 q 287 957 191 897 q 515 1018 383 1018 q 683 988 608 1018 q 814 898 758 957 l 926 1022 l 990 961 l 867 825 q 942 500 942 698 q 890 222 942 338 q 743 46 839 106 q 515 -14 647 -14 q 345 16 421 -14 q 217 103 270 46 l 106 -19 l 42 43 m 736 817 q 515 922 663 922 q 222 531 228 922 l 222 508 q 256 275 222 375 l 736 817 m 517 83 q 730 176 658 83 q 806 463 801 269 l 806 491 q 772 727 806 623 l 293 185 q 517 83 367 83 m 697 1215 l 352 1111 l 333 1170 l 669 1303 l 697 1215 z "},"Õ":{"ha":1032,"x_min":89,"x_max":943,"o":"m 517 -14 q 288 46 384 -14 q 140 220 192 106 q 89 498 89 335 q 141 780 89 663 q 289 957 192 897 q 518 1018 385 1018 q 745 958 649 1018 q 892 781 840 897 q 943 500 943 664 q 892 222 943 338 q 744 46 840 106 q 517 -14 649 -14 m 519 83 q 746 186 668 83 q 824 499 824 289 q 745 817 824 712 q 518 922 667 922 q 289 816 369 922 q 208 499 208 711 q 288 186 208 290 q 519 83 368 83 m 722 1214 q 672 1186 699 1197 q 607 1176 645 1176 q 561 1181 582 1176 q 513 1194 541 1185 q 472 1207 488 1203 q 436 1211 456 1211 q 399 1206 415 1211 q 372 1194 383 1201 q 342 1174 362 1188 l 320 1234 q 372 1270 347 1258 q 431 1283 396 1283 q 474 1278 453 1283 q 522 1263 494 1273 q 570 1250 552 1254 q 608 1245 588 1245 q 655 1254 635 1245 q 700 1281 675 1263 l 722 1214 z "},"Œ":{"ha":1550,"x_min":89,"x_max":1458,"o":"m 1458 0 l 844 0 l 827 143 q 702 26 780 65 q 521 -14 624 -14 q 289 46 386 -14 q 140 220 192 106 q 89 498 89 335 q 141 780 89 663 q 292 957 194 897 q 526 1018 390 1018 q 705 978 628 1018 q 827 860 781 939 l 848 1004 l 1440 1004 l 1439 908 l 940 908 l 940 555 l 1313 555 l 1313 460 l 940 460 l 940 97 l 1458 97 l 1458 0 m 519 82 q 740 184 667 82 q 812 499 812 286 q 739 819 812 715 q 518 924 665 924 q 218 499 218 924 q 293 185 218 288 q 519 82 369 82 z "},"P":{"ha":882,"x_min":134,"x_max":835,"o":"m 134 1004 l 465 1004 q 657 968 574 1004 q 788 861 740 932 q 835 690 835 790 q 790 520 835 592 q 666 412 746 449 q 481 375 585 375 l 247 375 l 247 0 l 134 0 l 134 1004 m 478 470 q 608 498 552 470 q 696 576 665 525 q 727 697 727 627 q 658 856 727 801 q 471 910 589 910 l 246 910 l 246 470 l 478 470 z "},"Þ":{"ha":911,"x_min":134,"x_max":864,"o":"m 864 522 q 767 305 864 376 q 506 233 670 233 l 258 233 l 258 0 l 134 0 l 134 1004 l 258 1004 l 258 794 l 491 794 q 685 765 601 794 q 817 674 769 735 q 864 522 864 613 m 737 523 q 485 700 737 700 l 258 700 l 258 327 l 494 327 q 673 375 609 327 q 737 523 737 423 z "},"Q":{"ha":1010,"x_min":68,"x_max":923,"o":"m 68 500 q 120 782 68 665 q 268 958 172 898 q 496 1018 364 1018 q 724 958 628 1018 q 872 782 820 898 q 923 500 923 665 q 874 224 923 336 q 719 47 825 111 q 796 -41 745 -12 q 913 -73 847 -71 l 913 -167 q 615 -1 714 -167 q 496 -14 549 -14 q 268 45 365 -14 q 120 219 172 104 q 68 500 68 335 m 188 497 q 266 185 188 288 q 496 83 345 83 q 725 186 647 83 q 804 499 804 288 q 725 815 804 709 q 496 922 647 922 q 266 815 345 922 q 188 497 188 708 z "},"R":{"ha":933,"x_min":134,"x_max":835,"o":"m 719 0 l 531 445 l 242 445 l 242 0 l 134 0 l 134 1004 l 513 1004 q 753 935 670 1004 q 835 737 835 865 q 778 559 835 624 q 635 465 721 494 l 835 0 l 719 0 m 470 538 q 659 586 594 538 q 724 729 724 633 q 667 867 724 821 q 505 913 610 913 l 242 913 l 242 538 l 470 538 z "},"Ŕ":{"ha":933,"x_min":134,"x_max":835,"o":"m 719 0 l 531 445 l 242 445 l 242 0 l 134 0 l 134 1004 l 513 1004 q 753 935 670 1004 q 835 737 835 865 q 778 559 835 624 q 635 465 721 494 l 835 0 l 719 0 m 470 538 q 659 586 594 538 q 724 729 724 633 q 667 867 724 821 q 505 913 610 913 l 242 913 l 242 538 l 470 538 m 632 1215 l 287 1111 l 267 1170 l 603 1303 l 632 1215 z "},"Ř":{"ha":933,"x_min":134,"x_max":835,"o":"m 719 0 l 531 445 l 242 445 l 242 0 l 134 0 l 134 1004 l 513 1004 q 753 935 670 1004 q 835 737 835 865 q 778 559 835 624 q 635 465 721 494 l 835 0 l 719 0 m 470 538 q 659 586 594 538 q 724 729 724 633 q 667 867 724 821 q 505 913 610 913 l 242 913 l 242 538 l 470 538 m 659 1291 l 490 1138 l 411 1138 l 238 1291 l 344 1291 l 449 1200 l 548 1291 l 659 1291 z "},"Ŗ":{"ha":933,"x_min":134,"x_max":835,"o":"m 719 0 l 531 445 l 242 445 l 242 0 l 134 0 l 134 1004 l 513 1004 q 753 935 670 1004 q 835 737 835 865 q 778 559 835 624 q 635 465 721 494 l 835 0 l 719 0 m 470 538 q 659 586 594 538 q 724 729 724 633 q 667 867 724 821 q 505 913 610 913 l 242 913 l 242 538 l 470 538 z "},"Ȑ":{"ha":933,"x_min":134,"x_max":835,"o":"m 719 0 l 531 445 l 242 445 l 242 0 l 134 0 l 134 1004 l 513 1004 q 753 935 670 1004 q 835 737 835 865 q 778 559 835 624 q 635 465 721 494 l 835 0 l 719 0 m 470 538 q 659 586 594 538 q 724 729 724 633 q 667 867 724 821 q 505 913 610 913 l 242 913 l 242 538 l 470 538 m 404 1115 l 367 1067 l 161 1235 l 220 1306 l 404 1115 m 621 1115 l 583 1067 l 378 1235 l 437 1306 l 621 1115 z "},"Ṛ":{"ha":933,"x_min":134,"x_max":835,"o":"m 719 0 l 531 445 l 242 445 l 242 0 l 134 0 l 134 1004 l 513 1004 q 753 935 670 1004 q 835 737 835 865 q 778 559 835 624 q 635 465 721 494 l 835 0 l 719 0 m 470 538 q 659 586 594 538 q 724 729 724 633 q 667 867 724 821 q 505 913 610 913 l 242 913 l 242 538 l 470 538 z "},"Ȓ":{"ha":933,"x_min":134,"x_max":835,"o":"m 719 0 l 531 445 l 242 445 l 242 0 l 134 0 l 134 1004 l 513 1004 q 753 935 670 1004 q 835 737 835 865 q 778 559 835 624 q 635 465 721 494 l 835 0 l 719 0 m 470 538 q 659 586 594 538 q 724 729 724 633 q 667 867 724 821 q 505 913 610 913 l 242 913 l 242 538 l 470 538 m 563 1204 q 516 1255 544 1235 q 447 1275 489 1275 q 377 1255 401 1275 q 333 1204 352 1235 l 248 1204 q 284 1276 258 1244 q 352 1328 310 1308 q 447 1347 394 1347 q 542 1327 500 1347 q 612 1274 585 1306 q 650 1204 640 1241 l 563 1204 z "},"S":{"ha":956,"x_min":87,"x_max":858,"o":"m 481 -14 q 299 17 383 -14 q 157 107 214 47 q 87 251 100 167 l 201 260 q 254 161 214 202 q 353 99 294 120 q 481 78 413 78 q 616 100 556 78 q 710 161 676 122 q 744 253 744 201 q 699 372 744 325 q 565 440 654 419 l 358 488 q 180 574 241 515 q 118 730 118 633 q 164 878 118 813 q 291 980 209 944 q 476 1017 372 1017 q 667 978 587 1017 q 791 877 747 940 q 842 738 835 813 l 732 729 q 647 876 716 830 q 475 922 577 922 q 359 901 415 922 q 270 838 304 880 q 235 738 235 797 q 252 670 235 699 q 310 620 269 642 q 420 581 350 599 l 619 533 q 805 428 751 503 q 858 256 858 353 q 814 119 858 181 q 683 22 769 58 q 481 -14 597 -14 z "},"Ś":{"ha":956,"x_min":87,"x_max":858,"o":"m 481 -14 q 299 17 383 -14 q 157 107 214 47 q 87 251 100 167 l 201 260 q 254 161 214 202 q 353 99 294 120 q 481 78 413 78 q 616 100 556 78 q 710 161 676 122 q 744 253 744 201 q 699 372 744 325 q 565 440 654 419 l 358 488 q 180 574 241 515 q 118 730 118 633 q 164 878 118 813 q 291 980 209 944 q 476 1017 372 1017 q 667 978 587 1017 q 791 877 747 940 q 842 738 835 813 l 732 729 q 647 876 716 830 q 475 922 577 922 q 359 901 415 922 q 270 838 304 880 q 235 738 235 797 q 252 670 235 699 q 310 620 269 642 q 420 581 350 599 l 619 533 q 805 428 751 503 q 858 256 858 353 q 814 119 858 181 q 683 22 769 58 q 481 -14 597 -14 m 656 1215 l 310 1111 l 291 1170 l 627 1303 l 656 1215 z "},"Š":{"ha":956,"x_min":87,"x_max":858,"o":"m 481 -14 q 299 17 383 -14 q 157 107 214 47 q 87 251 100 167 l 201 260 q 254 161 214 202 q 353 99 294 120 q 481 78 413 78 q 616 100 556 78 q 710 161 676 122 q 744 253 744 201 q 699 372 744 325 q 565 440 654 419 l 358 488 q 180 574 241 515 q 118 730 118 633 q 164 878 118 813 q 291 980 209 944 q 476 1017 372 1017 q 667 978 587 1017 q 791 877 747 940 q 842 738 835 813 l 732 729 q 647 876 716 830 q 475 922 577 922 q 359 901 415 922 q 270 838 304 880 q 235 738 235 797 q 252 670 235 699 q 310 620 269 642 q 420 581 350 599 l 619 533 q 805 428 751 503 q 858 256 858 353 q 814 119 858 181 q 683 22 769 58 q 481 -14 597 -14 m 683 1291 l 514 1138 l 435 1138 l 262 1291 l 367 1291 l 473 1200 l 572 1291 l 683 1291 z "},"Ş":{"ha":956,"x_min":87,"x_max":858,"o":"m 858 256 q 815 121 858 182 q 689 24 772 60 q 493 -14 606 -12 l 468 -78 q 560 -110 531 -81 q 588 -178 588 -139 q 546 -256 588 -228 q 442 -283 504 -283 q 317 -249 369 -283 l 338 -200 q 379 -224 357 -215 q 429 -232 401 -232 q 486 -218 467 -232 q 506 -179 506 -205 q 480 -133 506 -149 q 397 -117 453 -118 q 389 -115 390 -117 q 389 -108 387 -113 l 431 -12 q 271 28 344 -4 q 148 118 197 61 q 87 251 99 174 l 201 260 q 254 161 214 202 q 353 99 294 120 q 481 78 413 78 q 616 100 556 78 q 710 161 676 122 q 744 253 744 201 q 699 372 744 325 q 565 440 654 419 l 358 488 q 180 574 241 515 q 118 730 118 633 q 164 878 118 813 q 291 980 209 944 q 476 1017 372 1017 q 667 978 587 1017 q 791 877 747 940 q 842 738 835 813 l 732 729 q 647 876 716 830 q 475 922 577 922 q 359 901 415 922 q 270 838 304 880 q 235 738 235 797 q 252 670 235 699 q 310 620 269 642 q 420 581 350 599 l 619 533 q 805 428 751 503 q 858 256 858 353 z "},"Ŝ":{"ha":956,"x_min":87,"x_max":858,"o":"m 481 -14 q 299 17 383 -14 q 157 107 214 47 q 87 251 100 167 l 201 260 q 254 161 214 202 q 353 99 294 120 q 481 78 413 78 q 616 100 556 78 q 710 161 676 122 q 744 253 744 201 q 699 372 744 325 q 565 440 654 419 l 358 488 q 180 574 241 515 q 118 730 118 633 q 164 878 118 813 q 291 980 209 944 q 476 1017 372 1017 q 667 978 587 1017 q 791 877 747 940 q 842 738 835 813 l 732 729 q 647 876 716 830 q 475 922 577 922 q 359 901 415 922 q 270 838 304 880 q 235 738 235 797 q 252 670 235 699 q 310 620 269 642 q 420 581 350 599 l 619 533 q 805 428 751 503 q 858 256 858 353 q 814 119 858 181 q 683 22 769 58 q 481 -14 597 -14 m 473 1233 l 367 1142 l 263 1142 l 435 1294 l 514 1294 l 683 1142 l 572 1142 l 473 1233 z "},"Ș":{"ha":956,"x_min":87,"x_max":858,"o":"m 481 -14 q 299 17 383 -14 q 157 107 214 47 q 87 251 100 167 l 201 260 q 254 161 214 202 q 353 99 294 120 q 481 78 413 78 q 616 100 556 78 q 710 161 676 122 q 744 253 744 201 q 699 372 744 325 q 565 440 654 419 l 358 488 q 180 574 241 515 q 118 730 118 633 q 164 878 118 813 q 291 980 209 944 q 476 1017 372 1017 q 667 978 587 1017 q 791 877 747 940 q 842 738 835 813 l 732 729 q 647 876 716 830 q 475 922 577 922 q 359 901 415 922 q 270 838 304 880 q 235 738 235 797 q 252 670 235 699 q 310 620 269 642 q 420 581 350 599 l 619 533 q 805 428 751 503 q 858 256 858 353 q 814 119 858 181 q 683 22 769 58 q 481 -14 597 -14 z "},"Ṣ":{"ha":956,"x_min":87,"x_max":858,"o":"m 481 -14 q 299 17 383 -14 q 157 107 214 47 q 87 251 100 167 l 201 260 q 254 161 214 202 q 353 99 294 120 q 481 78 413 78 q 616 100 556 78 q 710 161 676 122 q 744 253 744 201 q 699 372 744 325 q 565 440 654 419 l 358 488 q 180 574 241 515 q 118 730 118 633 q 164 878 118 813 q 291 980 209 944 q 476 1017 372 1017 q 667 978 587 1017 q 791 877 747 940 q 842 738 835 813 l 732 729 q 647 876 716 830 q 475 922 577 922 q 359 901 415 922 q 270 838 304 880 q 235 738 235 797 q 252 670 235 699 q 310 620 269 642 q 420 581 350 599 l 619 533 q 805 428 751 503 q 858 256 858 353 q 814 119 858 181 q 683 22 769 58 q 481 -14 597 -14 z "},"Ə":{"ha":1030,"x_min":89,"x_max":942,"o":"m 808 543 q 747 802 808 689 q 517 916 685 916 q 371 882 427 916 q 288 805 315 848 q 238 703 260 762 q 222 667 227 677 q 217 664 221 664 q 206 667 217 664 l 121 703 q 115 710 115 705 q 118 722 115 714 q 190 857 153 801 q 307 966 226 914 q 516 1018 389 1018 q 766 943 671 1018 q 901 751 861 868 q 942 501 942 635 q 895 245 942 363 q 753 57 849 128 q 515 -14 657 -14 q 268 55 363 -14 q 131 240 173 124 q 89 508 89 357 q 91 525 89 520 q 105 531 94 531 l 795 531 q 806 533 803 531 q 808 543 808 535 m 240 440 q 227 438 231 440 q 224 428 224 435 q 252 260 224 338 q 344 132 279 182 q 514 83 409 83 q 808 440 794 83 l 240 440 z "},"T":{"ha":789,"x_min":21,"x_max":768,"o":"m 21 1004 l 768 1004 l 768 903 l 459 903 l 459 0 l 351 0 l 351 903 l 21 903 l 21 1004 z "},"Ŧ":{"ha":789,"x_min":21,"x_max":768,"o":"m 459 903 l 459 551 l 668 551 l 668 461 l 459 461 l 459 0 l 351 0 l 351 461 l 148 461 l 148 551 l 351 551 l 351 903 l 21 903 l 21 1004 l 768 1004 l 768 903 l 459 903 z "},"Ť":{"ha":789,"x_min":21,"x_max":768,"o":"m 21 1004 l 768 1004 l 768 903 l 459 903 l 459 0 l 351 0 l 351 903 l 21 903 l 21 1004 m 619 1291 l 450 1138 l 371 1138 l 198 1291 l 303 1291 l 409 1200 l 508 1291 l 619 1291 z "},"Ţ":{"ha":789,"x_min":21,"x_max":768,"o":"m 440 0 l 410 -76 q 502 -108 474 -79 q 531 -176 531 -137 q 489 -253 531 -226 q 384 -281 447 -281 q 260 -247 311 -281 l 280 -198 q 321 -222 299 -213 q 372 -230 343 -230 q 429 -216 410 -230 q 448 -177 448 -203 q 422 -131 448 -147 q 339 -115 396 -116 q 331 -113 333 -115 q 331 -106 329 -111 l 378 0 l 351 0 l 351 903 l 21 903 l 21 1004 l 768 1004 l 768 903 l 459 903 l 459 0 l 440 0 z "},"Ț":{"ha":789,"x_min":21,"x_max":768,"o":"m 21 1004 l 768 1004 l 768 903 l 459 903 l 459 0 l 351 0 l 351 903 l 21 903 l 21 1004 z "},"Ṭ":{"ha":789,"x_min":21,"x_max":768,"o":"m 21 1004 l 768 1004 l 768 903 l 459 903 l 459 0 l 351 0 l 351 903 l 21 903 l 21 1004 z "},"U":{"ha":978,"x_min":134,"x_max":849,"o":"m 849 338 q 762 75 849 164 q 491 -14 674 -14 q 220 77 306 -14 q 134 353 134 169 l 134 1004 l 247 1004 l 247 333 q 309 145 247 208 q 491 83 371 83 q 676 145 613 83 q 740 333 740 208 l 740 1004 l 849 1004 l 849 338 z "},"Ú":{"ha":978,"x_min":134,"x_max":849,"o":"m 849 338 q 762 75 849 164 q 491 -14 674 -14 q 220 77 306 -14 q 134 353 134 169 l 134 1004 l 247 1004 l 247 333 q 309 145 247 208 q 491 83 371 83 q 676 145 613 83 q 740 333 740 208 l 740 1004 l 849 1004 l 849 338 m 676 1215 l 331 1111 l 311 1170 l 647 1303 l 676 1215 z "},"Ŭ":{"ha":978,"x_min":134,"x_max":849,"o":"m 849 338 q 762 75 849 164 q 491 -14 674 -14 q 220 77 306 -14 q 134 353 134 169 l 134 1004 l 247 1004 l 247 333 q 309 145 247 208 q 491 83 371 83 q 676 145 613 83 q 740 333 740 208 l 740 1004 l 849 1004 l 849 338 m 701 1288 q 663 1219 690 1251 q 593 1166 635 1186 q 497 1145 550 1145 q 402 1165 444 1145 q 334 1216 360 1184 q 298 1288 308 1249 l 383 1288 q 427 1238 402 1258 q 497 1217 451 1217 q 613 1288 570 1217 l 701 1288 z "},"Û":{"ha":978,"x_min":134,"x_max":849,"o":"m 849 338 q 762 75 849 164 q 491 -14 674 -14 q 220 77 306 -14 q 134 353 134 169 l 134 1004 l 247 1004 l 247 333 q 309 145 247 208 q 491 83 371 83 q 676 145 613 83 q 740 333 740 208 l 740 1004 l 849 1004 l 849 338 m 493 1233 l 388 1142 l 283 1142 l 455 1294 l 534 1294 l 703 1142 l 592 1142 l 493 1233 z "},"Ȕ":{"ha":978,"x_min":134,"x_max":849,"o":"m 849 338 q 762 75 849 164 q 491 -14 674 -14 q 220 77 306 -14 q 134 353 134 169 l 134 1004 l 247 1004 l 247 333 q 309 145 247 208 q 491 83 371 83 q 676 145 613 83 q 740 333 740 208 l 740 1004 l 849 1004 l 849 338 m 448 1115 l 410 1067 l 205 1235 l 264 1306 l 448 1115 m 665 1115 l 626 1067 l 422 1235 l 481 1306 l 665 1115 z "},"Ü":{"ha":978,"x_min":134,"x_max":849,"o":"m 849 338 q 762 75 849 164 q 491 -14 674 -14 q 220 77 306 -14 q 134 353 134 169 l 134 1004 l 247 1004 l 247 333 q 309 145 247 208 q 491 83 371 83 q 676 145 613 83 q 740 333 740 208 l 740 1004 l 849 1004 l 849 338 m 323 1280 l 440 1280 l 440 1160 l 323 1160 l 323 1280 m 542 1280 l 660 1280 l 660 1160 l 542 1160 l 542 1280 z "},"Ụ":{"ha":978,"x_min":134,"x_max":849,"o":"m 849 338 q 762 75 849 164 q 491 -14 674 -14 q 220 77 306 -14 q 134 353 134 169 l 134 1004 l 247 1004 l 247 333 q 309 145 247 208 q 491 83 371 83 q 676 145 613 83 q 740 333 740 208 l 740 1004 l 849 1004 l 849 338 z "},"Ù":{"ha":978,"x_min":134,"x_max":849,"o":"m 849 338 q 762 75 849 164 q 491 -14 674 -14 q 220 77 306 -14 q 134 353 134 169 l 134 1004 l 247 1004 l 247 333 q 309 145 247 208 q 491 83 371 83 q 676 145 613 83 q 740 333 740 208 l 740 1004 l 849 1004 l 849 338 m 657 1170 l 638 1111 l 292 1215 l 322 1303 l 657 1170 z "},"Ủ":{"ha":978,"x_min":134,"x_max":849,"o":"m 849 338 q 762 75 849 164 q 491 -14 674 -14 q 220 77 306 -14 q 134 353 134 169 l 134 1004 l 247 1004 l 247 333 q 309 145 247 208 q 491 83 371 83 q 676 145 613 83 q 740 333 740 208 l 740 1004 l 849 1004 l 849 338 m 434 1252 q 493 1272 464 1272 q 537 1250 523 1272 q 544 1224 544 1237 q 531 1188 544 1206 q 495 1156 518 1169 l 531 1101 q 592 1157 571 1126 q 614 1222 614 1188 q 592 1288 614 1255 q 551 1325 576 1312 q 495 1338 526 1338 q 399 1306 449 1338 l 434 1252 z "},"Ư":{"ha":1127,"x_min":134,"x_max":1034,"o":"m 1034 1025 q 990 865 1033 914 q 849 819 947 815 l 849 338 q 762 75 849 164 q 491 -14 674 -14 q 220 77 306 -14 q 134 353 134 169 l 134 1004 l 247 1004 l 247 333 q 309 145 247 208 q 491 83 371 83 q 676 145 613 83 q 740 333 740 208 l 740 1004 l 849 1004 l 849 895 q 900 908 882 897 q 928 946 919 919 q 940 1025 938 974 l 1034 1025 z "},"Ứ":{"ha":1127,"x_min":134,"x_max":1034,"o":"m 331 1111 l 311 1170 l 647 1303 l 676 1215 l 331 1111 m 1034 1025 q 990 865 1033 914 q 849 819 947 815 l 849 338 q 762 75 849 164 q 491 -14 674 -14 q 220 77 306 -14 q 134 353 134 169 l 134 1004 l 247 1004 l 247 333 q 309 145 247 208 q 491 83 371 83 q 676 145 613 83 q 740 333 740 208 l 740 1004 l 849 1004 l 849 895 q 900 908 882 897 q 928 946 919 919 q 940 1025 938 974 l 1034 1025 z "},"Ự":{"ha":1127,"x_min":134,"x_max":1034,"o":"m 1034 1025 q 990 865 1033 914 q 849 819 947 815 l 849 338 q 762 75 849 164 q 491 -14 674 -14 q 220 77 306 -14 q 134 353 134 169 l 134 1004 l 247 1004 l 247 333 q 309 145 247 208 q 491 83 371 83 q 676 145 613 83 q 740 333 740 208 l 740 1004 l 849 1004 l 849 895 q 900 908 882 897 q 928 946 919 919 q 940 1025 938 974 l 1034 1025 m 431 -123 l 549 -123 l 549 -242 l 431 -242 l 431 -123 z "},"Ừ":{"ha":1127,"x_min":134,"x_max":1034,"o":"m 638 1111 l 292 1215 l 322 1303 l 657 1170 l 638 1111 m 1034 1025 q 990 865 1033 914 q 849 819 947 815 l 849 338 q 762 75 849 164 q 491 -14 674 -14 q 220 77 306 -14 q 134 353 134 169 l 134 1004 l 247 1004 l 247 333 q 309 145 247 208 q 491 83 371 83 q 676 145 613 83 q 740 333 740 208 l 740 1004 l 849 1004 l 849 895 q 900 908 882 897 q 928 946 919 919 q 940 1025 938 974 l 1034 1025 z "},"Ử":{"ha":1127,"x_min":134,"x_max":1034,"o":"m 537 1250 q 493 1272 523 1272 q 434 1252 464 1272 l 399 1306 q 495 1338 449 1338 q 551 1325 526 1338 q 592 1288 576 1312 q 614 1222 614 1255 q 592 1157 614 1188 q 531 1101 571 1126 l 495 1156 q 531 1188 518 1169 q 544 1224 544 1206 q 537 1250 544 1237 m 1034 1025 q 990 865 1033 914 q 849 819 947 815 l 849 338 q 762 75 849 164 q 491 -14 674 -14 q 220 77 306 -14 q 134 353 134 169 l 134 1004 l 247 1004 l 247 333 q 309 145 247 208 q 491 83 371 83 q 676 145 613 83 q 740 333 740 208 l 740 1004 l 849 1004 l 849 895 q 900 908 882 897 q 928 946 919 919 q 940 1025 938 974 l 1034 1025 z "},"Ữ":{"ha":1127,"x_min":134,"x_max":1034,"o":"m 410 1211 q 373 1206 390 1211 q 347 1194 357 1201 q 316 1174 336 1188 l 294 1234 q 346 1270 322 1258 q 405 1283 370 1283 q 448 1278 427 1283 q 497 1263 469 1273 q 544 1250 526 1254 q 582 1245 562 1245 q 629 1254 609 1245 q 674 1281 649 1263 l 696 1214 q 646 1186 673 1197 q 581 1176 619 1176 q 536 1181 556 1176 q 488 1194 515 1185 q 446 1207 463 1203 q 410 1211 430 1211 m 1034 1025 q 990 865 1033 914 q 849 819 947 815 l 849 338 q 762 75 849 164 q 491 -14 674 -14 q 220 77 306 -14 q 134 353 134 169 l 134 1004 l 247 1004 l 247 333 q 309 145 247 208 q 491 83 371 83 q 676 145 613 83 q 740 333 740 208 l 740 1004 l 849 1004 l 849 895 q 900 908 882 897 q 928 946 919 919 q 940 1025 938 974 l 1034 1025 z "},"Ű":{"ha":978,"x_min":134,"x_max":849,"o":"m 849 338 q 762 75 849 164 q 491 -14 674 -14 q 220 77 306 -14 q 134 353 134 169 l 134 1004 l 247 1004 l 247 333 q 309 145 247 208 q 491 83 371 83 q 676 145 613 83 q 740 333 740 208 l 740 1004 l 849 1004 l 849 338 m 556 1235 l 352 1067 l 313 1115 l 497 1306 l 556 1235 m 774 1235 l 569 1066 l 531 1115 l 714 1306 l 774 1235 z "},"Ȗ":{"ha":978,"x_min":134,"x_max":849,"o":"m 849 338 q 762 75 849 164 q 491 -14 674 -14 q 220 77 306 -14 q 134 353 134 169 l 134 1004 l 247 1004 l 247 333 q 309 145 247 208 q 491 83 371 83 q 676 145 613 83 q 740 333 740 208 l 740 1004 l 849 1004 l 849 338 m 606 1204 q 560 1255 588 1235 q 490 1275 533 1275 q 420 1255 445 1275 q 377 1204 396 1235 l 292 1204 q 328 1276 301 1244 q 396 1328 354 1308 q 490 1347 438 1347 q 586 1327 544 1347 q 656 1274 628 1306 q 694 1204 683 1241 l 606 1204 z "},"Ū":{"ha":978,"x_min":134,"x_max":849,"o":"m 849 338 q 762 75 849 164 q 491 -14 674 -14 q 220 77 306 -14 q 134 353 134 169 l 134 1004 l 247 1004 l 247 333 q 309 145 247 208 q 491 83 371 83 q 676 145 613 83 q 740 333 740 208 l 740 1004 l 849 1004 l 849 338 m 690 1191 l 296 1191 l 296 1271 l 690 1271 l 690 1191 z "},"Ų":{"ha":978,"x_min":134,"x_max":849,"o":"m 849 1004 l 849 338 q 785 101 849 188 q 586 -7 721 15 q 498 -59 525 -34 q 472 -117 472 -84 q 488 -156 472 -143 q 539 -169 503 -169 q 595 -162 569 -169 q 638 -145 622 -154 l 638 -206 q 586 -225 620 -217 q 514 -233 551 -233 q 414 -204 448 -233 q 380 -124 380 -175 q 399 -62 380 -90 q 461 -13 417 -35 q 213 85 292 -6 q 134 353 134 176 l 134 1004 l 247 1004 l 247 333 q 309 145 247 208 q 491 83 371 83 q 676 145 613 83 q 740 333 740 208 l 740 1004 l 849 1004 z "},"Ů":{"ha":978,"x_min":134,"x_max":849,"o":"m 849 338 q 762 75 849 164 q 491 -14 674 -14 q 220 77 306 -14 q 134 353 134 169 l 134 1004 l 247 1004 l 247 333 q 309 145 247 208 q 491 83 371 83 q 676 145 613 83 q 740 333 740 208 l 740 1004 l 849 1004 l 849 338 m 635 1232 q 617 1160 635 1192 q 565 1110 598 1128 q 494 1091 533 1091 q 423 1110 455 1091 q 372 1162 390 1129 q 353 1235 353 1195 q 372 1303 353 1272 q 423 1352 391 1334 q 494 1371 456 1371 q 565 1352 533 1371 q 617 1302 598 1334 q 635 1232 635 1270 m 567 1231 q 546 1286 567 1265 q 492 1307 524 1307 q 439 1285 461 1307 q 416 1231 416 1264 q 427 1193 416 1211 q 455 1165 438 1176 q 492 1154 473 1154 q 545 1177 524 1154 q 567 1231 567 1200 z "},"Ũ":{"ha":978,"x_min":134,"x_max":849,"o":"m 849 338 q 762 75 849 164 q 491 -14 674 -14 q 220 77 306 -14 q 134 353 134 169 l 134 1004 l 247 1004 l 247 333 q 309 145 247 208 q 491 83 371 83 q 676 145 613 83 q 740 333 740 208 l 740 1004 l 849 1004 l 849 338 m 696 1214 q 646 1186 673 1197 q 581 1176 619 1176 q 536 1181 556 1176 q 488 1194 515 1185 q 446 1207 463 1203 q 410 1211 430 1211 q 373 1206 390 1211 q 347 1194 357 1201 q 316 1174 336 1188 l 294 1234 q 346 1270 322 1258 q 405 1283 370 1283 q 448 1278 427 1283 q 497 1263 469 1273 q 544 1250 526 1254 q 582 1245 562 1245 q 629 1254 609 1245 q 674 1281 649 1263 l 696 1214 z "},"V":{"ha":882,"x_min":19,"x_max":863,"o":"m 506 0 l 371 0 l 19 1004 l 128 1004 l 438 122 l 756 1004 l 863 1004 l 506 0 z "},"W":{"ha":1324,"x_min":37,"x_max":1288,"o":"m 997 0 l 889 0 l 660 812 l 428 0 l 324 0 l 37 1004 l 148 1004 l 379 167 l 617 1004 l 705 1004 l 940 167 l 1178 1004 l 1288 1004 l 997 0 z "},"Ẃ":{"ha":1324,"x_min":37,"x_max":1288,"o":"m 997 0 l 889 0 l 660 812 l 428 0 l 324 0 l 37 1004 l 148 1004 l 379 167 l 617 1004 l 705 1004 l 940 167 l 1178 1004 l 1288 1004 l 997 0 m 844 1215 l 499 1111 l 479 1170 l 815 1303 l 844 1215 z "},"Ŵ":{"ha":1324,"x_min":37,"x_max":1288,"o":"m 997 0 l 889 0 l 660 812 l 428 0 l 324 0 l 37 1004 l 148 1004 l 379 167 l 617 1004 l 705 1004 l 940 167 l 1178 1004 l 1288 1004 l 997 0 m 661 1233 l 556 1142 l 451 1142 l 623 1294 l 702 1294 l 871 1142 l 760 1142 l 661 1233 z "},"Ẅ":{"ha":1324,"x_min":37,"x_max":1288,"o":"m 997 0 l 889 0 l 660 812 l 428 0 l 324 0 l 37 1004 l 148 1004 l 379 167 l 617 1004 l 705 1004 l 940 167 l 1178 1004 l 1288 1004 l 997 0 m 491 1280 l 608 1280 l 608 1160 l 491 1160 l 491 1280 m 710 1280 l 828 1280 l 828 1160 l 710 1160 l 710 1280 z "},"Ẁ":{"ha":1324,"x_min":37,"x_max":1288,"o":"m 997 0 l 889 0 l 660 812 l 428 0 l 324 0 l 37 1004 l 148 1004 l 379 167 l 617 1004 l 705 1004 l 940 167 l 1178 1004 l 1288 1004 l 997 0 m 825 1170 l 806 1111 l 460 1215 l 490 1303 l 825 1170 z "},"X":{"ha":896,"x_min":37,"x_max":859,"o":"m 723 0 l 441 425 l 160 0 l 37 0 l 379 513 l 50 1004 l 188 1004 l 448 608 l 709 1004 l 832 1004 l 509 523 l 859 0 l 723 0 z "},"Y":{"ha":810,"x_min":13,"x_max":799,"o":"m 461 428 l 461 0 l 353 0 l 353 430 l 13 1004 l 131 1004 l 408 528 l 680 1004 l 799 1004 l 461 428 z "},"Ý":{"ha":810,"x_min":13,"x_max":799,"o":"m 461 428 l 461 0 l 353 0 l 353 430 l 13 1004 l 131 1004 l 408 528 l 680 1004 l 799 1004 l 461 428 m 597 1217 l 251 1113 l 232 1172 l 568 1305 l 597 1217 z "},"Ŷ":{"ha":810,"x_min":13,"x_max":799,"o":"m 461 428 l 461 0 l 353 0 l 353 430 l 13 1004 l 131 1004 l 408 528 l 680 1004 l 799 1004 l 461 428 m 414 1235 l 308 1144 l 204 1144 l 376 1296 l 455 1296 l 624 1144 l 513 1144 l 414 1235 z "},"Ÿ":{"ha":810,"x_min":13,"x_max":799,"o":"m 461 428 l 461 0 l 353 0 l 353 430 l 13 1004 l 131 1004 l 408 528 l 680 1004 l 799 1004 l 461 428 m 244 1282 l 362 1282 l 362 1163 l 244 1163 l 244 1282 m 464 1282 l 582 1282 l 582 1163 l 464 1163 l 464 1282 z "},"Ỵ":{"ha":810,"x_min":13,"x_max":799,"o":"m 461 428 l 461 0 l 353 0 l 353 430 l 13 1004 l 131 1004 l 408 528 l 680 1004 l 799 1004 l 461 428 z "},"Ỳ":{"ha":810,"x_min":13,"x_max":799,"o":"m 461 428 l 461 0 l 353 0 l 353 430 l 13 1004 l 131 1004 l 408 528 l 680 1004 l 799 1004 l 461 428 m 578 1172 l 559 1113 l 214 1217 l 243 1305 l 578 1172 z "},"Ỷ":{"ha":810,"x_min":13,"x_max":799,"o":"m 461 428 l 461 0 l 353 0 l 353 430 l 13 1004 l 131 1004 l 408 528 l 680 1004 l 799 1004 l 461 428 m 355 1254 q 414 1274 385 1274 q 458 1252 444 1274 q 465 1226 465 1239 q 452 1190 465 1208 q 416 1158 439 1172 l 451 1103 q 513 1159 492 1128 q 535 1224 535 1190 q 513 1290 535 1257 q 472 1327 497 1314 q 416 1340 447 1340 q 319 1308 369 1340 l 355 1254 z "},"Ỹ":{"ha":810,"x_min":13,"x_max":799,"o":"m 461 428 l 461 0 l 353 0 l 353 430 l 13 1004 l 131 1004 l 408 528 l 680 1004 l 799 1004 l 461 428 m 617 1216 q 568 1189 594 1199 q 503 1178 541 1178 q 457 1183 478 1178 q 409 1197 437 1188 q 368 1209 384 1205 q 332 1213 351 1213 q 295 1208 311 1213 q 268 1197 278 1203 q 238 1176 258 1190 l 216 1236 q 267 1273 243 1260 q 326 1285 292 1285 q 369 1280 349 1285 q 418 1265 390 1275 q 466 1252 448 1256 q 503 1247 483 1247 q 551 1256 531 1247 q 596 1283 571 1265 l 617 1216 z "},"Z":{"ha":856,"x_min":73,"x_max":785,"o":"m 73 63 l 634 908 l 94 908 l 94 1004 l 785 1004 l 785 944 l 219 97 l 783 97 l 783 0 l 73 0 l 73 63 z "},"Ź":{"ha":856,"x_min":73,"x_max":785,"o":"m 73 63 l 634 908 l 94 908 l 94 1004 l 785 1004 l 785 944 l 219 97 l 783 97 l 783 0 l 73 0 l 73 63 m 625 1215 l 280 1111 l 260 1170 l 597 1303 l 625 1215 z "},"Ž":{"ha":856,"x_min":73,"x_max":785,"o":"m 73 63 l 634 908 l 94 908 l 94 1004 l 785 1004 l 785 944 l 219 97 l 783 97 l 783 0 l 73 0 l 73 63 m 652 1291 l 483 1138 l 404 1138 l 231 1291 l 337 1291 l 442 1200 l 541 1291 l 652 1291 z "},"Ż":{"ha":856,"x_min":73,"x_max":785,"o":"m 73 63 l 634 908 l 94 908 l 94 1004 l 785 1004 l 785 944 l 219 97 l 783 97 l 783 0 l 73 0 l 73 63 m 384 1254 l 502 1254 l 502 1135 l 384 1135 l 384 1254 z "},"Ẓ":{"ha":856,"x_min":73,"x_max":785,"o":"m 73 63 l 634 908 l 94 908 l 94 1004 l 785 1004 l 785 944 l 219 97 l 783 97 l 783 0 l 73 0 l 73 63 z "},"a":{"ha":755,"x_min":66,"x_max":656,"o":"m 301 -14 q 178 11 231 -14 q 95 82 125 35 q 66 192 66 128 q 102 324 66 272 q 214 402 138 376 q 413 431 290 428 l 551 435 l 551 495 q 503 608 551 567 q 376 649 456 649 q 256 615 307 649 q 194 519 206 581 l 95 519 q 134 627 99 578 q 233 704 169 676 q 380 732 297 732 q 529 704 467 732 q 623 624 591 676 q 656 500 656 572 l 656 0 l 563 0 l 554 133 q 450 19 513 52 q 301 -14 386 -14 m 331 67 q 433 92 382 67 q 517 155 484 116 q 551 235 551 194 l 551 363 l 435 360 q 285 343 343 359 q 200 292 228 326 q 172 201 172 258 q 216 103 172 140 q 331 67 260 67 z "},"á":{"ha":755,"x_min":66,"x_max":656,"o":"m 301 -14 q 178 11 231 -14 q 95 82 125 35 q 66 192 66 128 q 102 324 66 272 q 214 402 138 376 q 413 431 290 428 l 551 435 l 551 495 q 503 608 551 567 q 376 649 456 649 q 256 615 307 649 q 194 519 206 581 l 95 519 q 134 627 99 578 q 233 704 169 676 q 380 732 297 732 q 529 704 467 732 q 623 624 591 676 q 656 500 656 572 l 656 0 l 563 0 l 554 133 q 450 19 513 52 q 301 -14 386 -14 m 331 67 q 433 92 382 67 q 517 155 484 116 q 551 235 551 194 l 551 363 l 435 360 q 285 343 343 359 q 200 292 228 326 q 172 201 172 258 q 216 103 172 140 q 331 67 260 67 m 563 929 l 218 825 l 199 884 l 535 1017 l 563 929 z "},"ă":{"ha":755,"x_min":66,"x_max":656,"o":"m 301 -14 q 178 11 231 -14 q 95 82 125 35 q 66 192 66 128 q 102 324 66 272 q 214 402 138 376 q 413 431 290 428 l 551 435 l 551 495 q 503 608 551 567 q 376 649 456 649 q 256 615 307 649 q 194 519 206 581 l 95 519 q 134 627 99 578 q 233 704 169 676 q 380 732 297 732 q 529 704 467 732 q 623 624 591 676 q 656 500 656 572 l 656 0 l 563 0 l 554 133 q 450 19 513 52 q 301 -14 386 -14 m 331 67 q 433 92 382 67 q 517 155 484 116 q 551 235 551 194 l 551 363 l 435 360 q 285 343 343 359 q 200 292 228 326 q 172 201 172 258 q 216 103 172 140 q 331 67 260 67 m 588 1002 q 550 933 577 965 q 480 880 523 900 q 384 859 438 859 q 290 878 331 859 q 222 930 248 898 q 185 1002 195 963 l 271 1002 q 314 951 290 972 q 384 931 339 931 q 500 1002 458 931 l 588 1002 z "},"ắ":{"ha":755,"x_min":66,"x_max":656,"o":"m 301 -14 q 178 11 231 -14 q 95 82 125 35 q 66 192 66 128 q 102 324 66 272 q 214 402 138 376 q 413 431 290 428 l 551 435 l 551 495 q 503 608 551 567 q 376 649 456 649 q 256 615 307 649 q 194 519 206 581 l 95 519 q 134 627 99 578 q 233 704 169 676 q 380 732 297 732 q 529 704 467 732 q 623 624 591 676 q 656 500 656 572 l 656 0 l 563 0 l 554 133 q 450 19 513 52 q 301 -14 386 -14 m 331 67 q 433 92 382 67 q 517 155 484 116 q 551 235 551 194 l 551 363 l 435 360 q 285 343 343 359 q 200 292 228 326 q 172 201 172 258 q 216 103 172 140 q 331 67 260 67 z "},"ặ":{"ha":755,"x_min":66,"x_max":656,"o":"m 301 -14 q 178 11 231 -14 q 95 82 125 35 q 66 192 66 128 q 102 324 66 272 q 214 402 138 376 q 413 431 290 428 l 551 435 l 551 495 q 503 608 551 567 q 376 649 456 649 q 256 615 307 649 q 194 519 206 581 l 95 519 q 134 627 99 578 q 233 704 169 676 q 380 732 297 732 q 529 704 467 732 q 623 624 591 676 q 656 500 656 572 l 656 0 l 563 0 l 554 133 q 450 19 513 52 q 301 -14 386 -14 m 331 67 q 433 92 382 67 q 517 155 484 116 q 551 235 551 194 l 551 363 l 435 360 q 285 343 343 359 q 200 292 228 326 q 172 201 172 258 q 216 103 172 140 q 331 67 260 67 m 588 1002 q 550 933 577 965 q 480 880 523 900 q 384 859 438 859 q 290 878 331 859 q 222 930 248 898 q 185 1002 195 963 l 271 1002 q 314 951 290 972 q 384 931 339 931 q 500 1002 458 931 l 588 1002 z "},"ằ":{"ha":755,"x_min":66,"x_max":656,"o":"m 301 -14 q 178 11 231 -14 q 95 82 125 35 q 66 192 66 128 q 102 324 66 272 q 214 402 138 376 q 413 431 290 428 l 551 435 l 551 495 q 503 608 551 567 q 376 649 456 649 q 256 615 307 649 q 194 519 206 581 l 95 519 q 134 627 99 578 q 233 704 169 676 q 380 732 297 732 q 529 704 467 732 q 623 624 591 676 q 656 500 656 572 l 656 0 l 563 0 l 554 133 q 450 19 513 52 q 301 -14 386 -14 m 331 67 q 433 92 382 67 q 517 155 484 116 q 551 235 551 194 l 551 363 l 435 360 q 285 343 343 359 q 200 292 228 326 q 172 201 172 258 q 216 103 172 140 q 331 67 260 67 z "},"ẳ":{"ha":755,"x_min":66,"x_max":656,"o":"m 301 -14 q 178 11 231 -14 q 95 82 125 35 q 66 192 66 128 q 102 324 66 272 q 214 402 138 376 q 413 431 290 428 l 551 435 l 551 495 q 503 608 551 567 q 376 649 456 649 q 256 615 307 649 q 194 519 206 581 l 95 519 q 134 627 99 578 q 233 704 169 676 q 380 732 297 732 q 529 704 467 732 q 623 624 591 676 q 656 500 656 572 l 656 0 l 563 0 l 554 133 q 450 19 513 52 q 301 -14 386 -14 m 331 67 q 433 92 382 67 q 517 155 484 116 q 551 235 551 194 l 551 363 l 435 360 q 285 343 343 359 q 200 292 228 326 q 172 201 172 258 q 216 103 172 140 q 331 67 260 67 z "},"ẵ":{"ha":755,"x_min":66,"x_max":656,"o":"m 301 -14 q 178 11 231 -14 q 95 82 125 35 q 66 192 66 128 q 102 324 66 272 q 214 402 138 376 q 413 431 290 428 l 551 435 l 551 495 q 503 608 551 567 q 376 649 456 649 q 256 615 307 649 q 194 519 206 581 l 95 519 q 134 627 99 578 q 233 704 169 676 q 380 732 297 732 q 529 704 467 732 q 623 624 591 676 q 656 500 656 572 l 656 0 l 563 0 l 554 133 q 450 19 513 52 q 301 -14 386 -14 m 331 67 q 433 92 382 67 q 517 155 484 116 q 551 235 551 194 l 551 363 l 435 360 q 285 343 343 359 q 200 292 228 326 q 172 201 172 258 q 216 103 172 140 q 331 67 260 67 z "},"â":{"ha":755,"x_min":66,"x_max":656,"o":"m 301 -14 q 178 11 231 -14 q 95 82 125 35 q 66 192 66 128 q 102 324 66 272 q 214 402 138 376 q 413 431 290 428 l 551 435 l 551 495 q 503 608 551 567 q 376 649 456 649 q 256 615 307 649 q 194 519 206 581 l 95 519 q 134 627 99 578 q 233 704 169 676 q 380 732 297 732 q 529 704 467 732 q 623 624 591 676 q 656 500 656 572 l 656 0 l 563 0 l 554 133 q 450 19 513 52 q 301 -14 386 -14 m 331 67 q 433 92 382 67 q 517 155 484 116 q 551 235 551 194 l 551 363 l 435 360 q 285 343 343 359 q 200 292 228 326 q 172 201 172 258 q 216 103 172 140 q 331 67 260 67 m 381 947 l 275 856 l 171 856 l 342 1008 l 422 1008 l 590 856 l 479 856 l 381 947 z "},"ấ":{"ha":755,"x_min":66,"x_max":656,"o":"m 301 -14 q 178 11 231 -14 q 95 82 125 35 q 66 192 66 128 q 102 324 66 272 q 214 402 138 376 q 413 431 290 428 l 551 435 l 551 495 q 503 608 551 567 q 376 649 456 649 q 256 615 307 649 q 194 519 206 581 l 95 519 q 134 627 99 578 q 233 704 169 676 q 380 732 297 732 q 529 704 467 732 q 623 624 591 676 q 656 500 656 572 l 656 0 l 563 0 l 554 133 q 450 19 513 52 q 301 -14 386 -14 m 331 67 q 433 92 382 67 q 517 155 484 116 q 551 235 551 194 l 551 363 l 435 360 q 285 343 343 359 q 200 292 228 326 q 172 201 172 258 q 216 103 172 140 q 331 67 260 67 z "},"ậ":{"ha":755,"x_min":66,"x_max":656,"o":"m 301 -14 q 178 11 231 -14 q 95 82 125 35 q 66 192 66 128 q 102 324 66 272 q 214 402 138 376 q 413 431 290 428 l 551 435 l 551 495 q 503 608 551 567 q 376 649 456 649 q 256 615 307 649 q 194 519 206 581 l 95 519 q 134 627 99 578 q 233 704 169 676 q 380 732 297 732 q 529 704 467 732 q 623 624 591 676 q 656 500 656 572 l 656 0 l 563 0 l 554 133 q 450 19 513 52 q 301 -14 386 -14 m 331 67 q 433 92 382 67 q 517 155 484 116 q 551 235 551 194 l 551 363 l 435 360 q 285 343 343 359 q 200 292 228 326 q 172 201 172 258 q 216 103 172 140 q 331 67 260 67 m 381 947 l 275 856 l 171 856 l 342 1008 l 422 1008 l 590 856 l 479 856 l 381 947 z "},"ầ":{"ha":755,"x_min":66,"x_max":656,"o":"m 301 -14 q 178 11 231 -14 q 95 82 125 35 q 66 192 66 128 q 102 324 66 272 q 214 402 138 376 q 413 431 290 428 l 551 435 l 551 495 q 503 608 551 567 q 376 649 456 649 q 256 615 307 649 q 194 519 206 581 l 95 519 q 134 627 99 578 q 233 704 169 676 q 380 732 297 732 q 529 704 467 732 q 623 624 591 676 q 656 500 656 572 l 656 0 l 563 0 l 554 133 q 450 19 513 52 q 301 -14 386 -14 m 331 67 q 433 92 382 67 q 517 155 484 116 q 551 235 551 194 l 551 363 l 435 360 q 285 343 343 359 q 200 292 228 326 q 172 201 172 258 q 216 103 172 140 q 331 67 260 67 z "},"ẩ":{"ha":755,"x_min":66,"x_max":656,"o":"m 301 -14 q 178 11 231 -14 q 95 82 125 35 q 66 192 66 128 q 102 324 66 272 q 214 402 138 376 q 413 431 290 428 l 551 435 l 551 495 q 503 608 551 567 q 376 649 456 649 q 256 615 307 649 q 194 519 206 581 l 95 519 q 134 627 99 578 q 233 704 169 676 q 380 732 297 732 q 529 704 467 732 q 623 624 591 676 q 656 500 656 572 l 656 0 l 563 0 l 554 133 q 450 19 513 52 q 301 -14 386 -14 m 331 67 q 433 92 382 67 q 517 155 484 116 q 551 235 551 194 l 551 363 l 435 360 q 285 343 343 359 q 200 292 228 326 q 172 201 172 258 q 216 103 172 140 q 331 67 260 67 z "},"ẫ":{"ha":755,"x_min":66,"x_max":656,"o":"m 301 -14 q 178 11 231 -14 q 95 82 125 35 q 66 192 66 128 q 102 324 66 272 q 214 402 138 376 q 413 431 290 428 l 551 435 l 551 495 q 503 608 551 567 q 376 649 456 649 q 256 615 307 649 q 194 519 206 581 l 95 519 q 134 627 99 578 q 233 704 169 676 q 380 732 297 732 q 529 704 467 732 q 623 624 591 676 q 656 500 656 572 l 656 0 l 563 0 l 554 133 q 450 19 513 52 q 301 -14 386 -14 m 331 67 q 433 92 382 67 q 517 155 484 116 q 551 235 551 194 l 551 363 l 435 360 q 285 343 343 359 q 200 292 228 326 q 172 201 172 258 q 216 103 172 140 q 331 67 260 67 z "},"ȁ":{"ha":755,"x_min":66,"x_max":656,"o":"m 301 -14 q 178 11 231 -14 q 95 82 125 35 q 66 192 66 128 q 102 324 66 272 q 214 402 138 376 q 413 431 290 428 l 551 435 l 551 495 q 503 608 551 567 q 376 649 456 649 q 256 615 307 649 q 194 519 206 581 l 95 519 q 134 627 99 578 q 233 704 169 676 q 380 732 297 732 q 529 704 467 732 q 623 624 591 676 q 656 500 656 572 l 656 0 l 563 0 l 554 133 q 450 19 513 52 q 301 -14 386 -14 m 331 67 q 433 92 382 67 q 517 155 484 116 q 551 235 551 194 l 551 363 l 435 360 q 285 343 343 359 q 200 292 228 326 q 172 201 172 258 q 216 103 172 140 q 331 67 260 67 m 335 828 l 298 781 l 92 949 l 151 1019 l 335 828 m 552 828 l 514 781 l 309 949 l 368 1019 l 552 828 z "},"ä":{"ha":755,"x_min":66,"x_max":656,"o":"m 301 -14 q 178 11 231 -14 q 95 82 125 35 q 66 192 66 128 q 102 324 66 272 q 214 402 138 376 q 413 431 290 428 l 551 435 l 551 495 q 503 608 551 567 q 376 649 456 649 q 256 615 307 649 q 194 519 206 581 l 95 519 q 134 627 99 578 q 233 704 169 676 q 380 732 297 732 q 529 704 467 732 q 623 624 591 676 q 656 500 656 572 l 656 0 l 563 0 l 554 133 q 450 19 513 52 q 301 -14 386 -14 m 331 67 q 433 92 382 67 q 517 155 484 116 q 551 235 551 194 l 551 363 l 435 360 q 285 343 343 359 q 200 292 228 326 q 172 201 172 258 q 216 103 172 140 q 331 67 260 67 m 210 993 l 328 993 l 328 874 l 210 874 l 210 993 m 430 993 l 548 993 l 548 874 l 430 874 l 430 993 z "},"ạ":{"ha":755,"x_min":66,"x_max":656,"o":"m 301 -14 q 178 11 231 -14 q 95 82 125 35 q 66 192 66 128 q 102 324 66 272 q 214 402 138 376 q 413 431 290 428 l 551 435 l 551 495 q 503 608 551 567 q 376 649 456 649 q 256 615 307 649 q 194 519 206 581 l 95 519 q 134 627 99 578 q 233 704 169 676 q 380 732 297 732 q 529 704 467 732 q 623 624 591 676 q 656 500 656 572 l 656 0 l 563 0 l 554 133 q 450 19 513 52 q 301 -14 386 -14 m 331 67 q 433 92 382 67 q 517 155 484 116 q 551 235 551 194 l 551 363 l 435 360 q 285 343 343 359 q 200 292 228 326 q 172 201 172 258 q 216 103 172 140 q 331 67 260 67 z "},"à":{"ha":755,"x_min":66,"x_max":656,"o":"m 301 -14 q 178 11 231 -14 q 95 82 125 35 q 66 192 66 128 q 102 324 66 272 q 214 402 138 376 q 413 431 290 428 l 551 435 l 551 495 q 503 608 551 567 q 376 649 456 649 q 256 615 307 649 q 194 519 206 581 l 95 519 q 134 627 99 578 q 233 704 169 676 q 380 732 297 732 q 529 704 467 732 q 623 624 591 676 q 656 500 656 572 l 656 0 l 563 0 l 554 133 q 450 19 513 52 q 301 -14 386 -14 m 331 67 q 433 92 382 67 q 517 155 484 116 q 551 235 551 194 l 551 363 l 435 360 q 285 343 343 359 q 200 292 228 326 q 172 201 172 258 q 216 103 172 140 q 331 67 260 67 m 544 884 l 525 825 l 180 929 l 209 1017 l 544 884 z "},"ả":{"ha":755,"x_min":66,"x_max":656,"o":"m 301 -14 q 178 11 231 -14 q 95 82 125 35 q 66 192 66 128 q 102 324 66 272 q 214 402 138 376 q 413 431 290 428 l 551 435 l 551 495 q 503 608 551 567 q 376 649 456 649 q 256 615 307 649 q 194 519 206 581 l 95 519 q 134 627 99 578 q 233 704 169 676 q 380 732 297 732 q 529 704 467 732 q 623 624 591 676 q 656 500 656 572 l 656 0 l 563 0 l 554 133 q 450 19 513 52 q 301 -14 386 -14 m 331 67 q 433 92 382 67 q 517 155 484 116 q 551 235 551 194 l 551 363 l 435 360 q 285 343 343 359 q 200 292 228 326 q 172 201 172 258 q 216 103 172 140 q 331 67 260 67 m 321 965 q 380 985 351 985 q 424 963 410 985 q 431 938 431 950 q 418 901 431 919 q 382 869 405 883 l 417 815 q 479 870 458 839 q 501 935 501 901 q 479 1001 501 968 q 438 1038 463 1025 q 382 1051 413 1051 q 285 1019 335 1051 l 321 965 z "},"ȃ":{"ha":755,"x_min":66,"x_max":656,"o":"m 301 -14 q 178 11 231 -14 q 95 82 125 35 q 66 192 66 128 q 102 324 66 272 q 214 402 138 376 q 413 431 290 428 l 551 435 l 551 495 q 503 608 551 567 q 376 649 456 649 q 256 615 307 649 q 194 519 206 581 l 95 519 q 134 627 99 578 q 233 704 169 676 q 380 732 297 732 q 529 704 467 732 q 623 624 591 676 q 656 500 656 572 l 656 0 l 563 0 l 554 133 q 450 19 513 52 q 301 -14 386 -14 m 331 67 q 433 92 382 67 q 517 155 484 116 q 551 235 551 194 l 551 363 l 435 360 q 285 343 343 359 q 200 292 228 326 q 172 201 172 258 q 216 103 172 140 q 331 67 260 67 m 494 918 q 448 969 475 949 q 378 989 420 989 q 308 969 333 989 q 265 918 283 949 l 179 918 q 215 990 189 958 q 283 1042 242 1022 q 378 1061 325 1061 q 474 1041 431 1061 q 543 988 516 1020 q 581 918 571 955 l 494 918 z "},"ā":{"ha":755,"x_min":66,"x_max":656,"o":"m 301 -14 q 178 11 231 -14 q 95 82 125 35 q 66 192 66 128 q 102 324 66 272 q 214 402 138 376 q 413 431 290 428 l 551 435 l 551 495 q 503 608 551 567 q 376 649 456 649 q 256 615 307 649 q 194 519 206 581 l 95 519 q 134 627 99 578 q 233 704 169 676 q 380 732 297 732 q 529 704 467 732 q 623 624 591 676 q 656 500 656 572 l 656 0 l 563 0 l 554 133 q 450 19 513 52 q 301 -14 386 -14 m 331 67 q 433 92 382 67 q 517 155 484 116 q 551 235 551 194 l 551 363 l 435 360 q 285 343 343 359 q 200 292 228 326 q 172 201 172 258 q 216 103 172 140 q 331 67 260 67 m 578 905 l 183 905 l 183 985 l 578 985 l 578 905 z "},"ą":{"ha":755,"x_min":66,"x_max":686,"o":"m 587 -165 q 643 -157 617 -165 q 686 -140 669 -149 l 686 -201 q 634 -220 668 -212 q 562 -228 599 -228 q 462 -199 496 -228 q 428 -119 428 -170 q 458 -44 428 -76 q 562 13 488 -12 l 554 133 q 450 19 513 52 q 301 -14 386 -14 q 178 11 231 -14 q 95 82 125 35 q 66 192 66 128 q 102 324 66 272 q 214 402 138 376 q 413 431 290 428 l 551 435 l 551 495 q 503 608 551 567 q 376 649 456 649 q 256 615 307 649 q 194 519 206 581 l 95 519 q 134 627 99 578 q 233 704 169 676 q 380 732 297 732 q 529 704 467 732 q 623 624 591 676 q 656 500 656 572 l 656 0 l 638 0 q 547 -54 575 -28 q 519 -112 519 -79 q 535 -151 519 -138 q 587 -165 551 -165 m 551 363 l 435 360 q 285 343 343 359 q 200 292 228 326 q 172 201 172 258 q 216 103 172 140 q 331 67 260 67 q 433 92 382 67 q 517 155 484 116 q 551 235 551 194 l 551 363 z "},"å":{"ha":755,"x_min":66,"x_max":656,"o":"m 301 -14 q 178 11 231 -14 q 95 82 125 35 q 66 192 66 128 q 102 324 66 272 q 214 402 138 376 q 413 431 290 428 l 551 435 l 551 495 q 503 608 551 567 q 376 649 456 649 q 256 615 307 649 q 194 519 206 581 l 95 519 q 134 627 99 578 q 233 704 169 676 q 380 732 297 732 q 529 704 467 732 q 623 624 591 676 q 656 500 656 572 l 656 0 l 563 0 l 554 133 q 450 19 513 52 q 301 -14 386 -14 m 331 67 q 433 92 382 67 q 517 155 484 116 q 551 235 551 194 l 551 363 l 435 360 q 285 343 343 359 q 200 292 228 326 q 172 201 172 258 q 216 103 172 140 q 331 67 260 67 m 523 946 q 504 874 523 906 q 453 824 485 842 q 381 805 420 805 q 310 824 342 805 q 259 876 278 843 q 240 949 240 909 q 259 1017 240 985 q 311 1066 278 1048 q 381 1085 343 1085 q 453 1066 420 1085 q 504 1016 485 1048 q 523 946 523 984 m 455 945 q 433 1000 455 978 q 380 1021 412 1021 q 326 999 349 1021 q 303 945 303 978 q 314 907 303 925 q 343 879 325 890 q 380 868 360 868 q 433 891 411 868 q 455 945 455 914 z "},"ǻ":{"ha":755,"x_min":66,"x_max":656,"o":"m 486 719 q 612 640 568 697 q 656 500 656 583 l 656 0 l 563 0 l 554 133 q 450 19 513 52 q 301 -14 386 -14 q 178 11 231 -14 q 95 82 125 35 q 66 192 66 128 q 102 324 66 272 q 214 402 138 376 q 413 431 290 428 l 551 435 l 551 495 q 503 608 551 567 q 376 649 456 649 q 256 615 307 649 q 194 519 206 581 l 95 519 q 150 645 99 591 q 285 721 200 700 q 258 765 267 740 q 248 819 248 790 q 281 905 248 868 q 363 949 313 942 l 385 1038 l 474 1038 l 435 942 q 500 894 475 928 q 525 816 525 860 q 515 763 525 788 q 486 719 505 738 m 385 891 q 331 869 353 891 q 308 815 308 847 q 319 777 308 795 q 348 748 330 759 q 385 738 365 738 q 438 761 416 738 q 460 815 460 784 q 439 869 460 848 q 385 891 417 891 m 551 363 l 435 360 q 285 343 343 359 q 200 292 228 326 q 172 201 172 258 q 216 103 172 140 q 331 67 260 67 q 433 92 382 67 q 517 155 484 116 q 551 235 551 194 l 551 363 z "},"ã":{"ha":755,"x_min":66,"x_max":656,"o":"m 301 -14 q 178 11 231 -14 q 95 82 125 35 q 66 192 66 128 q 102 324 66 272 q 214 402 138 376 q 413 431 290 428 l 551 435 l 551 495 q 503 608 551 567 q 376 649 456 649 q 256 615 307 649 q 194 519 206 581 l 95 519 q 134 627 99 578 q 233 704 169 676 q 380 732 297 732 q 529 704 467 732 q 623 624 591 676 q 656 500 656 572 l 656 0 l 563 0 l 554 133 q 450 19 513 52 q 301 -14 386 -14 m 331 67 q 433 92 382 67 q 517 155 484 116 q 551 235 551 194 l 551 363 l 435 360 q 285 343 343 359 q 200 292 228 326 q 172 201 172 258 q 216 103 172 140 q 331 67 260 67 m 583 928 q 534 900 560 911 q 469 890 507 890 q 423 894 444 890 q 375 908 403 899 q 334 921 350 917 q 298 925 317 925 q 261 920 277 925 q 234 908 244 915 q 203 888 224 902 l 182 948 q 233 984 209 972 q 292 997 258 997 q 335 992 315 997 q 384 977 356 987 q 432 964 414 968 q 469 959 449 959 q 517 968 497 959 q 562 995 537 977 l 583 928 z "},"æ":{"ha":1274,"x_min":66,"x_max":1210,"o":"m 656 335 q 688 207 656 269 q 775 108 720 146 q 894 69 830 69 q 993 87 951 69 q 1063 130 1035 104 q 1119 194 1090 156 l 1192 154 q 1067 30 1146 74 q 883 -14 988 -14 q 717 28 782 -14 q 606 133 653 71 q 601 137 604 137 q 597 133 599 137 q 523 60 560 91 q 427 8 485 29 q 294 -14 370 -14 q 172 10 223 -14 q 93 80 120 35 q 66 187 66 126 q 151 351 66 290 q 406 425 237 413 l 553 436 l 553 492 q 507 610 553 567 q 376 652 462 652 q 267 622 318 652 q 175 530 215 591 l 85 563 q 206 689 130 645 q 386 732 281 732 q 543 698 483 732 q 628 597 602 665 q 734 698 669 664 q 885 732 800 732 q 1055 685 981 732 q 1169 549 1128 638 q 1210 336 1210 460 l 656 335 m 885 653 q 771 623 822 653 q 690 538 719 593 q 660 409 660 482 l 1101 408 q 1074 529 1101 472 q 997 619 1047 585 q 885 653 948 653 m 431 355 q 241 305 306 345 q 176 194 176 264 q 214 101 176 136 q 321 66 253 66 q 436 89 383 66 q 521 150 490 112 q 553 235 553 189 l 553 364 l 431 355 z "},"ǽ":{"ha":1274,"x_min":66,"x_max":1210,"o":"m 656 335 q 688 207 656 269 q 775 108 720 146 q 894 69 830 69 q 993 87 951 69 q 1063 130 1035 104 q 1119 194 1090 156 l 1192 154 q 1067 30 1146 74 q 883 -14 988 -14 q 717 28 782 -14 q 606 133 653 71 q 601 137 604 137 q 597 133 599 137 q 523 60 560 91 q 427 8 485 29 q 294 -14 370 -14 q 172 10 223 -14 q 93 80 120 35 q 66 187 66 126 q 151 351 66 290 q 406 425 237 413 l 553 436 l 553 492 q 507 610 553 567 q 376 652 462 652 q 267 622 318 652 q 175 530 215 591 l 85 563 q 206 689 130 645 q 386 732 281 732 q 543 698 483 732 q 628 597 602 665 q 734 698 669 664 q 885 732 800 732 q 1055 685 981 732 q 1169 549 1128 638 q 1210 336 1210 460 l 656 335 m 885 653 q 771 623 822 653 q 690 538 719 593 q 660 409 660 482 l 1101 408 q 1074 529 1101 472 q 997 619 1047 585 q 885 653 948 653 m 431 355 q 241 305 306 345 q 176 194 176 264 q 214 101 176 136 q 321 66 253 66 q 436 89 383 66 q 521 150 490 112 q 553 235 553 189 l 553 364 l 431 355 m 808 929 l 463 825 l 444 884 l 780 1017 l 808 929 z "},"b":{"ha":811,"x_min":111,"x_max":747,"o":"m 449 -14 q 284 34 341 -14 q 206 135 228 81 l 195 0 l 111 0 l 111 1032 l 219 1032 l 219 590 q 302 688 247 644 q 456 732 357 732 q 618 684 553 732 q 715 553 683 636 q 747 362 747 469 q 714 161 747 246 q 613 32 680 77 q 449 -14 546 -14 m 430 72 q 580 144 526 72 q 635 363 635 216 q 582 572 635 499 q 428 645 529 645 q 269 581 313 645 q 219 445 225 516 l 219 277 q 247 175 221 222 q 321 100 274 128 q 430 72 369 72 z "},"c":{"ha":735,"x_min":65,"x_max":672,"o":"m 388 732 q 520 705 460 732 q 620 626 581 678 q 672 501 660 574 l 573 499 q 507 606 554 569 q 394 642 459 642 q 275 608 326 642 q 197 509 224 573 q 169 358 169 444 q 197 207 169 272 q 275 107 224 142 q 394 72 326 72 q 511 110 462 72 q 574 213 560 148 l 670 213 q 618 88 658 139 q 518 11 578 37 q 388 -14 458 -14 q 218 33 291 -14 q 105 163 144 79 q 65 356 65 247 q 104 551 65 466 q 217 684 144 637 q 388 732 291 732 z "},"ć":{"ha":735,"x_min":65,"x_max":672,"o":"m 388 732 q 520 705 460 732 q 620 626 581 678 q 672 501 660 574 l 573 499 q 507 606 554 569 q 394 642 459 642 q 275 608 326 642 q 197 509 224 573 q 169 358 169 444 q 197 207 169 272 q 275 107 224 142 q 394 72 326 72 q 511 110 462 72 q 574 213 560 148 l 670 213 q 618 88 658 139 q 518 11 578 37 q 388 -14 458 -14 q 218 33 291 -14 q 105 163 144 79 q 65 356 65 247 q 104 551 65 466 q 217 684 144 637 q 388 732 291 732 m 569 929 l 224 825 l 205 884 l 541 1017 l 569 929 z "},"č":{"ha":735,"x_min":65,"x_max":672,"o":"m 388 732 q 520 705 460 732 q 620 626 581 678 q 672 501 660 574 l 573 499 q 507 606 554 569 q 394 642 459 642 q 275 608 326 642 q 197 509 224 573 q 169 358 169 444 q 197 207 169 272 q 275 107 224 142 q 394 72 326 72 q 511 110 462 72 q 574 213 560 148 l 670 213 q 618 88 658 139 q 518 11 578 37 q 388 -14 458 -14 q 218 33 291 -14 q 105 163 144 79 q 65 356 65 247 q 104 551 65 466 q 217 684 144 637 q 388 732 291 732 m 597 1005 l 428 852 l 349 852 l 176 1005 l 281 1005 l 387 914 l 485 1005 l 597 1005 z "},"ç":{"ha":735,"x_min":65,"x_max":672,"o":"m 394 72 q 511 110 462 72 q 574 213 560 148 l 670 213 q 584 52 653 110 q 416 -13 515 -6 l 390 -78 q 482 -110 453 -81 q 510 -178 510 -139 q 468 -256 510 -228 q 364 -283 426 -283 q 240 -249 291 -283 l 260 -200 q 301 -224 279 -215 q 351 -232 323 -232 q 409 -218 390 -232 q 428 -179 428 -205 q 402 -133 428 -149 q 319 -117 376 -118 q 311 -115 313 -117 q 311 -108 309 -113 l 353 -12 q 201 44 266 -4 q 100 173 135 92 q 65 356 65 253 q 104 551 65 466 q 217 684 144 637 q 388 732 291 732 q 520 705 460 732 q 620 626 581 678 q 672 501 660 574 l 573 499 q 507 606 554 569 q 394 642 459 642 q 275 608 326 642 q 197 509 224 573 q 169 358 169 444 q 197 207 169 272 q 275 107 224 142 q 394 72 326 72 z "},"ĉ":{"ha":735,"x_min":65,"x_max":672,"o":"m 388 732 q 520 705 460 732 q 620 626 581 678 q 672 501 660 574 l 573 499 q 507 606 554 569 q 394 642 459 642 q 275 608 326 642 q 197 509 224 573 q 169 358 169 444 q 197 207 169 272 q 275 107 224 142 q 394 72 326 72 q 511 110 462 72 q 574 213 560 148 l 670 213 q 618 88 658 139 q 518 11 578 37 q 388 -14 458 -14 q 218 33 291 -14 q 105 163 144 79 q 65 356 65 247 q 104 551 65 466 q 217 684 144 637 q 388 732 291 732 m 387 947 l 281 856 l 177 856 l 349 1008 l 428 1008 l 597 856 l 485 856 l 387 947 z "},"ċ":{"ha":735,"x_min":65,"x_max":672,"o":"m 388 732 q 520 705 460 732 q 620 626 581 678 q 672 501 660 574 l 573 499 q 507 606 554 569 q 394 642 459 642 q 275 608 326 642 q 197 509 224 573 q 169 358 169 444 q 197 207 169 272 q 275 107 224 142 q 394 72 326 72 q 511 110 462 72 q 574 213 560 148 l 670 213 q 618 88 658 139 q 518 11 578 37 q 388 -14 458 -14 q 218 33 291 -14 q 105 163 144 79 q 65 356 65 247 q 104 551 65 466 q 217 684 144 637 q 388 732 291 732 m 328 968 l 447 968 l 447 849 l 328 849 l 328 968 z "},"d":{"ha":812,"x_min":65,"x_max":701,"o":"m 363 -14 q 199 32 266 -14 q 98 161 132 77 q 65 362 65 246 q 96 553 65 469 q 193 684 128 636 q 355 732 258 732 q 470 710 421 732 q 549 660 519 689 q 592 605 578 631 l 592 1032 l 701 1032 l 701 0 l 616 0 l 605 147 q 531 37 586 88 q 363 -14 476 -14 m 380 72 q 489 99 441 72 q 564 172 538 126 q 592 269 591 217 l 592 452 q 570 532 590 488 q 504 610 550 576 q 382 645 458 645 q 227 572 281 645 q 174 363 174 499 q 229 144 174 216 q 380 72 284 72 z "},"ð":{"ha":811,"x_min":65,"x_max":747,"o":"m 747 355 q 706 163 747 246 q 586 33 664 79 q 403 -14 508 -14 q 227 32 304 -14 q 107 158 150 77 q 65 342 65 239 q 107 528 65 446 q 226 658 150 611 q 397 704 301 704 q 495 686 451 704 q 572 636 540 669 q 496 755 543 700 q 378 858 449 810 l 163 736 l 131 787 l 323 893 q 165 966 260 928 l 237 1019 q 409 942 328 988 l 551 1022 l 578 969 l 465 906 q 747 355 747 713 m 408 68 q 526 104 474 68 q 607 203 578 140 q 636 345 636 266 q 607 488 636 424 q 525 588 577 551 q 407 624 473 624 q 288 588 340 624 q 205 488 235 551 q 176 345 176 424 q 205 203 176 266 q 288 104 235 140 q 408 68 340 68 z "},"ď":{"ha":947,"x_min":65,"x_max":891,"o":"m 363 -14 q 199 32 266 -14 q 98 161 132 77 q 65 362 65 246 q 96 553 65 469 q 193 684 128 636 q 355 732 258 732 q 470 710 421 732 q 549 660 519 689 q 592 605 578 631 l 592 1032 l 701 1032 l 701 0 l 616 0 l 605 147 q 531 37 586 88 q 363 -14 476 -14 m 380 72 q 489 99 441 72 q 564 172 538 126 q 592 269 591 217 l 592 452 q 570 532 590 488 q 504 610 550 576 q 382 645 458 645 q 227 572 281 645 q 174 363 174 499 q 229 144 174 216 q 380 72 284 72 m 828 869 l 794 876 l 794 1005 l 891 1005 l 891 869 l 838 744 l 777 744 l 828 869 z "},"đ":{"ha":873,"x_min":65,"x_max":807,"o":"m 807 833 l 701 833 l 701 0 l 616 0 l 605 147 q 531 37 586 88 q 363 -14 476 -14 q 199 32 266 -14 q 98 161 132 77 q 65 362 65 246 q 96 553 65 469 q 193 684 128 636 q 355 732 258 732 q 470 710 421 732 q 549 660 519 689 q 592 605 578 631 l 592 833 l 389 833 l 389 905 l 592 905 l 592 1032 l 701 1032 l 701 905 l 807 905 l 807 833 m 592 452 q 570 532 590 488 q 504 610 550 576 q 382 645 458 645 q 227 572 281 645 q 174 363 174 499 q 229 144 174 216 q 380 72 284 72 q 489 99 441 72 q 564 172 538 126 q 592 269 591 217 l 592 452 z "},"ḍ":{"ha":812,"x_min":65,"x_max":701,"o":"m 363 -14 q 199 32 266 -14 q 98 161 132 77 q 65 362 65 246 q 96 553 65 469 q 193 684 128 636 q 355 732 258 732 q 470 710 421 732 q 549 660 519 689 q 592 605 578 631 l 592 1032 l 701 1032 l 701 0 l 616 0 l 605 147 q 531 37 586 88 q 363 -14 476 -14 m 380 72 q 489 99 441 72 q 564 172 538 126 q 592 269 591 217 l 592 452 q 570 532 590 488 q 504 610 550 576 q 382 645 458 645 q 227 572 281 645 q 174 363 174 499 q 229 144 174 216 q 380 72 284 72 z "},"e":{"ha":759,"x_min":65,"x_max":694,"o":"m 174 333 q 199 201 174 259 q 273 108 223 142 q 394 74 322 74 q 515 108 467 74 q 585 205 563 141 l 688 205 q 628 83 671 133 q 526 10 585 34 q 396 -14 466 -14 q 223 30 297 -14 q 106 156 148 74 q 65 352 65 239 q 103 552 65 467 q 214 685 141 638 q 387 732 286 732 q 553 689 484 732 q 658 567 622 647 q 694 378 694 488 l 694 333 l 174 333 m 589 411 q 566 532 589 479 q 498 616 544 585 q 386 646 453 646 q 269 612 317 646 q 198 525 222 578 q 175 411 174 471 l 589 411 z "},"é":{"ha":759,"x_min":65,"x_max":694,"o":"m 174 333 q 199 201 174 259 q 273 108 223 142 q 394 74 322 74 q 515 108 467 74 q 585 205 563 141 l 688 205 q 628 83 671 133 q 526 10 585 34 q 396 -14 466 -14 q 223 30 297 -14 q 106 156 148 74 q 65 352 65 239 q 103 552 65 467 q 214 685 141 638 q 387 732 286 732 q 553 689 484 732 q 658 567 622 647 q 694 378 694 488 l 694 333 l 174 333 m 589 411 q 566 532 589 479 q 498 616 544 585 q 386 646 453 646 q 269 612 317 646 q 198 525 222 578 q 175 411 174 471 l 589 411 m 569 929 l 224 825 l 205 884 l 541 1017 l 569 929 z "},"ĕ":{"ha":759,"x_min":65,"x_max":694,"o":"m 174 333 q 199 201 174 259 q 273 108 223 142 q 394 74 322 74 q 515 108 467 74 q 585 205 563 141 l 688 205 q 628 83 671 133 q 526 10 585 34 q 396 -14 466 -14 q 223 30 297 -14 q 106 156 148 74 q 65 352 65 239 q 103 552 65 467 q 214 685 141 638 q 387 732 286 732 q 553 689 484 732 q 658 567 622 647 q 694 378 694 488 l 694 333 l 174 333 m 589 411 q 566 532 589 479 q 498 616 544 585 q 386 646 453 646 q 269 612 317 646 q 198 525 222 578 q 175 411 174 471 l 589 411 m 594 1002 q 556 933 583 965 q 486 880 529 900 q 390 859 444 859 q 296 878 338 859 q 228 930 254 898 q 192 1002 201 963 l 277 1002 q 320 951 296 972 q 390 931 345 931 q 506 1002 464 931 l 594 1002 z "},"ě":{"ha":764,"x_min":65,"x_max":694,"o":"m 174 333 q 199 201 174 259 q 273 108 223 142 q 394 74 322 74 q 515 108 467 74 q 585 205 563 141 l 688 205 q 628 83 671 133 q 526 10 585 34 q 396 -14 466 -14 q 223 30 297 -14 q 106 156 148 74 q 65 352 65 239 q 103 552 65 467 q 214 685 141 638 q 387 732 286 732 q 553 689 484 732 q 658 567 622 647 q 694 378 694 488 l 694 333 l 174 333 m 589 411 q 566 532 589 479 q 498 616 544 585 q 386 646 453 646 q 269 612 317 646 q 198 525 222 578 q 175 411 174 471 l 589 411 m 599 1005 l 430 852 l 351 852 l 178 1005 l 283 1005 l 389 914 l 488 1005 l 599 1005 z "},"ê":{"ha":759,"x_min":65,"x_max":694,"o":"m 174 333 q 199 201 174 259 q 273 108 223 142 q 394 74 322 74 q 515 108 467 74 q 585 205 563 141 l 688 205 q 628 83 671 133 q 526 10 585 34 q 396 -14 466 -14 q 223 30 297 -14 q 106 156 148 74 q 65 352 65 239 q 103 552 65 467 q 214 685 141 638 q 387 732 286 732 q 553 689 484 732 q 658 567 622 647 q 694 378 694 488 l 694 333 l 174 333 m 589 411 q 566 532 589 479 q 498 616 544 585 q 386 646 453 646 q 269 612 317 646 q 198 525 222 578 q 175 411 174 471 l 589 411 m 387 947 l 281 856 l 177 856 l 349 1008 l 428 1008 l 597 856 l 485 856 l 387 947 z "},"ế":{"ha":759,"x_min":65,"x_max":694,"o":"m 174 333 q 199 201 174 259 q 273 108 223 142 q 394 74 322 74 q 515 108 467 74 q 585 205 563 141 l 688 205 q 628 83 671 133 q 526 10 585 34 q 396 -14 466 -14 q 223 30 297 -14 q 106 156 148 74 q 65 352 65 239 q 103 552 65 467 q 214 685 141 638 q 387 732 286 732 q 553 689 484 732 q 658 567 622 647 q 694 378 694 488 l 694 333 l 174 333 m 589 411 q 566 532 589 479 q 498 616 544 585 q 386 646 453 646 q 269 612 317 646 q 198 525 222 578 q 175 411 174 471 l 589 411 z "},"ệ":{"ha":759,"x_min":65,"x_max":694,"o":"m 174 333 q 199 201 174 259 q 273 108 223 142 q 394 74 322 74 q 515 108 467 74 q 585 205 563 141 l 688 205 q 628 83 671 133 q 526 10 585 34 q 396 -14 466 -14 q 223 30 297 -14 q 106 156 148 74 q 65 352 65 239 q 103 552 65 467 q 214 685 141 638 q 387 732 286 732 q 553 689 484 732 q 658 567 622 647 q 694 378 694 488 l 694 333 l 174 333 m 589 411 q 566 532 589 479 q 498 616 544 585 q 386 646 453 646 q 269 612 317 646 q 198 525 222 578 q 175 411 174 471 l 589 411 m 387 947 l 281 856 l 177 856 l 349 1008 l 428 1008 l 597 856 l 485 856 l 387 947 z "},"ề":{"ha":759,"x_min":65,"x_max":694,"o":"m 174 333 q 199 201 174 259 q 273 108 223 142 q 394 74 322 74 q 515 108 467 74 q 585 205 563 141 l 688 205 q 628 83 671 133 q 526 10 585 34 q 396 -14 466 -14 q 223 30 297 -14 q 106 156 148 74 q 65 352 65 239 q 103 552 65 467 q 214 685 141 638 q 387 732 286 732 q 553 689 484 732 q 658 567 622 647 q 694 378 694 488 l 694 333 l 174 333 m 589 411 q 566 532 589 479 q 498 616 544 585 q 386 646 453 646 q 269 612 317 646 q 198 525 222 578 q 175 411 174 471 l 589 411 z "},"ể":{"ha":759,"x_min":65,"x_max":694,"o":"m 174 333 q 199 201 174 259 q 273 108 223 142 q 394 74 322 74 q 515 108 467 74 q 585 205 563 141 l 688 205 q 628 83 671 133 q 526 10 585 34 q 396 -14 466 -14 q 223 30 297 -14 q 106 156 148 74 q 65 352 65 239 q 103 552 65 467 q 214 685 141 638 q 387 732 286 732 q 553 689 484 732 q 658 567 622 647 q 694 378 694 488 l 694 333 l 174 333 m 589 411 q 566 532 589 479 q 498 616 544 585 q 386 646 453 646 q 269 612 317 646 q 198 525 222 578 q 175 411 174 471 l 589 411 z "},"ễ":{"ha":759,"x_min":65,"x_max":694,"o":"m 174 333 q 199 201 174 259 q 273 108 223 142 q 394 74 322 74 q 515 108 467 74 q 585 205 563 141 l 688 205 q 628 83 671 133 q 526 10 585 34 q 396 -14 466 -14 q 223 30 297 -14 q 106 156 148 74 q 65 352 65 239 q 103 552 65 467 q 214 685 141 638 q 387 732 286 732 q 553 689 484 732 q 658 567 622 647 q 694 378 694 488 l 694 333 l 174 333 m 589 411 q 566 532 589 479 q 498 616 544 585 q 386 646 453 646 q 269 612 317 646 q 198 525 222 578 q 175 411 174 471 l 589 411 z "},"ȅ":{"ha":759,"x_min":65,"x_max":694,"o":"m 174 333 q 199 201 174 259 q 273 108 223 142 q 394 74 322 74 q 515 108 467 74 q 585 205 563 141 l 688 205 q 628 83 671 133 q 526 10 585 34 q 396 -14 466 -14 q 223 30 297 -14 q 106 156 148 74 q 65 352 65 239 q 103 552 65 467 q 214 685 141 638 q 387 732 286 732 q 553 689 484 732 q 658 567 622 647 q 694 378 694 488 l 694 333 l 174 333 m 589 411 q 566 532 589 479 q 498 616 544 585 q 386 646 453 646 q 269 612 317 646 q 198 525 222 578 q 175 411 174 471 l 589 411 m 342 828 l 305 781 l 99 949 l 158 1019 l 342 828 m 559 828 l 521 781 l 316 949 l 375 1019 l 559 828 z "},"ë":{"ha":759,"x_min":65,"x_max":694,"o":"m 174 333 q 199 201 174 259 q 273 108 223 142 q 394 74 322 74 q 515 108 467 74 q 585 205 563 141 l 688 205 q 628 83 671 133 q 526 10 585 34 q 396 -14 466 -14 q 223 30 297 -14 q 106 156 148 74 q 65 352 65 239 q 103 552 65 467 q 214 685 141 638 q 387 732 286 732 q 553 689 484 732 q 658 567 622 647 q 694 378 694 488 l 694 333 l 174 333 m 589 411 q 566 532 589 479 q 498 616 544 585 q 386 646 453 646 q 269 612 317 646 q 198 525 222 578 q 175 411 174 471 l 589 411 m 217 993 l 335 993 l 335 874 l 217 874 l 217 993 m 437 993 l 555 993 l 555 874 l 437 874 l 437 993 z "},"ė":{"ha":759,"x_min":65,"x_max":694,"o":"m 174 333 q 199 201 174 259 q 273 108 223 142 q 394 74 322 74 q 515 108 467 74 q 585 205 563 141 l 688 205 q 628 83 671 133 q 526 10 585 34 q 396 -14 466 -14 q 223 30 297 -14 q 106 156 148 74 q 65 352 65 239 q 103 552 65 467 q 214 685 141 638 q 387 732 286 732 q 553 689 484 732 q 658 567 622 647 q 694 378 694 488 l 694 333 l 174 333 m 589 411 q 566 532 589 479 q 498 616 544 585 q 386 646 453 646 q 269 612 317 646 q 198 525 222 578 q 175 411 174 471 l 589 411 m 328 968 l 447 968 l 447 849 l 328 849 l 328 968 z "},"ẹ":{"ha":759,"x_min":65,"x_max":694,"o":"m 174 333 q 199 201 174 259 q 273 108 223 142 q 394 74 322 74 q 515 108 467 74 q 585 205 563 141 l 688 205 q 628 83 671 133 q 526 10 585 34 q 396 -14 466 -14 q 223 30 297 -14 q 106 156 148 74 q 65 352 65 239 q 103 552 65 467 q 214 685 141 638 q 387 732 286 732 q 553 689 484 732 q 658 567 622 647 q 694 378 694 488 l 694 333 l 174 333 m 589 411 q 566 532 589 479 q 498 616 544 585 q 386 646 453 646 q 269 612 317 646 q 198 525 222 578 q 175 411 174 471 l 589 411 z "},"è":{"ha":759,"x_min":65,"x_max":694,"o":"m 174 333 q 199 201 174 259 q 273 108 223 142 q 394 74 322 74 q 515 108 467 74 q 585 205 563 141 l 688 205 q 628 83 671 133 q 526 10 585 34 q 396 -14 466 -14 q 223 30 297 -14 q 106 156 148 74 q 65 352 65 239 q 103 552 65 467 q 214 685 141 638 q 387 732 286 732 q 553 689 484 732 q 658 567 622 647 q 694 378 694 488 l 694 333 l 174 333 m 589 411 q 566 532 589 479 q 498 616 544 585 q 386 646 453 646 q 269 612 317 646 q 198 525 222 578 q 175 411 174 471 l 589 411 m 551 884 l 532 825 l 187 929 l 216 1017 l 551 884 z "},"ẻ":{"ha":759,"x_min":65,"x_max":694,"o":"m 174 333 q 199 201 174 259 q 273 108 223 142 q 394 74 322 74 q 515 108 467 74 q 585 205 563 141 l 688 205 q 628 83 671 133 q 526 10 585 34 q 396 -14 466 -14 q 223 30 297 -14 q 106 156 148 74 q 65 352 65 239 q 103 552 65 467 q 214 685 141 638 q 387 732 286 732 q 553 689 484 732 q 658 567 622 647 q 694 378 694 488 l 694 333 l 174 333 m 589 411 q 566 532 589 479 q 498 616 544 585 q 386 646 453 646 q 269 612 317 646 q 198 525 222 578 q 175 411 174 471 l 589 411 m 328 965 q 387 985 358 985 q 431 963 417 985 q 438 938 438 950 q 425 901 438 919 q 389 869 412 883 l 424 815 q 486 870 465 839 q 508 935 508 901 q 486 1001 508 968 q 445 1038 470 1025 q 389 1051 419 1051 q 292 1019 342 1051 l 328 965 z "},"ȇ":{"ha":759,"x_min":65,"x_max":694,"o":"m 174 333 q 199 201 174 259 q 273 108 223 142 q 394 74 322 74 q 515 108 467 74 q 585 205 563 141 l 688 205 q 628 83 671 133 q 526 10 585 34 q 396 -14 466 -14 q 223 30 297 -14 q 106 156 148 74 q 65 352 65 239 q 103 552 65 467 q 214 685 141 638 q 387 732 286 732 q 553 689 484 732 q 658 567 622 647 q 694 378 694 488 l 694 333 l 174 333 m 589 411 q 566 532 589 479 q 498 616 544 585 q 386 646 453 646 q 269 612 317 646 q 198 525 222 578 q 175 411 174 471 l 589 411 m 501 918 q 455 969 482 949 q 385 989 427 989 q 315 969 340 989 q 272 918 290 949 l 186 918 q 222 990 196 958 q 290 1042 249 1022 q 385 1061 332 1061 q 481 1041 438 1061 q 550 988 523 1020 q 588 918 578 955 l 501 918 z "},"ē":{"ha":759,"x_min":65,"x_max":694,"o":"m 174 333 q 199 201 174 259 q 273 108 223 142 q 394 74 322 74 q 515 108 467 74 q 585 205 563 141 l 688 205 q 628 83 671 133 q 526 10 585 34 q 396 -14 466 -14 q 223 30 297 -14 q 106 156 148 74 q 65 352 65 239 q 103 552 65 467 q 214 685 141 638 q 387 732 286 732 q 553 689 484 732 q 658 567 622 647 q 694 378 694 488 l 694 333 l 174 333 m 589 411 q 566 532 589 479 q 498 616 544 585 q 386 646 453 646 q 269 612 317 646 q 198 525 222 578 q 175 411 174 471 l 589 411 m 584 905 l 190 905 l 190 985 l 584 985 l 584 905 z "},"ę":{"ha":759,"x_min":65,"x_max":694,"o":"m 694 333 l 174 333 q 199 201 174 259 q 273 108 223 142 q 394 74 322 74 q 515 108 467 74 q 585 205 563 141 l 688 205 q 634 90 672 137 q 540 16 595 42 l 542 16 q 439 -41 470 -15 q 408 -102 408 -67 q 424 -142 408 -128 q 476 -155 440 -155 q 532 -147 506 -155 q 575 -131 558 -140 l 575 -191 q 523 -210 557 -202 q 451 -218 488 -218 q 351 -189 385 -218 q 317 -110 317 -160 q 330 -57 317 -81 q 373 -13 342 -33 q 211 37 281 -8 q 103 163 142 82 q 65 352 65 243 q 103 552 65 467 q 214 685 141 638 q 387 732 286 732 q 553 689 484 732 q 658 567 622 647 q 694 378 694 488 l 694 333 m 589 411 q 566 532 589 479 q 498 616 544 585 q 386 646 453 646 q 269 612 317 646 q 198 525 222 578 q 175 411 174 471 l 589 411 z "},"ẽ":{"ha":759,"x_min":65,"x_max":694,"o":"m 174 333 q 199 201 174 259 q 273 108 223 142 q 394 74 322 74 q 515 108 467 74 q 585 205 563 141 l 688 205 q 628 83 671 133 q 526 10 585 34 q 396 -14 466 -14 q 223 30 297 -14 q 106 156 148 74 q 65 352 65 239 q 103 552 65 467 q 214 685 141 638 q 387 732 286 732 q 553 689 484 732 q 658 567 622 647 q 694 378 694 488 l 694 333 l 174 333 m 589 411 q 566 532 589 479 q 498 616 544 585 q 386 646 453 646 q 269 612 317 646 q 198 525 222 578 q 175 411 174 471 l 589 411 m 590 928 q 541 900 567 911 q 476 890 514 890 q 430 894 451 890 q 382 908 410 899 q 341 921 357 917 q 305 925 324 925 q 268 920 284 925 q 241 908 251 915 q 210 888 231 902 l 189 948 q 240 984 216 972 q 299 997 265 997 q 342 992 322 997 q 391 977 363 987 q 439 964 421 968 q 476 959 456 959 q 524 968 503 959 q 569 995 544 977 l 590 928 z "},"ə":{"ha":759,"x_min":65,"x_max":695,"o":"m 585 385 q 561 518 585 459 q 487 610 537 576 q 365 644 438 644 q 244 611 292 644 q 174 513 196 578 l 71 513 q 131 635 88 585 q 234 708 174 684 q 363 732 294 732 q 537 688 462 732 q 653 562 612 644 q 695 366 695 479 q 657 166 695 251 q 546 33 619 80 q 372 -14 473 -14 q 206 29 275 -14 q 101 151 138 72 q 65 340 65 231 l 65 385 l 585 385 m 170 307 q 193 186 170 239 q 261 102 215 133 q 374 72 307 72 q 490 106 442 72 q 561 193 538 140 q 584 307 585 247 l 170 307 z "},"f":{"ha":547,"x_min":47,"x_max":500,"o":"m 493 637 l 313 637 l 313 0 l 204 0 l 204 637 l 47 637 l 47 718 l 204 718 l 204 832 q 372 1004 204 1004 l 499 1004 l 500 925 l 390 925 q 328 901 345 925 q 311 826 311 878 l 311 718 l 493 718 l 493 637 z "},"g":{"ha":846,"x_min":49,"x_max":790,"o":"m 398 -237 q 208 -214 286 -237 q 89 -148 129 -191 q 49 -45 49 -104 q 68 24 49 -6 q 112 72 88 54 q 166 106 136 90 q 183 117 182 115 q 158 131 178 119 q 126 161 138 142 q 113 203 113 179 q 144 263 113 236 q 235 304 176 290 q 134 388 165 340 q 103 501 103 435 q 141 624 103 572 q 248 702 179 675 q 408 729 317 729 q 523 714 475 729 q 615 665 572 698 q 774 732 627 671 l 790 739 l 790 631 l 663 606 q 682 554 674 585 q 690 502 690 524 q 657 389 690 440 q 559 308 625 338 q 397 278 493 278 q 362 278 372 278 q 251 261 285 276 q 217 226 217 247 q 231 204 217 212 q 273 191 244 196 q 358 182 303 186 l 383 181 q 435 177 403 179 q 515 173 467 176 q 687 116 631 166 q 743 -19 743 66 q 703 -136 743 -87 q 585 -211 663 -185 q 398 -237 507 -237 m 400 351 q 538 390 491 351 q 585 501 585 428 q 535 617 585 577 q 400 658 485 658 q 261 616 311 658 q 212 501 212 574 q 261 391 212 430 q 400 351 310 351 m 417 -164 q 582 -132 528 -164 q 636 -33 636 -99 q 604 45 636 17 q 499 77 572 72 l 288 90 q 231 76 262 92 q 178 31 200 60 q 157 -33 157 1 q 224 -131 157 -97 q 417 -164 291 -164 z "},"ğ":{"ha":846,"x_min":49,"x_max":790,"o":"m 398 -237 q 208 -214 286 -237 q 89 -148 129 -191 q 49 -45 49 -104 q 68 24 49 -6 q 112 72 88 54 q 166 106 136 90 q 183 117 182 115 q 158 131 178 119 q 126 161 138 142 q 113 203 113 179 q 144 263 113 236 q 235 304 176 290 q 134 388 165 340 q 103 501 103 435 q 141 624 103 572 q 248 702 179 675 q 408 729 317 729 q 523 714 475 729 q 615 665 572 698 q 774 732 627 671 l 790 739 l 790 631 l 663 606 q 682 554 674 585 q 690 502 690 524 q 657 389 690 440 q 559 308 625 338 q 397 278 493 278 q 362 278 372 278 q 251 261 285 276 q 217 226 217 247 q 231 204 217 212 q 273 191 244 196 q 358 182 303 186 l 383 181 q 435 177 403 179 q 515 173 467 176 q 687 116 631 166 q 743 -19 743 66 q 703 -136 743 -87 q 585 -211 663 -185 q 398 -237 507 -237 m 400 351 q 538 390 491 351 q 585 501 585 428 q 535 617 585 577 q 400 658 485 658 q 261 616 311 658 q 212 501 212 574 q 261 391 212 430 q 400 351 310 351 m 417 -164 q 582 -132 528 -164 q 636 -33 636 -99 q 604 45 636 17 q 499 77 572 72 l 288 90 q 231 76 262 92 q 178 31 200 60 q 157 -33 157 1 q 224 -131 157 -97 q 417 -164 291 -164 m 613 1002 q 575 933 602 965 q 505 880 548 900 q 409 859 463 859 q 315 878 356 859 q 247 930 273 898 q 210 1002 220 963 l 296 1002 q 339 951 315 972 q 409 931 364 931 q 525 1002 483 931 l 613 1002 z "},"ĝ":{"ha":846,"x_min":49,"x_max":790,"o":"m 398 -237 q 208 -214 286 -237 q 89 -148 129 -191 q 49 -45 49 -104 q 68 24 49 -6 q 112 72 88 54 q 166 106 136 90 q 183 117 182 115 q 158 131 178 119 q 126 161 138 142 q 113 203 113 179 q 144 263 113 236 q 235 304 176 290 q 134 388 165 340 q 103 501 103 435 q 141 624 103 572 q 248 702 179 675 q 408 729 317 729 q 523 714 475 729 q 615 665 572 698 q 774 732 627 671 l 790 739 l 790 631 l 663 606 q 682 554 674 585 q 690 502 690 524 q 657 389 690 440 q 559 308 625 338 q 397 278 493 278 q 362 278 372 278 q 251 261 285 276 q 217 226 217 247 q 231 204 217 212 q 273 191 244 196 q 358 182 303 186 l 383 181 q 435 177 403 179 q 515 173 467 176 q 687 116 631 166 q 743 -19 743 66 q 703 -136 743 -87 q 585 -211 663 -185 q 398 -237 507 -237 m 400 351 q 538 390 491 351 q 585 501 585 428 q 535 617 585 577 q 400 658 485 658 q 261 616 311 658 q 212 501 212 574 q 261 391 212 430 q 400 351 310 351 m 417 -164 q 582 -132 528 -164 q 636 -33 636 -99 q 604 45 636 17 q 499 77 572 72 l 288 90 q 231 76 262 92 q 178 31 200 60 q 157 -33 157 1 q 224 -131 157 -97 q 417 -164 291 -164 m 406 947 l 300 856 l 196 856 l 367 1008 l 447 1008 l 615 856 l 504 856 l 406 947 z "},"ģ":{"ha":846,"x_min":49,"x_max":790,"o":"m 333 971 l 392 1067 l 447 1067 l 390 964 l 435 964 l 435 844 l 333 844 l 333 971 m 398 -237 q 208 -214 286 -237 q 89 -148 129 -191 q 49 -45 49 -104 q 68 24 49 -6 q 112 72 88 54 q 166 106 136 90 q 183 117 182 115 q 158 131 178 119 q 126 161 138 142 q 113 203 113 179 q 144 263 113 236 q 235 304 176 290 q 134 388 165 340 q 103 501 103 435 q 141 624 103 572 q 248 702 179 675 q 408 729 317 729 q 523 714 475 729 q 615 665 572 698 q 774 732 627 671 l 790 739 l 790 631 l 663 606 q 682 554 674 585 q 690 502 690 524 q 657 389 690 440 q 559 308 625 338 q 397 278 493 278 q 362 278 372 278 q 251 261 285 276 q 217 226 217 247 q 231 204 217 212 q 273 191 244 196 q 358 182 303 186 l 383 181 q 435 177 403 179 q 515 173 467 176 q 687 116 631 166 q 743 -19 743 66 q 703 -136 743 -87 q 585 -211 663 -185 q 398 -237 507 -237 m 400 351 q 538 390 491 351 q 585 501 585 428 q 535 617 585 577 q 400 658 485 658 q 261 616 311 658 q 212 501 212 574 q 261 391 212 430 q 400 351 310 351 m 417 -164 q 582 -132 528 -164 q 636 -33 636 -99 q 604 45 636 17 q 499 77 572 72 l 288 90 q 231 76 262 92 q 178 31 200 60 q 157 -33 157 1 q 224 -131 157 -97 q 417 -164 291 -164 z "},"ġ":{"ha":846,"x_min":49,"x_max":790,"o":"m 398 -237 q 208 -214 286 -237 q 89 -148 129 -191 q 49 -45 49 -104 q 68 24 49 -6 q 112 72 88 54 q 166 106 136 90 q 183 117 182 115 q 158 131 178 119 q 126 161 138 142 q 113 203 113 179 q 144 263 113 236 q 235 304 176 290 q 134 388 165 340 q 103 501 103 435 q 141 624 103 572 q 248 702 179 675 q 408 729 317 729 q 523 714 475 729 q 615 665 572 698 q 774 732 627 671 l 790 739 l 790 631 l 663 606 q 682 554 674 585 q 690 502 690 524 q 657 389 690 440 q 559 308 625 338 q 397 278 493 278 q 362 278 372 278 q 251 261 285 276 q 217 226 217 247 q 231 204 217 212 q 273 191 244 196 q 358 182 303 186 l 383 181 q 435 177 403 179 q 515 173 467 176 q 687 116 631 166 q 743 -19 743 66 q 703 -136 743 -87 q 585 -211 663 -185 q 398 -237 507 -237 m 400 351 q 538 390 491 351 q 585 501 585 428 q 535 617 585 577 q 400 658 485 658 q 261 616 311 658 q 212 501 212 574 q 261 391 212 430 q 400 351 310 351 m 417 -164 q 582 -132 528 -164 q 636 -33 636 -99 q 604 45 636 17 q 499 77 572 72 l 288 90 q 231 76 262 92 q 178 31 200 60 q 157 -33 157 1 q 224 -131 157 -97 q 417 -164 291 -164 m 347 968 l 465 968 l 465 849 l 347 849 l 347 968 z "},"h":{"ha":795,"x_min":111,"x_max":697,"o":"m 111 1032 l 217 1032 l 217 616 q 305 697 246 665 q 446 728 364 728 q 573 702 516 728 q 664 628 631 676 q 697 519 697 581 l 697 0 l 588 0 l 588 496 q 542 600 588 562 q 419 638 496 638 q 319 621 365 638 q 247 570 274 604 q 219 487 219 535 l 219 0 l 111 0 l 111 1032 z "},"ħ":{"ha":807,"x_min":28,"x_max":708,"o":"m 458 728 q 585 702 528 728 q 675 628 642 676 q 708 519 708 581 l 708 0 l 599 0 l 599 496 q 553 600 599 562 q 431 638 508 638 q 331 621 376 638 q 258 570 285 604 q 231 487 231 535 l 231 0 l 123 0 l 123 833 l 28 833 l 28 905 l 123 905 l 123 1032 l 228 1032 l 228 905 l 447 905 l 447 833 l 228 833 l 228 616 q 317 697 258 665 q 458 728 376 728 z "},"ĥ":{"ha":795,"x_min":111,"x_max":697,"o":"m 111 1032 l 217 1032 l 217 616 q 305 697 246 665 q 446 728 364 728 q 573 702 516 728 q 664 628 631 676 q 697 519 697 581 l 697 0 l 588 0 l 588 496 q 542 600 588 562 q 419 638 496 638 q 319 621 365 638 q 247 570 274 604 q 219 487 219 535 l 219 0 l 111 0 l 111 1032 m 485 947 l 379 856 l 275 856 l 447 1008 l 526 1008 l 694 856 l 583 856 l 485 947 z "},"ḥ":{"ha":795,"x_min":111,"x_max":697,"o":"m 111 1032 l 217 1032 l 217 616 q 305 697 246 665 q 446 728 364 728 q 573 702 516 728 q 664 628 631 676 q 697 519 697 581 l 697 0 l 588 0 l 588 496 q 542 600 588 562 q 419 638 496 638 q 319 621 365 638 q 247 570 274 604 q 219 487 219 535 l 219 0 l 111 0 l 111 1032 z "},"i":{"ha":359,"x_min":122,"x_max":240,"o":"m 240 875 l 122 875 l 122 994 l 240 994 l 240 875 m 235 0 l 127 0 l 127 718 l 235 718 l 235 0 z "},"ı":{"ha":350,"x_min":122,"x_max":230,"o":"m 230 0 l 122 0 l 122 718 l 230 718 l 230 0 z "},"í":{"ha":350,"x_min":-6,"x_max":358,"o":"m 230 0 l 122 0 l 122 718 l 230 718 l 230 0 m 358 929 l 13 825 l -6 884 l 330 1017 l 358 929 z "},"ĭ":{"ha":350,"x_min":-19,"x_max":383,"o":"m 230 0 l 122 0 l 122 718 l 230 718 l 230 0 m 383 1002 q 345 933 372 965 q 275 880 318 900 q 179 859 233 859 q 85 878 126 859 q 17 930 43 898 q -19 1002 -10 963 l 66 1002 q 109 951 85 972 q 179 931 134 931 q 295 1002 253 931 l 383 1002 z "},"î":{"ha":350,"x_min":-34,"x_max":385,"o":"m 230 0 l 122 0 l 122 718 l 230 718 l 230 0 m 176 947 l 70 856 l -34 856 l 138 1008 l 217 1008 l 385 856 l 274 856 l 176 947 z "},"ȉ":{"ha":350,"x_min":-112,"x_max":348,"o":"m 230 0 l 122 0 l 122 718 l 230 718 l 230 0 m 131 828 l 94 781 l -112 949 l -53 1019 l 131 828 m 348 828 l 310 781 l 105 949 l 164 1019 l 348 828 z "},"ï":{"ha":350,"x_min":6,"x_max":344,"o":"m 230 0 l 122 0 l 122 718 l 230 718 l 230 0 m 6 993 l 124 993 l 124 874 l 6 874 l 6 993 m 226 993 l 344 993 l 344 874 l 226 874 l 226 993 z "},"ị":{"ha":360,"x_min":122,"x_max":241,"o":"m 241 875 l 123 875 l 123 994 l 241 994 l 241 875 m 237 0 l 128 0 l 128 718 l 237 718 l 237 0 z "},"ì":{"ha":350,"x_min":-24,"x_max":340,"o":"m 230 0 l 122 0 l 122 718 l 230 718 l 230 0 m 340 884 l 321 825 l -24 929 l 5 1017 l 340 884 z "},"ỉ":{"ha":350,"x_min":81,"x_max":297,"o":"m 230 0 l 122 0 l 122 718 l 230 718 l 230 0 m 117 965 q 176 985 147 985 q 219 963 206 985 q 227 938 227 950 q 214 901 227 919 q 178 869 201 883 l 213 815 q 275 870 253 839 q 297 935 297 901 q 275 1001 297 968 q 234 1038 259 1025 q 178 1051 208 1051 q 81 1019 131 1051 l 117 965 z "},"ȋ":{"ha":350,"x_min":-25,"x_max":377,"o":"m 230 0 l 122 0 l 122 718 l 230 718 l 230 0 m 290 918 q 243 969 271 949 q 174 989 216 989 q 104 969 128 989 q 60 918 79 949 l -25 918 q 11 990 -15 958 q 79 1042 38 1022 q 174 1061 121 1061 q 269 1041 227 1061 q 339 988 312 1020 q 377 918 367 955 l 290 918 z "},"ī":{"ha":350,"x_min":-22,"x_max":373,"o":"m 230 0 l 122 0 l 122 718 l 230 718 l 230 0 m 373 905 l -22 905 l -22 985 l 373 985 l 373 905 z "},"į":{"ha":350,"x_min":0,"x_max":258,"o":"m 235 849 l 117 849 l 117 968 l 235 968 l 235 849 m 159 -166 q 215 -158 189 -166 q 258 -142 242 -151 l 258 -202 q 206 -221 240 -213 q 134 -229 172 -229 q 34 -200 68 -229 q 0 -121 0 -172 q 27 -48 0 -79 q 122 7 55 -17 l 122 718 l 230 718 l 230 0 l 214 0 q 120 -54 149 -28 q 92 -113 92 -80 q 108 -153 92 -140 q 159 -166 124 -166 z "},"ĩ":{"ha":350,"x_min":-22,"x_max":379,"o":"m 230 0 l 122 0 l 122 718 l 230 718 l 230 0 m 379 928 q 330 900 356 911 q 265 890 303 890 q 219 894 240 890 q 171 908 199 899 q 130 921 146 917 q 94 925 113 925 q 57 920 73 925 q 30 908 40 915 q -1 888 19 902 l -22 948 q 29 984 5 972 q 88 997 53 997 q 131 992 110 997 q 180 977 152 987 q 227 964 210 968 q 265 959 245 959 q 313 968 292 959 q 358 995 333 977 l 379 928 z "},"j":{"ha":358,"x_min":-35,"x_max":245,"o":"m 245 875 l 128 875 l 128 994 l 245 994 l 245 875 m 240 -42 q 223 -149 240 -108 q 165 -210 206 -190 q 55 -231 124 -231 q -6 -226 16 -231 q -35 -215 -28 -222 l -35 -143 l 40 -140 q 111 -114 91 -137 q 132 -37 132 -91 l 132 718 l 240 718 l 240 -42 z "},"ȷ":{"ha":354,"x_min":-35,"x_max":241,"o":"m 241 -42 q 223 -149 241 -108 q 165 -210 206 -190 q 56 -231 125 -231 q -17 -227 1 -231 q -35 -215 -35 -223 l -35 -143 l 41 -140 q 112 -114 91 -137 q 133 -37 133 -91 l 133 718 l 241 718 l 241 -42 z "},"ĵ":{"ha":354,"x_min":-35,"x_max":395,"o":"m 241 -42 q 223 -149 241 -108 q 165 -210 206 -190 q 56 -231 125 -231 q -17 -227 1 -231 q -35 -215 -35 -223 l -35 -143 l 41 -140 q 112 -114 91 -137 q 133 -37 133 -91 l 133 718 l 241 718 l 241 -42 m 185 947 l 80 856 l -24 856 l 147 1008 l 226 1008 l 395 856 l 284 856 l 185 947 z "},"k":{"ha":774,"x_min":111,"x_max":725,"o":"m 608 0 l 374 374 l 219 215 l 219 0 l 111 0 l 111 1032 l 219 1032 l 219 342 l 577 718 l 705 718 l 447 448 l 725 0 l 608 0 z "},"ķ":{"ha":774,"x_min":111,"x_max":725,"o":"m 608 0 l 374 374 l 219 215 l 219 0 l 111 0 l 111 1032 l 219 1032 l 219 342 l 577 718 l 705 718 l 447 448 l 725 0 l 608 0 z "},"ĸ":{"ha":785,"x_min":111,"x_max":736,"o":"m 608 0 l 385 382 l 219 215 l 219 0 l 111 0 l 111 718 l 219 718 l 219 335 l 588 718 l 711 718 l 461 465 l 736 0 l 608 0 z "},"l":{"ha":399,"x_min":117,"x_max":344,"o":"m 285 -8 q 153 43 190 -8 q 117 181 117 94 l 117 1032 l 224 1032 l 224 190 q 245 105 224 133 q 304 74 267 76 l 344 73 l 344 2 q 285 -8 315 -8 z "},"ĺ":{"ha":399,"x_min":-16,"x_max":349,"o":"m 285 -8 q 153 43 190 -8 q 117 181 117 94 l 117 1032 l 224 1032 l 224 190 q 245 105 224 133 q 304 74 267 76 l 344 73 l 344 2 q 285 -8 315 -8 m 349 1271 l 3 1167 l -16 1226 l 320 1358 l 349 1271 z "},"ľ":{"ha":399,"x_min":117,"x_max":409,"o":"m 285 -8 q 153 43 190 -8 q 117 181 117 94 l 117 1032 l 224 1032 l 224 190 q 245 105 224 133 q 304 74 267 76 l 344 73 l 344 2 q 285 -8 315 -8 m 347 883 l 312 890 l 312 1019 l 409 1019 l 409 883 l 356 758 l 295 758 l 347 883 z "},"ļ":{"ha":399,"x_min":96,"x_max":344,"o":"m 285 -8 q 153 43 190 -8 q 117 181 117 94 l 117 1032 l 224 1032 l 224 190 q 245 105 224 133 q 304 74 267 76 l 344 73 l 344 2 q 285 -8 315 -8 z "},"ŀ":{"ha":460,"x_min":117,"x_max":490,"o":"m 285 -8 q 153 43 190 -8 q 117 181 117 94 l 117 1032 l 224 1032 l 224 190 q 245 105 224 133 q 304 74 267 76 l 344 73 l 344 2 q 285 -8 315 -8 m 490 328 l 344 328 l 344 468 l 490 468 l 490 328 z "},"ł":{"ha":366,"x_min":14,"x_max":376,"o":"m 376 73 l 376 2 q 317 -8 347 -8 q 185 43 222 -8 q 149 181 149 94 l 149 342 l 14 226 l 14 330 l 149 442 l 149 1032 l 256 1032 l 256 532 l 365 624 l 365 526 l 256 433 l 256 190 q 277 105 256 133 q 336 74 299 76 l 376 73 z "},"m":{"ha":1190,"x_min":111,"x_max":1091,"o":"m 111 718 l 215 718 l 215 617 q 429 732 287 732 q 553 702 494 732 q 638 617 613 672 q 730 701 672 671 q 857 732 788 732 q 968 709 915 732 q 1056 630 1020 687 q 1091 476 1091 573 l 1091 0 l 983 0 l 983 467 q 827 644 983 644 q 744 629 783 644 q 680 577 705 613 q 654 483 654 540 l 654 0 l 547 0 l 547 510 q 524 583 547 553 q 465 629 501 614 q 392 644 429 644 q 310 628 350 644 q 245 578 271 612 q 219 494 219 544 l 219 0 l 111 0 l 111 718 z "},"n":{"ha":796,"x_min":111,"x_max":697,"o":"m 111 718 l 216 718 l 216 617 q 305 698 247 667 q 445 729 363 729 q 573 700 516 729 q 663 612 630 670 q 697 470 697 553 l 697 0 l 588 0 l 588 461 q 543 592 588 546 q 419 638 497 638 q 320 621 365 638 q 247 570 274 604 q 219 488 219 536 l 219 0 l 111 0 l 111 718 z "},"ń":{"ha":796,"x_min":111,"x_max":697,"o":"m 111 718 l 216 718 l 216 617 q 305 698 247 667 q 445 729 363 729 q 573 700 516 729 q 663 612 630 670 q 697 470 697 553 l 697 0 l 588 0 l 588 461 q 543 592 588 546 q 419 638 497 638 q 320 621 365 638 q 247 570 274 604 q 219 488 219 536 l 219 0 l 111 0 l 111 718 m 597 929 l 252 825 l 233 884 l 569 1017 l 597 929 z "},"ň":{"ha":796,"x_min":111,"x_max":697,"o":"m 111 718 l 216 718 l 216 617 q 305 698 247 667 q 445 729 363 729 q 573 700 516 729 q 663 612 630 670 q 697 470 697 553 l 697 0 l 588 0 l 588 461 q 543 592 588 546 q 419 638 497 638 q 320 621 365 638 q 247 570 274 604 q 219 488 219 536 l 219 0 l 111 0 l 111 718 m 624 1005 l 456 852 l 376 852 l 203 1005 l 309 1005 l 415 914 l 513 1005 l 624 1005 z "},"ņ":{"ha":796,"x_min":111,"x_max":697,"o":"m 111 718 l 216 718 l 216 617 q 305 698 247 667 q 445 729 363 729 q 573 700 516 729 q 663 612 630 670 q 697 470 697 553 l 697 0 l 588 0 l 588 461 q 543 592 588 546 q 419 638 497 638 q 320 621 365 638 q 247 570 274 604 q 219 488 219 536 l 219 0 l 111 0 l 111 718 z "},"ṅ":{"ha":796,"x_min":111,"x_max":697,"o":"m 111 718 l 216 718 l 216 617 q 305 698 247 667 q 445 729 363 729 q 573 700 516 729 q 663 612 630 670 q 697 470 697 553 l 697 0 l 588 0 l 588 461 q 543 592 588 546 q 419 638 497 638 q 320 621 365 638 q 247 570 274 604 q 219 488 219 536 l 219 0 l 111 0 l 111 718 m 356 968 l 474 968 l 474 849 l 356 849 l 356 968 z "},"ŋ":{"ha":810,"x_min":111,"x_max":697,"o":"m 513 -231 q 448 -227 463 -231 q 432 -217 432 -224 l 432 -145 l 498 -143 q 568 -117 547 -141 q 589 -38 589 -93 l 589 496 q 442 646 589 646 q 220 533 337 646 l 220 0 l 111 0 l 113 718 l 216 718 l 216 609 q 355 705 297 678 q 479 732 413 732 q 595 706 547 732 q 671 634 644 681 q 697 527 697 588 l 697 -32 q 650 -179 697 -127 q 513 -231 603 -231 z "},"ñ":{"ha":796,"x_min":111,"x_max":697,"o":"m 111 718 l 216 718 l 216 617 q 305 698 247 667 q 445 729 363 729 q 573 700 516 729 q 663 612 630 670 q 697 470 697 553 l 697 0 l 588 0 l 588 461 q 543 592 588 546 q 419 638 497 638 q 320 621 365 638 q 247 570 274 604 q 219 488 219 536 l 219 0 l 111 0 l 111 718 m 617 928 q 568 900 594 911 q 503 890 541 890 q 457 894 478 890 q 409 908 437 899 q 368 921 384 917 q 332 925 351 925 q 295 920 311 925 q 268 908 278 915 q 238 888 258 902 l 216 948 q 267 984 243 972 q 326 997 292 997 q 369 992 349 997 q 418 977 390 987 q 466 964 448 968 q 503 959 483 959 q 551 968 531 959 q 596 995 571 977 l 617 928 z "},"o":{"ha":774,"x_min":65,"x_max":710,"o":"m 388 -14 q 214 32 287 -14 q 103 162 141 78 q 65 354 65 245 q 104 551 65 465 q 216 684 143 636 q 389 732 290 732 q 561 684 489 732 q 672 552 634 637 q 710 356 710 467 q 672 163 710 247 q 560 33 633 79 q 388 -14 488 -14 m 390 74 q 549 152 496 74 q 602 359 602 230 q 579 507 602 443 q 508 608 556 572 q 389 644 460 644 q 269 608 318 644 q 197 507 221 572 q 173 359 173 442 q 197 212 173 276 q 270 110 221 147 q 390 74 319 74 z "},"ó":{"ha":774,"x_min":65,"x_max":710,"o":"m 388 -14 q 214 32 287 -14 q 103 162 141 78 q 65 354 65 245 q 104 551 65 465 q 216 684 143 636 q 389 732 290 732 q 561 684 489 732 q 672 552 634 637 q 710 356 710 467 q 672 163 710 247 q 560 33 633 79 q 388 -14 488 -14 m 390 74 q 549 152 496 74 q 602 359 602 230 q 579 507 602 443 q 508 608 556 572 q 389 644 460 644 q 269 608 318 644 q 197 507 221 572 q 173 359 173 442 q 197 212 173 276 q 270 110 221 147 q 390 74 319 74 m 572 929 l 227 825 l 208 884 l 544 1017 l 572 929 z "},"ŏ":{"ha":774,"x_min":65,"x_max":710,"o":"m 388 -14 q 214 32 287 -14 q 103 162 141 78 q 65 354 65 245 q 104 551 65 465 q 216 684 143 636 q 389 732 290 732 q 561 684 489 732 q 672 552 634 637 q 710 356 710 467 q 672 163 710 247 q 560 33 633 79 q 388 -14 488 -14 m 390 74 q 549 152 496 74 q 602 359 602 230 q 579 507 602 443 q 508 608 556 572 q 389 644 460 644 q 269 608 318 644 q 197 507 221 572 q 173 359 173 442 q 197 212 173 276 q 270 110 221 147 q 390 74 319 74 m 597 1002 q 559 933 586 965 q 489 880 532 900 q 393 859 447 859 q 299 878 340 859 q 231 930 257 898 q 194 1002 204 963 l 280 1002 q 323 951 299 972 q 393 931 348 931 q 509 1002 467 931 l 597 1002 z "},"ô":{"ha":774,"x_min":65,"x_max":710,"o":"m 388 -14 q 214 32 287 -14 q 103 162 141 78 q 65 354 65 245 q 104 551 65 465 q 216 684 143 636 q 389 732 290 732 q 561 684 489 732 q 672 552 634 637 q 710 356 710 467 q 672 163 710 247 q 560 33 633 79 q 388 -14 488 -14 m 390 74 q 549 152 496 74 q 602 359 602 230 q 579 507 602 443 q 508 608 556 572 q 389 644 460 644 q 269 608 318 644 q 197 507 221 572 q 173 359 173 442 q 197 212 173 276 q 270 110 221 147 q 390 74 319 74 m 390 947 l 284 856 l 180 856 l 351 1008 l 431 1008 l 599 856 l 488 856 l 390 947 z "},"ố":{"ha":774,"x_min":65,"x_max":710,"o":"m 388 -14 q 214 32 287 -14 q 103 162 141 78 q 65 354 65 245 q 104 551 65 465 q 216 684 143 636 q 389 732 290 732 q 561 684 489 732 q 672 552 634 637 q 710 356 710 467 q 672 163 710 247 q 560 33 633 79 q 388 -14 488 -14 m 390 74 q 549 152 496 74 q 602 359 602 230 q 579 507 602 443 q 508 608 556 572 q 389 644 460 644 q 269 608 318 644 q 197 507 221 572 q 173 359 173 442 q 197 212 173 276 q 270 110 221 147 q 390 74 319 74 z "},"ộ":{"ha":774,"x_min":65,"x_max":710,"o":"m 388 -14 q 214 32 287 -14 q 103 162 141 78 q 65 354 65 245 q 104 551 65 465 q 216 684 143 636 q 389 732 290 732 q 561 684 489 732 q 672 552 634 637 q 710 356 710 467 q 672 163 710 247 q 560 33 633 79 q 388 -14 488 -14 m 390 74 q 549 152 496 74 q 602 359 602 230 q 579 507 602 443 q 508 608 556 572 q 389 644 460 644 q 269 608 318 644 q 197 507 221 572 q 173 359 173 442 q 197 212 173 276 q 270 110 221 147 q 390 74 319 74 m 390 947 l 284 856 l 180 856 l 351 1008 l 431 1008 l 599 856 l 488 856 l 390 947 z "},"ồ":{"ha":774,"x_min":65,"x_max":710,"o":"m 388 -14 q 214 32 287 -14 q 103 162 141 78 q 65 354 65 245 q 104 551 65 465 q 216 684 143 636 q 389 732 290 732 q 561 684 489 732 q 672 552 634 637 q 710 356 710 467 q 672 163 710 247 q 560 33 633 79 q 388 -14 488 -14 m 390 74 q 549 152 496 74 q 602 359 602 230 q 579 507 602 443 q 508 608 556 572 q 389 644 460 644 q 269 608 318 644 q 197 507 221 572 q 173 359 173 442 q 197 212 173 276 q 270 110 221 147 q 390 74 319 74 z "},"ổ":{"ha":774,"x_min":65,"x_max":710,"o":"m 388 -14 q 214 32 287 -14 q 103 162 141 78 q 65 354 65 245 q 104 551 65 465 q 216 684 143 636 q 389 732 290 732 q 561 684 489 732 q 672 552 634 637 q 710 356 710 467 q 672 163 710 247 q 560 33 633 79 q 388 -14 488 -14 m 390 74 q 549 152 496 74 q 602 359 602 230 q 579 507 602 443 q 508 608 556 572 q 389 644 460 644 q 269 608 318 644 q 197 507 221 572 q 173 359 173 442 q 197 212 173 276 q 270 110 221 147 q 390 74 319 74 z "},"ỗ":{"ha":774,"x_min":65,"x_max":710,"o":"m 388 -14 q 214 32 287 -14 q 103 162 141 78 q 65 354 65 245 q 104 551 65 465 q 216 684 143 636 q 389 732 290 732 q 561 684 489 732 q 672 552 634 637 q 710 356 710 467 q 672 163 710 247 q 560 33 633 79 q 388 -14 488 -14 m 390 74 q 549 152 496 74 q 602 359 602 230 q 579 507 602 443 q 508 608 556 572 q 389 644 460 644 q 269 608 318 644 q 197 507 221 572 q 173 359 173 442 q 197 212 173 276 q 270 110 221 147 q 390 74 319 74 z "},"ȍ":{"ha":774,"x_min":65,"x_max":710,"o":"m 388 -14 q 214 32 287 -14 q 103 162 141 78 q 65 354 65 245 q 104 551 65 465 q 216 684 143 636 q 389 732 290 732 q 561 684 489 732 q 672 552 634 637 q 710 356 710 467 q 672 163 710 247 q 560 33 633 79 q 388 -14 488 -14 m 390 74 q 549 152 496 74 q 602 359 602 230 q 579 507 602 443 q 508 608 556 572 q 389 644 460 644 q 269 608 318 644 q 197 507 221 572 q 173 359 173 442 q 197 212 173 276 q 270 110 221 147 q 390 74 319 74 m 345 828 l 308 781 l 102 949 l 161 1019 l 345 828 m 562 828 l 524 781 l 319 949 l 378 1019 l 562 828 z "},"ö":{"ha":774,"x_min":65,"x_max":710,"o":"m 388 -14 q 214 32 287 -14 q 103 162 141 78 q 65 354 65 245 q 104 551 65 465 q 216 684 143 636 q 389 732 290 732 q 561 684 489 732 q 672 552 634 637 q 710 356 710 467 q 672 163 710 247 q 560 33 633 79 q 388 -14 488 -14 m 390 74 q 549 152 496 74 q 602 359 602 230 q 579 507 602 443 q 508 608 556 572 q 389 644 460 644 q 269 608 318 644 q 197 507 221 572 q 173 359 173 442 q 197 212 173 276 q 270 110 221 147 q 390 74 319 74 m 220 993 l 338 993 l 338 874 l 220 874 l 220 993 m 440 993 l 558 993 l 558 874 l 440 874 l 440 993 z "},"ọ":{"ha":774,"x_min":65,"x_max":710,"o":"m 388 -14 q 214 32 287 -14 q 103 162 141 78 q 65 354 65 245 q 104 551 65 465 q 216 684 143 636 q 389 732 290 732 q 561 684 489 732 q 672 552 634 637 q 710 356 710 467 q 672 163 710 247 q 560 33 633 79 q 388 -14 488 -14 m 390 74 q 549 152 496 74 q 602 359 602 230 q 579 507 602 443 q 508 608 556 572 q 389 644 460 644 q 269 608 318 644 q 197 507 221 572 q 173 359 173 442 q 197 212 173 276 q 270 110 221 147 q 390 74 319 74 z "},"ò":{"ha":774,"x_min":65,"x_max":710,"o":"m 388 -14 q 214 32 287 -14 q 103 162 141 78 q 65 354 65 245 q 104 551 65 465 q 216 684 143 636 q 389 732 290 732 q 561 684 489 732 q 672 552 634 637 q 710 356 710 467 q 672 163 710 247 q 560 33 633 79 q 388 -14 488 -14 m 390 74 q 549 152 496 74 q 602 359 602 230 q 579 507 602 443 q 508 608 556 572 q 389 644 460 644 q 269 608 318 644 q 197 507 221 572 q 173 359 173 442 q 197 212 173 276 q 270 110 221 147 q 390 74 319 74 m 554 884 l 535 825 l 190 929 l 219 1017 l 554 884 z "},"ỏ":{"ha":774,"x_min":65,"x_max":710,"o":"m 388 -14 q 214 32 287 -14 q 103 162 141 78 q 65 354 65 245 q 104 551 65 465 q 216 684 143 636 q 389 732 290 732 q 561 684 489 732 q 672 552 634 637 q 710 356 710 467 q 672 163 710 247 q 560 33 633 79 q 388 -14 488 -14 m 390 74 q 549 152 496 74 q 602 359 602 230 q 579 507 602 443 q 508 608 556 572 q 389 644 460 644 q 269 608 318 644 q 197 507 221 572 q 173 359 173 442 q 197 212 173 276 q 270 110 221 147 q 390 74 319 74 m 331 965 q 390 985 360 985 q 433 963 419 985 q 441 938 441 950 q 428 901 441 919 q 392 869 415 883 l 427 815 q 489 870 467 839 q 510 935 510 901 q 489 1001 510 968 q 448 1038 473 1025 q 392 1051 422 1051 q 295 1019 345 1051 l 331 965 z "},"ơ":{"ha":924,"x_min":65,"x_max":863,"o":"m 863 691 q 823 535 862 585 q 695 485 783 486 q 710 356 710 427 q 672 163 710 247 q 560 33 633 79 q 388 -14 488 -14 q 214 32 287 -14 q 103 162 141 78 q 65 354 65 245 q 104 551 65 465 q 216 684 143 636 q 389 732 290 732 q 557 687 485 732 q 667 561 628 642 q 725 572 705 562 q 756 609 746 582 q 769 691 767 637 l 863 691 m 390 74 q 549 152 496 74 q 602 359 602 230 q 579 507 602 443 q 508 608 556 572 q 389 644 460 644 q 269 608 318 644 q 197 507 221 572 q 173 359 173 442 q 197 212 173 276 q 270 110 221 147 q 390 74 319 74 z "},"ớ":{"ha":924,"x_min":65,"x_max":863,"o":"m 227 825 l 208 884 l 544 1017 l 572 929 l 227 825 m 863 691 q 823 535 862 585 q 695 485 783 486 q 710 356 710 427 q 672 163 710 247 q 560 33 633 79 q 388 -14 488 -14 q 214 32 287 -14 q 103 162 141 78 q 65 354 65 245 q 104 551 65 465 q 216 684 143 636 q 389 732 290 732 q 557 687 485 732 q 667 561 628 642 q 725 572 705 562 q 756 609 746 582 q 769 691 767 637 l 863 691 m 390 74 q 549 152 496 74 q 602 359 602 230 q 579 507 602 443 q 508 608 556 572 q 389 644 460 644 q 269 608 318 644 q 197 507 221 572 q 173 359 173 442 q 197 212 173 276 q 270 110 221 147 q 390 74 319 74 z "},"ợ":{"ha":924,"x_min":65,"x_max":863,"o":"m 863 691 q 823 535 862 585 q 695 485 783 486 q 710 356 710 427 q 672 163 710 247 q 560 33 633 79 q 388 -14 488 -14 q 214 32 287 -14 q 103 162 141 78 q 65 354 65 245 q 104 551 65 465 q 216 684 143 636 q 389 732 290 732 q 557 687 485 732 q 667 561 628 642 q 725 572 705 562 q 756 609 746 582 q 769 691 767 637 l 863 691 m 390 74 q 549 152 496 74 q 602 359 602 230 q 579 507 602 443 q 508 608 556 572 q 389 644 460 644 q 269 608 318 644 q 197 507 221 572 q 173 359 173 442 q 197 212 173 276 q 270 110 221 147 q 390 74 319 74 m 329 -125 l 447 -125 l 447 -244 l 329 -244 l 329 -125 z "},"ờ":{"ha":924,"x_min":65,"x_max":863,"o":"m 535 825 l 190 929 l 219 1017 l 554 884 l 535 825 m 863 691 q 823 535 862 585 q 695 485 783 486 q 710 356 710 427 q 672 163 710 247 q 560 33 633 79 q 388 -14 488 -14 q 214 32 287 -14 q 103 162 141 78 q 65 354 65 245 q 104 551 65 465 q 216 684 143 636 q 389 732 290 732 q 557 687 485 732 q 667 561 628 642 q 725 572 705 562 q 756 609 746 582 q 769 691 767 637 l 863 691 m 390 74 q 549 152 496 74 q 602 359 602 230 q 579 507 602 443 q 508 608 556 572 q 389 644 460 644 q 269 608 318 644 q 197 507 221 572 q 173 359 173 442 q 197 212 173 276 q 270 110 221 147 q 390 74 319 74 z "},"ở":{"ha":924,"x_min":65,"x_max":863,"o":"m 433 963 q 390 985 419 985 q 331 965 360 985 l 295 1019 q 392 1051 345 1051 q 448 1038 422 1051 q 489 1001 473 1025 q 510 935 510 968 q 489 870 510 901 q 427 815 467 839 l 392 869 q 428 901 415 883 q 441 938 441 919 q 433 963 441 950 m 863 691 q 823 535 862 585 q 695 485 783 486 q 710 356 710 427 q 672 163 710 247 q 560 33 633 79 q 388 -14 488 -14 q 214 32 287 -14 q 103 162 141 78 q 65 354 65 245 q 104 551 65 465 q 216 684 143 636 q 389 732 290 732 q 557 687 485 732 q 667 561 628 642 q 725 572 705 562 q 756 609 746 582 q 769 691 767 637 l 863 691 m 390 74 q 549 152 496 74 q 602 359 602 230 q 579 507 602 443 q 508 608 556 572 q 389 644 460 644 q 269 608 318 644 q 197 507 221 572 q 173 359 173 442 q 197 212 173 276 q 270 110 221 147 q 390 74 319 74 z "},"ỡ":{"ha":924,"x_min":65,"x_max":863,"o":"m 308 925 q 270 920 287 925 q 244 908 254 915 q 213 888 233 902 l 192 948 q 243 984 219 972 q 302 997 267 997 q 345 992 324 997 q 394 977 366 987 q 442 964 424 968 q 479 959 460 959 q 526 968 506 959 q 572 995 547 977 l 593 928 q 543 900 570 911 q 478 890 517 890 q 433 894 453 890 q 385 908 413 899 q 343 921 360 917 q 308 925 327 925 m 863 691 q 823 535 862 585 q 695 485 783 486 q 710 356 710 427 q 672 163 710 247 q 560 33 633 79 q 388 -14 488 -14 q 214 32 287 -14 q 103 162 141 78 q 65 354 65 245 q 104 551 65 465 q 216 684 143 636 q 389 732 290 732 q 557 687 485 732 q 667 561 628 642 q 725 572 705 562 q 756 609 746 582 q 769 691 767 637 l 863 691 m 390 74 q 549 152 496 74 q 602 359 602 230 q 579 507 602 443 q 508 608 556 572 q 389 644 460 644 q 269 608 318 644 q 197 507 221 572 q 173 359 173 442 q 197 212 173 276 q 270 110 221 147 q 390 74 319 74 z "},"ő":{"ha":774,"x_min":65,"x_max":710,"o":"m 388 -14 q 214 32 287 -14 q 103 162 141 78 q 65 354 65 245 q 104 551 65 465 q 216 684 143 636 q 389 732 290 732 q 561 684 489 732 q 672 552 634 637 q 710 356 710 467 q 672 163 710 247 q 560 33 633 79 q 388 -14 488 -14 m 390 74 q 549 152 496 74 q 602 359 602 230 q 579 507 602 443 q 508 608 556 572 q 389 644 460 644 q 269 608 318 644 q 197 507 221 572 q 173 359 173 442 q 197 212 173 276 q 270 110 221 147 q 390 74 319 74 m 452 949 l 249 781 l 210 828 l 394 1019 l 452 949 m 670 949 l 465 780 l 428 828 l 610 1019 l 670 949 z "},"ȏ":{"ha":774,"x_min":65,"x_max":710,"o":"m 388 -14 q 214 32 287 -14 q 103 162 141 78 q 65 354 65 245 q 104 551 65 465 q 216 684 143 636 q 389 732 290 732 q 561 684 489 732 q 672 552 634 637 q 710 356 710 467 q 672 163 710 247 q 560 33 633 79 q 388 -14 488 -14 m 390 74 q 549 152 496 74 q 602 359 602 230 q 579 507 602 443 q 508 608 556 572 q 389 644 460 644 q 269 608 318 644 q 197 507 221 572 q 173 359 173 442 q 197 212 173 276 q 270 110 221 147 q 390 74 319 74 m 503 918 q 457 969 485 949 q 388 989 430 989 q 318 969 342 989 q 274 918 293 949 l 189 918 q 225 990 199 958 q 293 1042 251 1022 q 388 1061 335 1061 q 483 1041 441 1061 q 553 988 526 1020 q 591 918 581 955 l 503 918 z "},"ō":{"ha":774,"x_min":65,"x_max":710,"o":"m 388 -14 q 214 32 287 -14 q 103 162 141 78 q 65 354 65 245 q 104 551 65 465 q 216 684 143 636 q 389 732 290 732 q 561 684 489 732 q 672 552 634 637 q 710 356 710 467 q 672 163 710 247 q 560 33 633 79 q 388 -14 488 -14 m 390 74 q 549 152 496 74 q 602 359 602 230 q 579 507 602 443 q 508 608 556 572 q 389 644 460 644 q 269 608 318 644 q 197 507 221 572 q 173 359 173 442 q 197 212 173 276 q 270 110 221 147 q 390 74 319 74 m 587 905 l 192 905 l 192 985 l 587 985 l 587 905 z "},"ǫ":{"ha":774,"x_min":65,"x_max":710,"o":"m 487 -1 q 389 -56 418 -30 q 359 -116 359 -82 q 375 -156 359 -142 q 426 -169 391 -169 q 483 -161 456 -169 q 526 -144 509 -153 l 526 -205 q 473 -224 508 -216 q 401 -232 439 -232 q 301 -203 335 -232 q 267 -124 267 -174 q 286 -61 267 -89 q 350 -12 305 -34 q 196 45 260 -3 q 98 173 131 93 q 65 354 65 252 q 104 551 65 465 q 216 684 143 636 q 389 732 290 732 q 561 684 489 732 q 672 552 634 637 q 710 356 710 467 q 684 193 710 267 q 608 70 658 119 q 487 -1 558 20 m 173 359 q 197 212 173 276 q 270 110 221 147 q 390 74 319 74 q 549 152 496 74 q 602 359 602 230 q 579 507 602 443 q 508 608 556 572 q 389 644 460 644 q 269 608 318 644 q 197 507 221 572 q 173 359 173 442 z "},"ø":{"ha":804,"x_min":26,"x_max":774,"o":"m 670 571 q 718 356 718 481 q 680 163 718 247 q 568 33 641 79 q 396 -14 496 -14 q 265 10 324 -14 q 165 80 206 35 l 74 -8 l 26 44 l 123 138 q 72 354 72 227 q 111 551 72 465 q 224 684 151 636 q 397 732 298 732 q 530 706 471 732 q 631 630 589 679 l 726 723 l 774 672 l 670 571 m 181 359 q 203 215 181 278 l 560 561 q 397 644 503 644 q 277 608 326 644 q 205 507 228 572 q 181 359 181 442 m 610 359 q 591 494 610 435 l 238 151 q 305 94 265 114 q 398 74 346 74 q 557 152 503 74 q 610 359 610 230 z "},"ǿ":{"ha":804,"x_min":26,"x_max":774,"o":"m 670 571 q 718 356 718 481 q 680 163 718 247 q 568 33 641 79 q 396 -14 496 -14 q 265 10 324 -14 q 165 80 206 35 l 74 -8 l 26 44 l 123 138 q 72 354 72 227 q 111 551 72 465 q 224 684 151 636 q 397 732 298 732 q 530 706 471 732 q 631 630 589 679 l 726 723 l 774 672 l 670 571 m 181 359 q 203 215 181 278 l 560 561 q 397 644 503 644 q 277 608 326 644 q 205 507 228 572 q 181 359 181 442 m 610 359 q 591 494 610 435 l 238 151 q 305 94 265 114 q 398 74 346 74 q 557 152 503 74 q 610 359 610 230 m 584 929 l 239 825 l 219 884 l 556 1017 l 584 929 z "},"õ":{"ha":774,"x_min":65,"x_max":710,"o":"m 388 -14 q 214 32 287 -14 q 103 162 141 78 q 65 354 65 245 q 104 551 65 465 q 216 684 143 636 q 389 732 290 732 q 561 684 489 732 q 672 552 634 637 q 710 356 710 467 q 672 163 710 247 q 560 33 633 79 q 388 -14 488 -14 m 390 74 q 549 152 496 74 q 602 359 602 230 q 579 507 602 443 q 508 608 556 572 q 389 644 460 644 q 269 608 318 644 q 197 507 221 572 q 173 359 173 442 q 197 212 173 276 q 270 110 221 147 q 390 74 319 74 m 593 928 q 543 900 570 911 q 478 890 517 890 q 433 894 453 890 q 385 908 413 899 q 343 921 360 917 q 308 925 327 925 q 270 920 287 925 q 244 908 254 915 q 213 888 233 902 l 192 948 q 243 984 219 972 q 302 997 267 997 q 345 992 324 997 q 394 977 366 987 q 441 964 424 968 q 479 959 459 959 q 526 968 506 959 q 572 995 547 977 l 593 928 z "},"œ":{"ha":1362,"x_min":65,"x_max":1297,"o":"m 406 -14 q 227 32 304 -14 q 107 162 149 78 q 65 354 65 245 q 108 552 65 466 q 228 685 151 638 q 407 732 306 732 q 569 691 498 732 q 680 575 640 649 q 692 566 688 566 q 702 575 697 566 q 813 690 742 649 q 970 732 883 732 q 1144 685 1071 732 q 1258 548 1218 638 q 1297 336 1297 459 l 745 336 q 777 202 745 263 q 864 106 809 141 q 983 71 919 71 q 1205 194 1125 71 l 1281 154 q 1152 26 1226 67 q 974 -14 1078 -14 q 815 25 885 -14 q 701 135 744 65 q 690 146 696 146 q 676 132 683 146 q 564 24 633 63 q 406 -14 494 -14 m 975 651 q 858 621 910 651 q 777 535 806 590 q 749 409 748 480 l 1190 408 q 1163 529 1190 473 q 1087 618 1136 585 q 975 651 1038 651 m 408 69 q 530 104 478 69 q 609 204 581 139 q 636 358 636 269 q 608 513 636 447 q 528 614 580 578 q 407 649 476 649 q 285 614 337 649 q 204 513 233 578 q 176 358 176 447 q 204 205 176 269 q 285 105 233 140 q 408 69 338 69 z "},"p":{"ha":810,"x_min":111,"x_max":746,"o":"m 111 718 l 218 718 l 218 617 q 306 698 253 663 q 444 732 359 732 q 598 691 530 732 q 706 569 667 651 q 746 369 746 488 q 705 165 746 251 q 592 32 665 78 q 426 -14 519 -14 q 313 13 365 -14 q 219 98 262 40 l 219 -224 l 111 -224 l 111 718 m 410 72 q 529 107 476 72 q 611 208 581 142 q 641 365 641 274 q 610 520 641 457 q 529 614 580 583 q 417 645 478 645 q 317 619 363 645 q 245 552 272 592 q 219 474 219 513 l 219 182 q 307 101 258 131 q 410 72 355 72 z "},"þ":{"ha":810,"x_min":111,"x_max":746,"o":"m 218 617 q 270 672 247 650 q 340 713 294 693 q 447 732 385 732 q 601 691 533 732 q 707 569 668 651 q 746 369 746 488 q 707 164 746 251 q 597 32 668 78 q 433 -14 526 -14 q 325 5 374 -14 q 240 55 277 24 q 226 63 230 63 q 221 59 222 63 q 219 46 219 55 l 219 -224 l 111 -224 l 111 1004 l 218 1004 l 218 617 m 219 156 q 308 89 263 113 q 406 66 353 66 q 525 101 474 66 q 606 203 577 135 q 635 367 635 271 q 605 527 635 464 q 526 621 576 591 q 413 651 476 651 q 314 627 358 651 q 244 566 269 603 q 219 493 219 529 l 219 156 z "},"q":{"ha":810,"x_min":65,"x_max":699,"o":"m 591 -224 l 591 117 q 507 20 562 54 q 380 -14 453 -14 q 215 32 286 -14 q 104 164 143 78 q 65 369 65 251 q 104 569 65 488 q 212 691 144 651 q 365 732 280 732 q 469 714 424 732 q 536 676 514 695 q 593 624 559 658 l 593 718 l 699 718 l 699 -224 l 591 -224 m 404 69 q 508 100 465 69 q 570 179 550 131 q 591 281 591 228 l 591 462 q 566 552 591 509 q 497 622 541 595 q 396 649 452 649 q 285 618 335 649 q 206 523 235 587 q 176 367 176 460 q 205 208 176 276 q 286 105 234 141 q 404 69 338 69 z "},"r":{"ha":522,"x_min":111,"x_max":480,"o":"m 111 718 l 214 718 l 214 588 q 313 692 243 651 q 480 732 383 732 l 480 627 l 458 628 q 278 583 337 628 q 219 461 219 538 l 219 0 l 111 0 l 111 718 z "},"ŕ":{"ha":522,"x_min":107,"x_max":480,"o":"m 111 718 l 214 718 l 214 588 q 313 692 243 651 q 480 732 383 732 l 480 627 l 458 628 q 278 583 337 628 q 219 461 219 538 l 219 0 l 111 0 l 111 718 m 472 929 l 126 825 l 107 884 l 443 1017 l 472 929 z "},"ř":{"ha":522,"x_min":78,"x_max":499,"o":"m 111 718 l 214 718 l 214 588 q 313 692 243 651 q 480 732 383 732 l 480 627 l 458 628 q 278 583 337 628 q 219 461 219 538 l 219 0 l 111 0 l 111 718 m 499 1005 l 330 852 l 251 852 l 78 1005 l 183 1005 l 289 914 l 388 1005 l 499 1005 z "},"ŗ":{"ha":522,"x_min":78,"x_max":480,"o":"m 111 718 l 214 718 l 214 588 q 313 692 243 651 q 480 732 383 732 l 480 627 l 458 628 q 278 583 337 628 q 219 461 219 538 l 219 0 l 111 0 l 111 718 z "},"ȑ":{"ha":522,"x_min":1,"x_max":480,"o":"m 111 718 l 214 718 l 214 588 q 313 692 243 651 q 480 732 383 732 l 480 627 l 458 628 q 278 583 337 628 q 219 461 219 538 l 219 0 l 111 0 l 111 718 m 244 828 l 206 781 l 1 949 l 60 1019 l 244 828 m 460 828 l 422 781 l 217 949 l 276 1019 l 460 828 z "},"ṛ":{"ha":522,"x_min":109,"x_max":480,"o":"m 111 718 l 214 718 l 214 588 q 313 692 243 651 q 480 732 383 732 l 480 627 l 458 628 q 278 583 337 628 q 219 461 219 538 l 219 0 l 111 0 l 111 718 z "},"ȓ":{"ha":522,"x_min":88,"x_max":490,"o":"m 111 718 l 214 718 l 214 588 q 313 692 243 651 q 480 732 383 732 l 480 627 l 458 628 q 278 583 337 628 q 219 461 219 538 l 219 0 l 111 0 l 111 718 m 403 918 q 357 969 384 949 q 287 989 329 989 q 217 969 242 989 q 174 918 192 949 l 88 918 q 124 990 98 958 q 192 1042 151 1022 q 287 1061 234 1061 q 383 1041 340 1061 q 452 988 425 1020 q 490 918 480 955 l 403 918 z "},"s":{"ha":715,"x_min":76,"x_max":638,"o":"m 369 -14 q 230 11 292 -14 q 126 85 167 35 q 76 204 86 134 l 180 204 q 244 105 193 138 q 369 72 295 72 q 493 103 447 72 q 539 190 539 135 q 433 298 539 270 l 286 338 q 149 404 196 361 q 101 522 102 447 q 135 636 101 589 q 230 708 169 683 q 369 732 290 732 q 500 708 443 732 q 589 639 557 684 q 624 530 622 593 l 524 530 q 475 615 516 584 q 367 646 433 646 q 252 618 301 646 q 203 527 203 590 q 233 464 203 487 q 326 426 263 441 l 476 386 q 600 311 563 363 q 638 197 638 259 q 602 82 638 130 q 505 10 567 35 q 369 -14 444 -14 z "},"ś":{"ha":715,"x_min":76,"x_max":638,"o":"m 369 -14 q 230 11 292 -14 q 126 85 167 35 q 76 204 86 134 l 180 204 q 244 105 193 138 q 369 72 295 72 q 493 103 447 72 q 539 190 539 135 q 433 298 539 270 l 286 338 q 149 404 196 361 q 101 522 102 447 q 135 636 101 589 q 230 708 169 683 q 369 732 290 732 q 500 708 443 732 q 589 639 557 684 q 624 530 622 593 l 524 530 q 475 615 516 584 q 367 646 433 646 q 252 618 301 646 q 203 527 203 590 q 233 464 203 487 q 326 426 263 441 l 476 386 q 600 311 563 363 q 638 197 638 259 q 602 82 638 130 q 505 10 567 35 q 369 -14 444 -14 m 530 929 l 185 825 l 165 884 l 501 1017 l 530 929 z "},"š":{"ha":715,"x_min":76,"x_max":638,"o":"m 369 -14 q 230 11 292 -14 q 126 85 167 35 q 76 204 86 134 l 180 204 q 244 105 193 138 q 369 72 295 72 q 493 103 447 72 q 539 190 539 135 q 433 298 539 270 l 286 338 q 149 404 196 361 q 101 522 102 447 q 135 636 101 589 q 230 708 169 683 q 369 732 290 732 q 500 708 443 732 q 589 639 557 684 q 624 530 622 593 l 524 530 q 475 615 516 584 q 367 646 433 646 q 252 618 301 646 q 203 527 203 590 q 233 464 203 487 q 326 426 263 441 l 476 386 q 600 311 563 363 q 638 197 638 259 q 602 82 638 130 q 505 10 567 35 q 369 -14 444 -14 m 557 1005 l 388 852 l 309 852 l 136 1005 l 242 1005 l 347 914 l 446 1005 l 557 1005 z "},"ş":{"ha":715,"x_min":76,"x_max":638,"o":"m 638 197 q 604 85 638 132 q 512 13 570 38 q 382 -14 454 -12 l 357 -78 q 449 -110 420 -81 q 477 -178 477 -139 q 435 -256 477 -228 q 331 -283 393 -283 q 206 -249 258 -283 l 226 -200 q 268 -224 246 -215 q 318 -232 290 -232 q 375 -218 356 -232 q 394 -179 394 -205 q 368 -133 394 -149 q 285 -117 342 -118 q 277 -115 279 -117 q 278 -108 276 -113 l 320 -11 q 155 55 221 0 q 76 204 89 110 l 180 204 q 244 105 193 138 q 369 72 295 72 q 493 103 447 72 q 539 190 539 135 q 433 298 539 270 l 286 338 q 149 404 196 361 q 101 522 102 447 q 135 636 101 589 q 230 708 169 683 q 369 732 290 732 q 500 708 443 732 q 589 639 557 684 q 624 530 622 593 l 524 530 q 475 615 516 584 q 367 646 433 646 q 252 618 301 646 q 203 527 203 590 q 233 464 203 487 q 326 426 263 441 l 476 386 q 600 311 563 363 q 638 197 638 259 z "},"ŝ":{"ha":715,"x_min":76,"x_max":638,"o":"m 369 -14 q 230 11 292 -14 q 126 85 167 35 q 76 204 86 134 l 180 204 q 244 105 193 138 q 369 72 295 72 q 493 103 447 72 q 539 190 539 135 q 433 298 539 270 l 286 338 q 149 404 196 361 q 101 522 102 447 q 135 636 101 589 q 230 708 169 683 q 369 732 290 732 q 500 708 443 732 q 589 639 557 684 q 624 530 622 593 l 524 530 q 475 615 516 584 q 367 646 433 646 q 252 618 301 646 q 203 527 203 590 q 233 464 203 487 q 326 426 263 441 l 476 386 q 600 311 563 363 q 638 197 638 259 q 602 82 638 130 q 505 10 567 35 q 369 -14 444 -14 m 347 947 l 242 856 l 138 856 l 309 1008 l 388 1008 l 557 856 l 446 856 l 347 947 z "},"ș":{"ha":715,"x_min":76,"x_max":638,"o":"m 369 -14 q 230 11 292 -14 q 126 85 167 35 q 76 204 86 134 l 180 204 q 244 105 193 138 q 369 72 295 72 q 493 103 447 72 q 539 190 539 135 q 433 298 539 270 l 286 338 q 149 404 196 361 q 101 522 102 447 q 135 636 101 589 q 230 708 169 683 q 369 732 290 732 q 500 708 443 732 q 589 639 557 684 q 624 530 622 593 l 524 530 q 475 615 516 584 q 367 646 433 646 q 252 618 301 646 q 203 527 203 590 q 233 464 203 487 q 326 426 263 441 l 476 386 q 600 311 563 363 q 638 197 638 259 q 602 82 638 130 q 505 10 567 35 q 369 -14 444 -14 z "},"ṣ":{"ha":715,"x_min":76,"x_max":638,"o":"m 369 -14 q 230 11 292 -14 q 126 85 167 35 q 76 204 86 134 l 180 204 q 244 105 193 138 q 369 72 295 72 q 493 103 447 72 q 539 190 539 135 q 433 298 539 270 l 286 338 q 149 404 196 361 q 101 522 102 447 q 135 636 101 589 q 230 708 169 683 q 369 732 290 732 q 500 708 443 732 q 589 639 557 684 q 624 530 622 593 l 524 530 q 475 615 516 584 q 367 646 433 646 q 252 618 301 646 q 203 527 203 590 q 233 464 203 487 q 326 426 263 441 l 476 386 q 600 311 563 363 q 638 197 638 259 q 602 82 638 130 q 505 10 567 35 q 369 -14 444 -14 z "},"ß":{"ha":842,"x_min":42,"x_max":765,"o":"m 440 1004 q 573 978 521 1004 q 650 910 626 952 q 674 815 674 867 q 653 732 674 765 q 600 677 633 699 q 511 628 567 656 q 458 598 474 608 q 434 576 442 588 q 426 546 426 564 q 434 518 426 528 q 458 500 442 508 q 509 482 474 493 l 526 476 q 646 423 598 449 q 730 348 694 397 q 765 222 765 298 q 730 94 765 147 q 634 14 694 41 q 497 -14 573 -14 q 393 -1 446 -14 q 306 35 341 13 l 348 110 q 415 77 384 88 q 488 67 446 67 q 616 105 569 67 q 663 211 663 142 q 640 291 663 260 q 580 339 616 322 q 484 377 544 356 q 408 409 438 393 q 357 454 378 425 q 336 528 336 483 q 365 611 336 577 q 458 681 393 645 l 474 691 q 526 725 507 710 q 558 762 544 740 q 571 815 571 784 q 534 894 571 865 q 430 924 497 924 q 295 873 345 924 q 244 725 244 822 l 244 0 l 138 0 l 138 626 l 42 626 l 42 707 l 136 707 q 173 862 138 795 q 276 967 208 929 q 440 1004 344 1004 z "},"t":{"ha":508,"x_min":47,"x_max":442,"o":"m 274 637 l 274 178 q 283 117 274 138 q 312 90 292 97 q 368 83 331 83 l 442 83 l 442 8 q 341 -3 413 -3 q 234 16 273 -3 q 180 72 196 35 q 164 170 164 110 l 164 637 l 47 637 l 47 718 l 166 718 l 187 925 l 274 925 l 274 719 l 437 719 l 437 637 l 274 637 z "},"ŧ":{"ha":517,"x_min":57,"x_max":452,"o":"m 452 83 l 452 8 q 351 -3 422 -3 q 244 16 283 -3 q 190 72 206 35 q 174 170 174 110 l 174 363 l 65 363 l 65 435 l 174 435 l 174 637 l 57 637 l 57 718 l 176 718 l 197 925 l 283 925 l 283 719 l 447 719 l 447 637 l 283 637 l 283 435 l 422 435 l 422 363 l 284 363 l 284 178 q 293 117 284 138 q 322 90 302 97 q 378 83 341 83 l 452 83 z "},"ť":{"ha":508,"x_min":47,"x_max":515,"o":"m 274 637 l 274 178 q 283 117 274 138 q 312 90 292 97 q 368 83 331 83 l 442 83 l 442 8 q 341 -3 413 -3 q 234 16 273 -3 q 180 72 196 35 q 164 170 164 110 l 164 637 l 47 637 l 47 718 l 166 718 l 187 925 l 274 925 l 274 719 l 437 719 l 437 637 l 274 637 m 452 907 l 417 914 l 417 1043 l 515 1043 l 515 908 l 461 783 l 401 783 l 452 907 z "},"ţ":{"ha":508,"x_min":47,"x_max":442,"o":"m 327 -3 l 299 -74 q 390 -107 362 -78 q 419 -174 419 -135 q 377 -252 419 -224 q 272 -280 335 -280 q 148 -246 199 -280 l 168 -197 q 209 -220 188 -212 q 260 -228 231 -228 q 317 -215 298 -228 q 336 -176 336 -201 q 310 -130 336 -145 q 227 -113 284 -115 q 219 -111 221 -113 q 219 -105 217 -110 l 267 5 q 187 58 210 19 q 164 170 164 98 l 164 637 l 47 637 l 47 718 l 166 718 l 187 925 l 274 925 l 274 719 l 437 719 l 437 637 l 274 637 l 274 178 q 283 117 274 138 q 312 90 292 97 q 368 83 331 83 l 442 83 l 442 8 q 341 -3 413 -3 l 327 -3 z "},"ț":{"ha":508,"x_min":47,"x_max":442,"o":"m 274 637 l 274 178 q 283 117 274 138 q 312 90 292 97 q 368 83 331 83 l 442 83 l 442 8 q 341 -3 413 -3 q 234 16 273 -3 q 180 72 196 35 q 164 170 164 110 l 164 637 l 47 637 l 47 718 l 166 718 l 187 925 l 274 925 l 274 719 l 437 719 l 437 637 l 274 637 z "},"ṭ":{"ha":508,"x_min":47,"x_max":442,"o":"m 274 637 l 274 178 q 283 117 274 138 q 312 90 292 97 q 368 83 331 83 l 442 83 l 442 8 q 341 -3 413 -3 q 234 16 273 -3 q 180 72 196 35 q 164 170 164 110 l 164 637 l 47 637 l 47 718 l 166 718 l 187 925 l 274 925 l 274 719 l 437 719 l 437 637 l 274 637 z "},"u":{"ha":808,"x_min":111,"x_max":697,"o":"m 383 -13 q 255 12 317 -13 q 152 93 193 38 q 111 235 111 149 l 111 720 l 219 720 l 219 244 q 247 145 219 183 q 315 91 274 108 q 400 74 356 74 q 493 94 450 74 q 561 154 535 114 q 588 252 588 194 l 588 720 l 697 720 l 695 1 l 608 1 l 597 137 q 552 55 585 89 q 476 4 520 21 q 383 -13 432 -13 z "},"ú":{"ha":808,"x_min":111,"x_max":697,"o":"m 383 -13 q 255 12 317 -13 q 152 93 193 38 q 111 235 111 149 l 111 720 l 219 720 l 219 244 q 247 145 219 183 q 315 91 274 108 q 400 74 356 74 q 493 94 450 74 q 561 154 535 114 q 588 252 588 194 l 588 720 l 697 720 l 695 1 l 608 1 l 597 137 q 552 55 585 89 q 476 4 520 21 q 383 -13 432 -13 m 585 929 l 240 825 l 221 884 l 557 1017 l 585 929 z "},"ŭ":{"ha":808,"x_min":111,"x_max":697,"o":"m 383 -13 q 255 12 317 -13 q 152 93 193 38 q 111 235 111 149 l 111 720 l 219 720 l 219 244 q 247 145 219 183 q 315 91 274 108 q 400 74 356 74 q 493 94 450 74 q 561 154 535 114 q 588 252 588 194 l 588 720 l 697 720 l 695 1 l 608 1 l 597 137 q 552 55 585 89 q 476 4 520 21 q 383 -13 432 -13 m 610 1002 q 572 933 599 965 q 502 880 545 900 q 406 859 460 859 q 312 878 353 859 q 244 930 270 898 q 208 1002 217 963 l 293 1002 q 336 951 312 972 q 406 931 361 931 q 522 1002 480 931 l 610 1002 z "},"û":{"ha":808,"x_min":111,"x_max":697,"o":"m 383 -13 q 255 12 317 -13 q 152 93 193 38 q 111 235 111 149 l 111 720 l 219 720 l 219 244 q 247 145 219 183 q 315 91 274 108 q 400 74 356 74 q 493 94 450 74 q 561 154 535 114 q 588 252 588 194 l 588 720 l 697 720 l 695 1 l 608 1 l 597 137 q 552 55 585 89 q 476 4 520 21 q 383 -13 432 -13 m 403 947 l 297 856 l 193 856 l 365 1008 l 444 1008 l 613 856 l 501 856 l 403 947 z "},"ȕ":{"ha":808,"x_min":111,"x_max":697,"o":"m 383 -13 q 255 12 317 -13 q 152 93 193 38 q 111 235 111 149 l 111 720 l 219 720 l 219 244 q 247 145 219 183 q 315 91 274 108 q 400 74 356 74 q 493 94 450 74 q 561 154 535 114 q 588 252 588 194 l 588 720 l 697 720 l 695 1 l 608 1 l 597 137 q 552 55 585 89 q 476 4 520 21 q 383 -13 432 -13 m 358 828 l 321 781 l 115 949 l 174 1019 l 358 828 m 575 828 l 537 781 l 332 949 l 391 1019 l 575 828 z "},"ü":{"ha":808,"x_min":111,"x_max":697,"o":"m 383 -13 q 255 12 317 -13 q 152 93 193 38 q 111 235 111 149 l 111 720 l 219 720 l 219 244 q 247 145 219 183 q 315 91 274 108 q 400 74 356 74 q 493 94 450 74 q 561 154 535 114 q 588 252 588 194 l 588 720 l 697 720 l 695 1 l 608 1 l 597 137 q 552 55 585 89 q 476 4 520 21 q 383 -13 432 -13 m 233 993 l 351 993 l 351 874 l 233 874 l 233 993 m 453 993 l 571 993 l 571 874 l 453 874 l 453 993 z "},"ụ":{"ha":808,"x_min":111,"x_max":697,"o":"m 383 -13 q 255 12 317 -13 q 152 93 193 38 q 111 235 111 149 l 111 720 l 219 720 l 219 244 q 247 145 219 183 q 315 91 274 108 q 400 74 356 74 q 493 94 450 74 q 561 154 535 114 q 588 252 588 194 l 588 720 l 697 720 l 695 1 l 608 1 l 597 137 q 552 55 585 89 q 476 4 520 21 q 383 -13 432 -13 z "},"ù":{"ha":808,"x_min":111,"x_max":697,"o":"m 383 -13 q 255 12 317 -13 q 152 93 193 38 q 111 235 111 149 l 111 720 l 219 720 l 219 244 q 247 145 219 183 q 315 91 274 108 q 400 74 356 74 q 493 94 450 74 q 561 154 535 114 q 588 252 588 194 l 588 720 l 697 720 l 695 1 l 608 1 l 597 137 q 552 55 585 89 q 476 4 520 21 q 383 -13 432 -13 m 567 884 l 548 825 l 203 929 l 232 1017 l 567 884 z "},"ủ":{"ha":808,"x_min":111,"x_max":697,"o":"m 383 -13 q 255 12 317 -13 q 152 93 193 38 q 111 235 111 149 l 111 720 l 219 720 l 219 244 q 247 145 219 183 q 315 91 274 108 q 400 74 356 74 q 493 94 450 74 q 561 154 535 114 q 588 252 588 194 l 588 720 l 697 720 l 695 1 l 608 1 l 597 137 q 552 55 585 89 q 476 4 520 21 q 383 -13 432 -13 m 344 965 q 403 985 374 985 q 447 963 433 985 q 454 938 454 950 q 441 901 454 919 q 405 869 428 883 l 440 815 q 502 870 481 839 q 524 935 524 901 q 502 1001 524 968 q 461 1038 486 1025 q 405 1051 435 1051 q 308 1019 358 1051 l 344 965 z "},"ư":{"ha":957,"x_min":111,"x_max":882,"o":"m 882 773 q 838 612 881 662 q 697 567 794 563 l 695 1 l 608 1 l 597 137 q 552 55 585 89 q 476 4 520 21 q 383 -13 432 -13 q 255 12 317 -13 q 152 93 193 38 q 111 235 111 149 l 111 720 l 219 720 l 219 244 q 247 145 219 183 q 315 91 274 108 q 400 74 356 74 q 493 94 450 74 q 561 154 535 114 q 588 252 588 194 l 588 720 l 697 720 l 697 643 q 748 655 730 644 q 776 693 767 666 q 788 773 786 721 l 882 773 z "},"ứ":{"ha":957,"x_min":111,"x_max":882,"o":"m 240 825 l 221 884 l 557 1017 l 585 929 l 240 825 m 882 773 q 838 612 881 662 q 697 567 794 563 l 695 1 l 608 1 l 597 137 q 552 55 585 89 q 476 4 520 21 q 383 -13 432 -13 q 255 12 317 -13 q 152 93 193 38 q 111 235 111 149 l 111 720 l 219 720 l 219 244 q 247 145 219 183 q 315 91 274 108 q 400 74 356 74 q 493 94 450 74 q 561 154 535 114 q 588 252 588 194 l 588 720 l 697 720 l 697 643 q 748 655 730 644 q 776 693 767 666 q 788 773 786 721 l 882 773 z "},"ự":{"ha":957,"x_min":111,"x_max":882,"o":"m 882 773 q 838 612 881 662 q 697 567 794 563 l 695 1 l 608 1 l 597 137 q 552 55 585 89 q 476 4 520 21 q 383 -13 432 -13 q 255 12 317 -13 q 152 93 193 38 q 111 235 111 149 l 111 720 l 219 720 l 219 244 q 247 145 219 183 q 315 91 274 108 q 400 74 356 74 q 493 94 450 74 q 561 154 535 114 q 588 252 588 194 l 588 720 l 697 720 l 697 643 q 748 655 730 644 q 776 693 767 666 q 788 773 786 721 l 882 773 m 343 -125 l 461 -125 l 461 -244 l 343 -244 l 343 -125 z "},"ừ":{"ha":957,"x_min":111,"x_max":882,"o":"m 548 825 l 203 929 l 232 1017 l 567 884 l 548 825 m 882 773 q 838 612 881 662 q 697 567 794 563 l 695 1 l 608 1 l 597 137 q 552 55 585 89 q 476 4 520 21 q 383 -13 432 -13 q 255 12 317 -13 q 152 93 193 38 q 111 235 111 149 l 111 720 l 219 720 l 219 244 q 247 145 219 183 q 315 91 274 108 q 400 74 356 74 q 493 94 450 74 q 561 154 535 114 q 588 252 588 194 l 588 720 l 697 720 l 697 643 q 748 655 730 644 q 776 693 767 666 q 788 773 786 721 l 882 773 z "},"ử":{"ha":957,"x_min":111,"x_max":882,"o":"m 447 963 q 403 985 433 985 q 344 965 374 985 l 308 1019 q 405 1051 358 1051 q 461 1038 435 1051 q 502 1001 486 1025 q 524 935 524 968 q 502 870 524 901 q 440 815 481 839 l 405 869 q 441 901 428 883 q 454 938 454 919 q 447 963 454 950 m 882 773 q 838 612 881 662 q 697 567 794 563 l 695 1 l 608 1 l 597 137 q 552 55 585 89 q 476 4 520 21 q 383 -13 432 -13 q 255 12 317 -13 q 152 93 193 38 q 111 235 111 149 l 111 720 l 219 720 l 219 244 q 247 145 219 183 q 315 91 274 108 q 400 74 356 74 q 493 94 450 74 q 561 154 535 114 q 588 252 588 194 l 588 720 l 697 720 l 697 643 q 748 655 730 644 q 776 693 767 666 q 788 773 786 721 l 882 773 z "},"ữ":{"ha":957,"x_min":111,"x_max":882,"o":"m 321 925 q 284 920 300 925 q 257 908 267 915 q 226 888 247 902 l 205 948 q 256 984 232 972 q 315 997 281 997 q 358 992 338 997 q 407 977 379 987 q 455 964 437 968 q 492 959 473 959 q 540 968 519 959 q 585 995 560 977 l 606 928 q 557 900 583 911 q 492 890 530 890 q 446 894 467 890 q 398 908 426 899 q 357 921 373 917 q 321 925 340 925 m 882 773 q 838 612 881 662 q 697 567 794 563 l 695 1 l 608 1 l 597 137 q 552 55 585 89 q 476 4 520 21 q 383 -13 432 -13 q 255 12 317 -13 q 152 93 193 38 q 111 235 111 149 l 111 720 l 219 720 l 219 244 q 247 145 219 183 q 315 91 274 108 q 400 74 356 74 q 493 94 450 74 q 561 154 535 114 q 588 252 588 194 l 588 720 l 697 720 l 697 643 q 748 655 730 644 q 776 693 767 666 q 788 773 786 721 l 882 773 z "},"ű":{"ha":808,"x_min":111,"x_max":697,"o":"m 383 -13 q 255 12 317 -13 q 152 93 193 38 q 111 235 111 149 l 111 720 l 219 720 l 219 244 q 247 145 219 183 q 315 91 274 108 q 400 74 356 74 q 493 94 450 74 q 561 154 535 114 q 588 252 588 194 l 588 720 l 697 720 l 695 1 l 608 1 l 597 137 q 552 55 585 89 q 476 4 520 21 q 383 -13 432 -13 m 465 949 l 262 781 l 223 828 l 407 1019 l 465 949 m 683 949 l 478 780 l 441 828 l 624 1019 l 683 949 z "},"ȗ":{"ha":808,"x_min":111,"x_max":697,"o":"m 383 -13 q 255 12 317 -13 q 152 93 193 38 q 111 235 111 149 l 111 720 l 219 720 l 219 244 q 247 145 219 183 q 315 91 274 108 q 400 74 356 74 q 493 94 450 74 q 561 154 535 114 q 588 252 588 194 l 588 720 l 697 720 l 695 1 l 608 1 l 597 137 q 552 55 585 89 q 476 4 520 21 q 383 -13 432 -13 m 517 918 q 470 969 498 949 q 401 989 443 989 q 331 969 356 989 q 288 918 306 949 l 202 918 q 238 990 212 958 q 306 1042 265 1022 q 401 1061 348 1061 q 497 1041 454 1061 q 566 988 539 1020 q 604 918 594 955 l 517 918 z "},"ū":{"ha":808,"x_min":111,"x_max":697,"o":"m 383 -13 q 255 12 317 -13 q 152 93 193 38 q 111 235 111 149 l 111 720 l 219 720 l 219 244 q 247 145 219 183 q 315 91 274 108 q 400 74 356 74 q 493 94 450 74 q 561 154 535 114 q 588 252 588 194 l 588 720 l 697 720 l 695 1 l 608 1 l 597 137 q 552 55 585 89 q 476 4 520 21 q 383 -13 432 -13 m 600 905 l 206 905 l 206 985 l 600 985 l 600 905 z "},"ų":{"ha":808,"x_min":111,"x_max":723,"o":"m 624 -168 q 680 -160 653 -168 q 723 -144 706 -153 l 723 -204 q 670 -223 705 -215 q 599 -231 636 -231 q 499 -202 533 -231 q 465 -123 465 -174 q 497 -46 465 -78 q 607 12 528 -13 l 597 137 q 552 55 585 89 q 476 4 520 21 q 383 -13 432 -13 q 255 12 317 -13 q 152 93 193 38 q 111 235 111 149 l 111 720 l 219 720 l 219 244 q 247 145 219 183 q 315 91 274 108 q 400 74 356 74 q 493 94 450 74 q 561 154 535 114 q 588 252 588 194 l 588 720 l 697 720 l 695 1 l 686 1 q 586 -55 617 -28 q 556 -115 556 -81 q 572 -155 556 -142 q 624 -168 588 -168 z "},"ů":{"ha":808,"x_min":111,"x_max":697,"o":"m 383 -13 q 255 12 317 -13 q 152 93 193 38 q 111 235 111 149 l 111 720 l 219 720 l 219 244 q 247 145 219 183 q 315 91 274 108 q 400 74 356 74 q 493 94 450 74 q 561 154 535 114 q 588 252 588 194 l 588 720 l 697 720 l 695 1 l 608 1 l 597 137 q 552 55 585 89 q 476 4 520 21 q 383 -13 432 -13 m 545 946 q 526 874 545 906 q 475 824 508 842 q 403 805 442 805 q 332 824 365 805 q 281 876 300 843 q 263 949 263 909 q 282 1017 263 985 q 333 1066 301 1048 q 403 1085 365 1085 q 475 1066 442 1085 q 526 1016 508 1048 q 545 946 545 984 m 477 945 q 456 1000 477 978 q 402 1021 434 1021 q 348 999 371 1021 q 326 945 326 978 q 336 907 326 925 q 365 879 347 890 q 402 868 383 868 q 455 891 433 868 q 477 945 477 914 z "},"ũ":{"ha":808,"x_min":111,"x_max":697,"o":"m 383 -13 q 255 12 317 -13 q 152 93 193 38 q 111 235 111 149 l 111 720 l 219 720 l 219 244 q 247 145 219 183 q 315 91 274 108 q 400 74 356 74 q 493 94 450 74 q 561 154 535 114 q 588 252 588 194 l 588 720 l 697 720 l 695 1 l 608 1 l 597 137 q 552 55 585 89 q 476 4 520 21 q 383 -13 432 -13 m 606 928 q 557 900 583 911 q 492 890 530 890 q 446 894 467 890 q 398 908 426 899 q 357 921 373 917 q 321 925 340 925 q 284 920 300 925 q 257 908 267 915 q 226 888 247 902 l 205 948 q 256 984 232 972 q 315 997 281 997 q 358 992 338 997 q 407 977 379 987 q 455 964 437 968 q 492 959 472 959 q 540 968 519 959 q 585 995 560 977 l 606 928 z "},"v":{"ha":708,"x_min":44,"x_max":664,"o":"m 409 0 l 300 0 l 44 718 l 147 718 l 347 134 l 360 134 l 563 718 l 664 718 l 409 0 z "},"w":{"ha":1085,"x_min":44,"x_max":1042,"o":"m 830 0 l 713 0 l 542 556 l 380 0 l 263 0 l 44 718 l 146 718 l 318 138 l 331 138 l 501 718 l 585 718 l 763 139 l 775 139 l 940 718 l 1042 718 l 830 0 z "},"ẃ":{"ha":1085,"x_min":44,"x_max":1042,"o":"m 830 0 l 713 0 l 542 556 l 380 0 l 263 0 l 44 718 l 146 718 l 318 138 l 331 138 l 501 718 l 585 718 l 763 139 l 775 139 l 940 718 l 1042 718 l 830 0 m 731 929 l 385 825 l 366 884 l 702 1017 l 731 929 z "},"ŵ":{"ha":1085,"x_min":44,"x_max":1042,"o":"m 830 0 l 713 0 l 542 556 l 380 0 l 263 0 l 44 718 l 146 718 l 318 138 l 331 138 l 501 718 l 585 718 l 763 139 l 775 139 l 940 718 l 1042 718 l 830 0 m 548 947 l 442 856 l 338 856 l 510 1008 l 589 1008 l 758 856 l 647 856 l 548 947 z "},"ẅ":{"ha":1085,"x_min":44,"x_max":1042,"o":"m 830 0 l 713 0 l 542 556 l 380 0 l 263 0 l 44 718 l 146 718 l 318 138 l 331 138 l 501 718 l 585 718 l 763 139 l 775 139 l 940 718 l 1042 718 l 830 0 m 378 993 l 496 993 l 496 874 l 378 874 l 378 993 m 598 993 l 716 993 l 716 874 l 598 874 l 598 993 z "},"ẁ":{"ha":1085,"x_min":44,"x_max":1042,"o":"m 830 0 l 713 0 l 542 556 l 380 0 l 263 0 l 44 718 l 146 718 l 318 138 l 331 138 l 501 718 l 585 718 l 763 139 l 775 139 l 940 718 l 1042 718 l 830 0 m 713 884 l 693 825 l 348 929 l 377 1017 l 713 884 z "},"x":{"ha":775,"x_min":49,"x_max":726,"o":"m 606 0 l 388 294 l 169 0 l 49 0 l 326 373 l 71 718 l 191 718 l 388 452 l 585 718 l 706 718 l 449 373 l 726 0 l 606 0 z "},"y":{"ha":746,"x_min":44,"x_max":703,"o":"m 178 -229 q 113 -225 140 -229 q 74 -213 86 -220 l 74 -142 l 149 -144 q 249 -123 217 -146 q 296 -62 281 -100 l 324 14 l 44 718 l 153 718 l 376 140 l 597 718 l 703 718 l 397 -68 q 308 -193 361 -157 q 178 -229 254 -229 z "},"ý":{"ha":746,"x_min":44,"x_max":703,"o":"m 178 -229 q 113 -225 140 -229 q 74 -213 86 -220 l 74 -142 l 149 -144 q 249 -123 217 -146 q 296 -62 281 -100 l 324 14 l 44 718 l 153 718 l 376 140 l 597 718 l 703 718 l 397 -68 q 308 -193 361 -157 q 178 -229 254 -229 m 566 929 l 221 825 l 201 884 l 538 1017 l 566 929 z "},"ŷ":{"ha":746,"x_min":44,"x_max":703,"o":"m 178 -229 q 113 -225 140 -229 q 74 -213 86 -220 l 74 -142 l 149 -144 q 249 -123 217 -146 q 296 -62 281 -100 l 324 14 l 44 718 l 153 718 l 376 140 l 597 718 l 703 718 l 397 -68 q 308 -193 361 -157 q 178 -229 254 -229 m 383 947 l 278 856 l 174 856 l 345 1008 l 424 1008 l 593 856 l 482 856 l 383 947 z "},"ÿ":{"ha":746,"x_min":44,"x_max":703,"o":"m 178 -229 q 113 -225 140 -229 q 74 -213 86 -220 l 74 -142 l 149 -144 q 249 -123 217 -146 q 296 -62 281 -100 l 324 14 l 44 718 l 153 718 l 376 140 l 597 718 l 703 718 l 397 -68 q 308 -193 361 -157 q 178 -229 254 -229 m 214 993 l 331 993 l 331 874 l 214 874 l 214 993 m 433 993 l 551 993 l 551 874 l 433 874 l 433 993 z "},"ỵ":{"ha":746,"x_min":44,"x_max":703,"o":"m 178 -229 q 113 -225 140 -229 q 74 -213 86 -220 l 74 -142 l 149 -144 q 249 -123 217 -146 q 296 -62 281 -100 l 324 14 l 44 718 l 153 718 l 376 140 l 597 718 l 703 718 l 397 -68 q 308 -193 361 -157 q 178 -229 254 -229 z "},"ỳ":{"ha":746,"x_min":44,"x_max":703,"o":"m 178 -229 q 113 -225 140 -229 q 74 -213 86 -220 l 74 -142 l 149 -144 q 249 -123 217 -146 q 296 -62 281 -100 l 324 14 l 44 718 l 153 718 l 376 140 l 597 718 l 703 718 l 397 -68 q 308 -193 361 -157 q 178 -229 254 -229 m 548 884 l 528 825 l 183 929 l 213 1017 l 548 884 z "},"ỷ":{"ha":746,"x_min":44,"x_max":703,"o":"m 178 -229 q 113 -225 140 -229 q 74 -213 86 -220 l 74 -142 l 149 -144 q 249 -123 217 -146 q 296 -62 281 -100 l 324 14 l 44 718 l 153 718 l 376 140 l 597 718 l 703 718 l 397 -68 q 308 -193 361 -157 q 178 -229 254 -229 m 324 965 q 383 985 354 985 q 427 963 413 985 q 435 938 435 950 q 422 901 435 919 q 385 869 408 883 l 421 815 q 483 870 461 839 q 504 935 504 901 q 483 1001 504 968 q 441 1038 467 1025 q 385 1051 416 1051 q 289 1019 339 1051 l 324 965 z "},"ỹ":{"ha":746,"x_min":44,"x_max":703,"o":"m 178 -229 q 113 -225 140 -229 q 74 -213 86 -220 l 74 -142 l 149 -144 q 249 -123 217 -146 q 296 -62 281 -100 l 324 14 l 44 718 l 153 718 l 376 140 l 597 718 l 703 718 l 397 -68 q 308 -193 361 -157 q 178 -229 254 -229 m 587 928 q 537 900 564 911 q 472 890 510 890 q 427 894 447 890 q 378 908 406 899 q 337 921 353 917 q 301 925 321 925 q 264 920 281 925 q 238 908 248 915 q 207 888 227 902 l 185 948 q 237 984 213 972 q 296 997 261 997 q 339 992 318 997 q 388 977 360 987 q 435 964 417 968 q 473 959 453 959 q 520 968 500 959 q 565 995 540 977 l 587 928 z "},"z":{"ha":692,"x_min":66,"x_max":622,"o":"m 66 72 l 488 638 l 93 638 l 93 718 l 615 718 l 615 644 l 195 81 l 622 81 l 622 0 l 66 0 l 66 72 z "},"ź":{"ha":692,"x_min":66,"x_max":622,"o":"m 66 72 l 488 638 l 93 638 l 93 718 l 615 718 l 615 644 l 195 81 l 622 81 l 622 0 l 66 0 l 66 72 m 540 929 l 195 825 l 176 884 l 512 1017 l 540 929 z "},"ž":{"ha":692,"x_min":66,"x_max":622,"o":"m 66 72 l 488 638 l 93 638 l 93 718 l 615 718 l 615 644 l 195 81 l 622 81 l 622 0 l 66 0 l 66 72 m 567 1005 l 399 852 l 319 852 l 147 1005 l 252 1005 l 358 914 l 456 1005 l 567 1005 z "},"ż":{"ha":692,"x_min":66,"x_max":622,"o":"m 66 72 l 488 638 l 93 638 l 93 718 l 615 718 l 615 644 l 195 81 l 622 81 l 622 0 l 66 0 l 66 72 m 299 968 l 417 968 l 417 849 l 299 849 l 299 968 z "},"ẓ":{"ha":692,"x_min":66,"x_max":622,"o":"m 66 72 l 488 638 l 93 638 l 93 718 l 615 718 l 615 644 l 195 81 l 622 81 l 622 0 l 66 0 l 66 72 z "},"ﬁ":{"ha":906,"x_min":47,"x_max":786,"o":"m 493 637 l 313 637 l 313 0 l 204 0 l 204 637 l 47 637 l 47 718 l 204 718 l 204 832 q 372 1004 204 1004 l 499 1004 l 500 925 l 390 925 q 328 901 345 925 q 311 826 311 878 l 311 718 l 493 718 l 493 637 m 786 875 l 668 875 l 668 994 l 786 994 l 786 875 m 782 0 l 674 0 l 674 718 l 782 718 l 782 0 z "},"ﬂ":{"ha":945,"x_min":47,"x_max":891,"o":"m 493 637 l 313 637 l 313 0 l 204 0 l 204 637 l 47 637 l 47 718 l 204 718 l 204 832 q 372 1004 204 1004 l 499 1004 l 500 925 l 390 925 q 328 901 345 925 q 311 826 311 878 l 311 718 l 493 718 l 493 637 m 831 -8 q 700 43 736 -8 q 663 181 663 94 l 663 1032 l 770 1032 l 770 190 q 792 105 770 133 q 851 74 813 76 l 891 73 l 891 2 q 831 -8 861 -8 z "},"ª":{"ha":561,"x_min":66,"x_max":462,"o":"m 217 550 q 106 583 146 550 q 66 675 66 617 q 123 779 66 740 q 289 825 181 817 l 372 832 l 372 865 q 344 934 372 912 q 265 956 316 956 q 197 941 225 956 q 146 888 169 926 l 77 908 q 270 1015 129 1015 q 403 975 358 1015 q 448 864 448 935 l 448 703 q 453 610 448 646 l 462 558 l 381 558 l 370 620 q 297 567 333 583 q 217 550 262 550 m 242 607 q 337 644 296 607 q 363 674 354 660 q 372 703 372 688 l 372 779 l 303 774 q 186 744 225 769 q 147 678 147 719 q 173 627 147 647 q 242 607 199 607 z "},"º":{"ha":558,"x_min":65,"x_max":494,"o":"m 278 1017 q 393 988 344 1017 q 468 905 442 958 q 494 783 494 852 q 469 663 494 715 q 394 581 443 610 q 278 552 345 552 q 164 581 212 552 q 90 663 115 610 q 65 783 65 715 q 91 905 65 852 q 166 988 117 958 q 278 1017 215 1017 m 278 956 q 182 910 215 956 q 149 786 149 865 q 182 658 149 703 q 278 613 215 613 q 376 658 342 613 q 410 786 410 703 q 376 910 410 865 q 278 956 342 956 z "},"π":{"ha":909,"x_min":38,"x_max":867,"o":"m 704 637 l 704 0 l 599 0 l 598 637 l 282 637 q 258 282 282 460 q 200 0 235 103 l 102 0 q 158 293 135 126 q 180 623 180 461 q 177 633 180 629 q 168 637 174 637 l 38 637 l 38 718 l 867 718 l 867 637 l 704 637 z "},"⁰":{"ha":563,"x_min":19,"x_max":459,"o":"m 239 1172 q 356 1135 306 1172 q 432 1026 405 1099 q 459 847 459 953 q 400 606 459 688 q 238 524 342 524 q 77 606 135 524 q 19 845 19 688 q 46 1025 19 952 q 122 1135 73 1099 q 239 1172 172 1172 m 240 584 q 348 647 312 584 q 384 847 384 710 q 347 1049 384 985 q 239 1113 310 1113 q 92 847 92 1113 q 129 647 92 710 q 240 584 167 584 z "},"¹":{"ha":410,"x_min":8,"x_max":203,"o":"m 132 1038 l 8 1038 l 8 1086 q 95 1094 64 1086 q 139 1117 126 1101 q 153 1160 151 1133 l 203 1160 l 203 528 l 132 528 l 132 1038 z "},"²":{"ha":493,"x_min":33,"x_max":458,"o":"m 47 603 q 73 699 47 659 q 134 766 98 740 q 230 826 170 792 q 311 876 281 855 q 362 928 342 898 q 383 997 383 958 q 346 1080 383 1049 q 249 1112 310 1112 q 145 1075 185 1112 q 101 979 106 1039 l 33 979 q 60 1077 34 1033 q 135 1148 85 1122 q 253 1174 184 1174 q 359 1152 313 1174 q 430 1090 405 1130 q 454 997 454 1049 q 429 901 454 941 q 368 835 404 860 q 274 777 332 809 q 192 728 222 749 q 142 678 163 708 q 122 610 122 649 l 122 595 l 458 595 l 458 533 l 47 533 l 47 603 z "},"³":{"ha":545,"x_min":35,"x_max":491,"o":"m 44 983 q 73 1085 44 1042 q 150 1151 101 1128 q 256 1174 198 1174 q 370 1155 321 1174 q 446 1099 419 1135 q 473 1013 473 1063 q 442 926 473 965 q 351 867 411 888 q 454 808 417 849 q 491 706 491 766 q 461 610 491 651 q 377 547 431 569 q 255 524 324 524 q 143 547 192 524 q 66 613 94 570 q 35 711 37 655 l 104 711 q 153 618 113 651 q 256 585 194 585 q 341 600 304 585 q 397 643 377 615 q 417 706 417 670 q 369 799 417 766 q 248 833 322 832 l 192 833 l 192 893 l 245 894 q 324 910 288 894 q 379 953 359 926 q 399 1010 399 980 q 382 1062 399 1038 q 333 1101 365 1086 q 256 1115 301 1115 q 188 1101 220 1115 q 134 1056 155 1086 q 113 983 114 1026 l 44 983 z "},"⁴":{"ha":567,"x_min":26,"x_max":499,"o":"m 393 1160 l 393 756 l 499 756 l 499 695 l 393 695 l 393 528 l 326 528 l 326 695 l 26 695 l 26 760 l 322 1160 l 393 1160 m 324 756 l 324 1067 l 92 756 l 324 756 z "},"⁵":{"ha":547,"x_min":38,"x_max":503,"o":"m 466 1160 l 464 1099 l 156 1099 l 139 881 q 292 940 197 940 q 397 916 349 940 q 474 846 445 892 q 503 735 503 799 q 475 621 503 670 q 396 545 447 572 q 278 519 345 519 q 172 540 221 519 q 88 598 123 560 q 38 684 53 635 l 99 706 q 167 612 122 647 q 274 578 212 578 q 387 619 344 578 q 430 733 430 660 q 410 810 430 776 q 355 862 390 844 q 281 881 321 881 q 202 867 235 881 q 135 813 169 853 q 132 813 133 813 q 129 813 131 813 l 68 828 l 97 1160 l 466 1160 z "},"⁶":{"ha":518,"x_min":40,"x_max":488,"o":"m 281 1181 q 375 1161 332 1181 q 447 1107 419 1142 q 483 1022 475 1071 l 417 1022 q 369 1095 404 1068 q 283 1122 334 1122 q 157 1058 201 1122 q 113 869 113 993 q 114 831 113 844 q 177 916 131 883 q 281 949 223 949 q 390 924 343 949 q 463 855 437 900 q 488 747 488 809 q 462 635 488 683 q 388 559 436 586 q 274 532 340 532 q 150 569 203 532 q 68 678 97 607 q 40 847 40 749 q 67 1024 40 949 q 149 1140 95 1099 q 281 1181 203 1181 m 273 891 q 203 874 236 891 q 149 827 169 856 q 128 763 128 797 q 145 674 127 713 q 197 612 163 634 q 274 590 231 590 q 347 609 315 590 q 396 664 378 628 q 414 744 414 699 q 378 852 414 813 q 273 891 342 891 z "},"⁷":{"ha":502,"x_min":47,"x_max":483,"o":"m 483 1160 l 483 1099 q 373 912 427 1022 q 282 697 319 802 q 235 528 244 592 l 160 528 q 204 689 172 594 q 288 893 236 784 q 406 1099 340 1001 l 47 1099 l 47 1160 l 483 1160 z "},"⁸":{"ha":547,"x_min":29,"x_max":503,"o":"m 266 1176 q 373 1156 326 1176 q 447 1097 420 1135 q 474 1006 474 1059 q 374 869 474 910 q 436 839 406 863 q 484 780 466 815 q 503 710 503 745 q 474 616 503 656 q 391 553 444 575 q 266 531 338 531 q 141 553 194 531 q 58 616 88 575 q 29 710 29 656 q 48 780 29 745 q 96 839 66 815 q 158 869 126 863 q 57 1006 57 910 q 84 1097 57 1059 q 159 1156 111 1135 q 266 1176 206 1176 m 266 899 q 366 927 329 899 q 403 1008 403 955 q 366 1092 403 1060 q 266 1123 328 1123 q 166 1091 204 1123 q 128 1008 128 1060 q 165 927 128 956 q 266 899 203 899 m 266 587 q 352 602 315 587 q 409 645 389 617 q 429 709 429 672 q 409 775 429 746 q 352 820 389 803 q 266 836 315 836 q 180 820 217 836 q 123 775 143 803 q 103 709 103 746 q 123 645 103 672 q 180 602 143 617 q 266 587 217 587 z "},"⁹":{"ha":553,"x_min":28,"x_max":478,"o":"m 233 532 q 139 551 183 532 q 66 606 95 570 q 28 690 36 642 l 95 690 q 143 617 107 644 q 231 590 180 590 q 363 654 317 590 q 410 847 410 717 q 409 883 410 871 q 348 795 394 828 q 240 761 301 761 q 131 786 178 761 q 58 856 84 810 q 32 965 32 902 q 58 1078 32 1029 q 131 1153 83 1126 q 244 1180 179 1180 q 368 1142 315 1180 q 450 1034 421 1105 q 478 865 478 963 q 450 686 478 760 q 367 572 422 611 q 233 532 312 532 m 245 821 q 316 838 282 821 q 370 885 349 856 q 391 949 391 915 q 374 1039 392 999 q 322 1100 356 1078 q 244 1122 288 1122 q 173 1103 204 1122 q 124 1049 141 1084 q 106 969 106 1014 q 142 860 106 900 q 245 821 177 821 z "},"⁄":{"ha":348,"x_min":-205,"x_max":548,"o":"m -128 -6 l -205 -5 l 473 1015 l 548 1015 l -128 -6 z "},"½":{"ha":1302,"x_min":8,"x_max":1237,"o":"m 132 894 l 8 894 l 8 942 q 95 949 64 942 q 139 973 126 957 q 153 1015 151 989 l 203 1015 l 203 383 l 132 383 l 132 894 m 282 -6 l 205 -5 l 883 1015 l 958 1015 l 282 -6 m 826 69 q 851 166 826 126 q 913 233 876 206 q 1008 292 949 259 q 1090 343 1060 322 q 1141 394 1120 365 q 1161 464 1161 424 q 1125 547 1161 515 q 1028 578 1088 578 q 924 542 963 578 q 880 446 885 506 l 811 446 q 838 544 813 500 q 913 614 864 588 q 1031 640 963 640 q 1138 618 1092 640 q 1208 556 1183 597 q 1233 464 1233 516 q 1208 367 1233 408 q 1147 301 1183 327 q 1052 244 1110 276 q 970 195 1000 215 q 921 145 941 174 q 901 76 901 116 l 901 62 l 1237 62 l 1237 0 l 826 0 l 826 69 z "},"⅓":{"ha":1302,"x_min":8,"x_max":1249,"o":"m 132 894 l 8 894 l 8 942 q 95 949 64 942 q 139 973 126 957 q 153 1015 151 989 l 203 1015 l 203 383 l 132 383 l 132 894 m 282 -6 l 205 -5 l 883 1015 l 958 1015 l 282 -6 m 802 446 q 831 547 802 504 q 907 613 859 590 q 1014 636 956 636 q 1127 617 1078 636 q 1203 561 1176 598 q 1231 475 1231 525 q 1200 389 1231 427 q 1109 330 1169 351 q 1212 270 1175 312 q 1249 169 1249 228 q 1218 72 1249 113 q 1135 9 1188 31 q 1013 -13 1081 -13 q 901 10 950 -13 q 823 75 852 33 q 793 174 794 117 l 862 174 q 911 81 871 114 q 1014 47 951 47 q 1098 63 1062 47 q 1155 105 1135 78 q 1174 169 1174 133 q 1127 261 1174 228 q 1006 295 1079 294 l 949 296 l 949 356 l 1003 357 q 1081 373 1046 357 q 1137 416 1117 389 q 1157 473 1157 442 q 1140 525 1157 501 q 1091 563 1123 549 q 1014 578 1058 578 q 945 563 978 578 q 892 519 913 549 q 871 446 872 489 l 802 446 z "},"⅔":{"ha":1406,"x_min":33,"x_max":1353,"o":"m 47 457 q 73 553 47 513 q 134 620 98 594 q 230 680 170 647 q 311 731 281 709 q 362 782 342 752 q 383 851 383 812 q 346 934 383 903 q 249 966 310 966 q 145 930 185 966 q 101 833 106 893 l 33 833 q 60 932 34 888 q 135 1002 85 976 q 253 1028 184 1028 q 359 1006 313 1028 q 430 944 405 984 q 454 851 454 903 q 429 755 454 795 q 368 689 404 715 q 274 631 332 663 q 192 582 222 603 q 142 533 163 562 q 122 464 122 503 l 122 449 l 458 449 l 458 388 l 47 388 l 47 457 m 386 -6 l 309 -5 l 987 1015 l 1062 1015 l 386 -6 m 906 446 q 935 547 906 504 q 1011 613 963 590 q 1118 636 1060 636 q 1232 617 1183 636 q 1308 561 1281 598 q 1335 475 1335 525 q 1304 389 1335 427 q 1213 330 1273 351 q 1316 270 1279 312 q 1353 169 1353 228 q 1323 72 1353 113 q 1239 9 1292 31 q 1117 -13 1185 -13 q 1005 10 1054 -13 q 927 75 956 33 q 897 174 899 117 l 966 174 q 1015 81 975 114 q 1118 47 1056 47 q 1202 63 1166 47 q 1259 105 1239 78 q 1278 169 1278 133 q 1231 261 1278 228 q 1110 295 1183 294 l 1053 296 l 1053 356 l 1107 357 q 1185 373 1150 357 q 1241 416 1221 389 q 1261 473 1261 442 q 1244 525 1261 501 q 1195 563 1227 549 q 1118 578 1163 578 q 1049 563 1082 578 q 996 519 1017 549 q 975 446 976 489 l 906 446 z "},"¼":{"ha":1263,"x_min":8,"x_max":1194,"o":"m 132 894 l 8 894 l 8 942 q 95 949 64 942 q 139 973 126 957 q 153 1015 151 989 l 203 1015 l 203 383 l 132 383 l 132 894 m 282 -6 l 205 -5 l 883 1015 l 958 1015 l 282 -6 m 1088 632 l 1088 228 l 1194 228 l 1194 167 l 1088 167 l 1088 0 l 1021 0 l 1021 167 l 722 167 l 722 233 l 1017 632 l 1088 632 m 1019 228 l 1019 539 l 788 228 l 1019 228 z "},"¾":{"ha":1398,"x_min":35,"x_max":1330,"o":"m 44 838 q 73 939 44 896 q 150 1005 101 982 q 256 1028 198 1028 q 370 1009 321 1028 q 446 953 419 990 q 473 867 473 917 q 442 781 473 819 q 351 722 411 742 q 454 662 417 703 q 491 560 491 620 q 461 464 491 505 q 377 401 431 423 q 255 378 324 378 q 143 401 192 378 q 66 467 94 424 q 35 565 37 509 l 104 565 q 153 472 113 506 q 256 439 194 439 q 341 454 304 439 q 397 497 377 469 q 417 560 417 524 q 369 653 417 620 q 248 687 322 686 l 192 688 l 192 747 l 245 749 q 324 765 288 749 q 379 807 359 781 q 399 865 399 834 q 382 916 399 892 q 333 955 365 940 q 256 969 301 969 q 188 955 220 969 q 134 910 155 940 q 113 838 114 881 l 44 838 m 417 -6 l 340 -5 l 1018 1015 l 1093 1015 l 417 -6 m 1224 632 l 1224 228 l 1330 228 l 1330 167 l 1224 167 l 1224 0 l 1156 0 l 1156 167 l 857 167 l 857 233 l 1153 632 l 1224 632 m 1154 228 l 1154 539 l 923 228 l 1154 228 z "},"⅛":{"ha":1303,"x_min":8,"x_max":1260,"o":"m 132 894 l 8 894 l 8 942 q 95 949 64 942 q 139 973 126 957 q 153 1015 151 989 l 203 1015 l 203 383 l 132 383 l 132 894 m 282 -6 l 205 -5 l 883 1015 l 958 1015 l 282 -6 m 1024 637 q 1131 617 1083 637 q 1205 558 1178 597 q 1232 467 1232 520 q 1131 330 1232 371 q 1194 300 1164 324 q 1242 241 1224 276 q 1260 171 1260 206 q 1231 77 1260 117 q 1149 14 1202 36 q 1024 -8 1095 -8 q 899 14 952 -8 q 816 77 845 36 q 787 171 787 117 q 805 241 787 206 q 853 300 824 276 q 916 330 883 324 q 815 467 815 371 q 842 558 815 520 q 916 617 869 597 q 1024 637 964 637 m 1024 360 q 1124 388 1087 360 q 1161 469 1161 416 q 1123 553 1161 522 q 1024 584 1085 584 q 924 552 962 584 q 885 469 885 521 q 923 388 885 417 q 1024 360 960 360 m 1024 48 q 1109 63 1072 48 q 1167 106 1147 78 q 1187 170 1187 133 q 1167 236 1187 207 q 1109 281 1147 265 q 1024 297 1072 297 q 938 281 975 297 q 881 236 901 265 q 860 170 860 207 q 881 106 860 133 q 938 63 901 78 q 1024 48 975 48 z "},"⅜":{"ha":1439,"x_min":35,"x_max":1396,"o":"m 44 838 q 73 939 44 896 q 150 1005 101 982 q 256 1028 198 1028 q 370 1009 321 1028 q 446 953 419 990 q 473 867 473 917 q 442 781 473 819 q 351 722 411 742 q 454 662 417 703 q 491 560 491 620 q 461 464 491 505 q 377 401 431 423 q 255 378 324 378 q 143 401 192 378 q 66 467 94 424 q 35 565 37 509 l 104 565 q 153 472 113 506 q 256 439 194 439 q 341 454 304 439 q 397 497 377 469 q 417 560 417 524 q 369 653 417 620 q 248 687 322 686 l 192 688 l 192 747 l 245 749 q 324 765 288 749 q 379 807 359 781 q 399 865 399 834 q 382 916 399 892 q 333 955 365 940 q 256 969 301 969 q 188 955 220 969 q 134 910 155 940 q 113 838 114 881 l 44 838 m 417 -6 l 340 -5 l 1018 1015 l 1093 1015 l 417 -6 m 1159 637 q 1266 617 1219 637 q 1340 558 1313 597 q 1367 467 1367 520 q 1267 330 1367 371 q 1329 300 1299 324 q 1377 241 1359 276 q 1396 171 1396 206 q 1367 77 1396 117 q 1284 14 1338 36 q 1159 -8 1231 -8 q 1034 14 1088 -8 q 951 77 981 36 q 922 171 922 117 q 941 241 922 206 q 989 300 959 276 q 1051 330 1019 324 q 950 467 950 371 q 977 558 950 520 q 1052 617 1004 597 q 1159 637 1099 637 m 1159 360 q 1259 388 1222 360 q 1297 469 1297 416 q 1259 553 1297 522 q 1159 584 1221 584 q 1059 552 1097 584 q 1021 469 1021 521 q 1058 388 1021 417 q 1159 360 1096 360 m 1159 48 q 1245 63 1208 48 q 1302 106 1282 78 q 1322 170 1322 133 q 1302 236 1322 207 q 1245 281 1282 265 q 1159 297 1208 297 q 1073 281 1110 297 q 1016 236 1036 265 q 996 170 996 207 q 1016 106 996 133 q 1073 63 1036 78 q 1159 48 1110 48 z "},"⅝":{"ha":1440,"x_min":38,"x_max":1397,"o":"m 466 1015 l 464 955 l 156 955 l 139 737 q 292 795 197 795 q 397 772 349 795 q 474 701 445 748 q 503 590 503 655 q 475 477 503 526 q 396 401 447 428 q 278 374 345 374 q 172 395 221 374 q 88 453 123 416 q 38 540 53 491 l 99 561 q 167 468 122 502 q 274 433 212 433 q 387 475 344 433 q 430 588 430 516 q 410 666 430 632 q 355 718 390 699 q 281 736 321 736 q 202 723 235 736 q 135 669 169 709 q 132 668 133 668 q 129 669 131 668 l 68 684 l 97 1015 l 466 1015 m 419 -6 l 342 -5 l 1019 1015 l 1094 1015 l 419 -6 m 1160 637 q 1267 617 1220 637 q 1342 558 1315 597 q 1369 467 1369 520 q 1268 330 1369 371 q 1331 300 1301 324 q 1379 241 1360 276 q 1397 171 1397 206 q 1368 77 1397 117 q 1285 14 1339 36 q 1160 -8 1232 -8 q 1035 14 1089 -8 q 953 77 982 36 q 924 171 924 117 q 942 241 924 206 q 990 300 960 276 q 1053 330 1020 324 q 951 467 951 371 q 978 558 951 520 q 1053 617 1006 597 q 1160 637 1101 637 m 1160 360 q 1261 388 1224 360 q 1298 469 1298 416 q 1260 553 1298 522 q 1160 584 1222 584 q 1060 552 1099 584 q 1022 469 1022 521 q 1060 388 1022 417 q 1160 360 1097 360 m 1160 48 q 1246 63 1209 48 q 1303 106 1283 78 q 1324 170 1324 133 q 1303 236 1324 207 q 1246 281 1283 265 q 1160 297 1209 297 q 1075 281 1112 297 q 1017 236 1038 265 q 997 170 997 207 q 1017 106 997 133 q 1075 63 1038 78 q 1160 48 1112 48 z "},"⅞":{"ha":1396,"x_min":47,"x_max":1353,"o":"m 483 1014 l 483 953 q 373 766 427 876 q 282 551 319 656 q 235 382 244 447 l 160 382 q 204 543 172 448 q 288 747 236 638 q 406 953 340 856 l 47 953 l 47 1014 l 483 1014 m 374 -6 l 297 -5 l 975 1015 l 1050 1015 l 374 -6 m 1116 637 q 1223 617 1176 637 q 1297 558 1270 597 q 1324 467 1324 520 q 1224 330 1324 371 q 1286 300 1256 324 q 1334 241 1316 276 q 1353 171 1353 206 q 1324 77 1353 117 q 1241 14 1294 36 q 1116 -8 1188 -8 q 991 14 1044 -8 q 908 77 938 36 q 879 171 879 117 q 898 241 879 206 q 946 300 916 276 q 1008 330 976 324 q 907 467 907 371 q 934 558 907 520 q 1009 617 961 597 q 1116 637 1056 637 m 1116 360 q 1216 388 1179 360 q 1253 469 1253 416 q 1216 553 1253 522 q 1116 584 1178 584 q 1016 552 1054 584 q 978 469 978 521 q 1015 388 978 417 q 1116 360 1053 360 m 1116 48 q 1202 63 1165 48 q 1259 106 1239 78 q 1279 170 1279 133 q 1259 236 1279 207 q 1202 281 1239 265 q 1116 297 1165 297 q 1030 281 1067 297 q 973 236 993 265 q 953 170 953 207 q 973 106 953 133 q 1030 63 993 78 q 1116 48 1067 48 z "},".":{"ha":297,"x_min":78,"x_max":213,"o":"m 213 0 l 78 0 l 78 149 l 213 149 l 213 0 z "},",":{"ha":322,"x_min":59,"x_max":226,"o":"m 136 -2 l 78 1 l 78 142 l 226 142 l 226 19 l 115 -169 l 59 -169 l 136 -2 z "},":":{"ha":297,"x_min":78,"x_max":213,"o":"m 213 538 l 78 538 l 78 686 l 213 686 l 213 538 m 213 4 l 78 4 l 78 151 l 213 151 l 213 4 z "},";":{"ha":319,"x_min":78,"x_max":236,"o":"m 96 685 l 231 685 l 231 536 l 96 536 l 96 685 m 155 0 l 101 0 l 101 147 l 236 147 l 236 17 l 127 -194 l 78 -194 l 155 0 z "},"…":{"ha":1019,"x_min":89,"x_max":946,"o":"m 946 0 l 811 0 l 811 149 l 946 149 l 946 0 m 224 0 l 89 0 l 89 149 l 224 149 l 224 0 m 585 0 l 450 0 l 450 149 l 585 149 l 585 0 z "},"!":{"ha":337,"x_min":99,"x_max":233,"o":"m 204 240 l 129 240 l 101 1004 l 232 1004 l 204 240 m 233 0 l 99 0 l 99 147 l 233 147 l 233 0 z "},"¡":{"ha":335,"x_min":99,"x_max":233,"o":"m 99 572 l 99 718 l 233 718 l 233 572 l 99 572 m 101 -224 l 129 477 l 203 477 l 233 -224 l 101 -224 z "},"?":{"ha":732,"x_min":37,"x_max":663,"o":"m 37 825 q 167 967 81 915 q 360 1018 253 1018 q 520 988 451 1018 q 625 902 588 957 q 663 776 663 847 q 644 674 663 720 q 597 593 625 628 q 523 510 569 558 q 449 425 476 460 q 402 344 422 390 q 383 243 383 299 l 288 243 q 308 364 288 310 q 358 458 328 418 q 434 551 387 498 q 497 626 474 597 q 535 693 519 656 q 550 772 550 730 q 526 857 550 821 q 460 912 503 892 q 360 931 417 931 q 267 913 313 931 q 186 863 221 894 q 135 793 151 831 l 37 825 m 403 0 l 269 0 l 269 147 l 403 147 l 403 0 z "},"¿":{"ha":710,"x_min":44,"x_max":669,"o":"m 303 718 l 438 718 l 438 572 l 303 572 l 303 718 m 669 -44 q 540 -186 626 -135 q 346 -237 454 -237 q 184 -207 252 -237 q 80 -121 116 -176 q 44 6 44 -66 q 63 100 44 59 q 108 169 81 140 q 181 238 135 198 q 256 307 228 276 q 304 380 285 337 q 323 478 323 422 l 419 478 q 398 360 419 411 q 347 276 377 310 q 269 198 317 242 q 208 138 231 162 q 171 82 186 113 q 156 10 156 50 q 180 -74 156 -37 q 247 -130 203 -110 q 347 -149 290 -149 q 439 -131 393 -149 q 520 -81 485 -112 q 571 -11 556 -49 l 669 -44 z "},"·":{"ha":308,"x_min":78,"x_max":224,"o":"m 224 436 l 78 436 l 78 576 l 224 576 l 224 436 z "},"•":{"ha":426,"x_min":85,"x_max":335,"o":"m 210 385 q 148 402 176 385 q 102 448 119 419 q 85 511 85 477 q 102 574 85 545 q 148 619 119 603 q 210 636 176 636 q 273 619 244 636 q 319 574 302 603 q 335 511 335 545 q 319 448 335 477 q 273 402 302 419 q 210 385 244 385 z "},"*":{"ha":517,"x_min":37,"x_max":486,"o":"m 263 729 l 153 553 l 85 599 l 213 760 l 37 810 l 62 881 l 231 815 l 219 1004 l 303 1004 l 292 815 l 464 888 l 486 817 l 313 760 l 438 607 l 369 558 l 263 729 z "},"#":{"ha":833,"x_min":54,"x_max":776,"o":"m 615 614 l 583 401 l 731 401 l 731 329 l 572 329 l 522 -2 l 451 8 l 499 329 l 290 329 l 240 -2 l 169 8 l 217 329 l 54 329 l 54 401 l 228 401 l 261 614 l 99 614 l 99 685 l 272 685 l 321 1006 l 392 998 l 344 685 l 554 685 l 603 1006 l 674 998 l 626 685 l 776 685 l 776 614 l 615 614 m 543 614 l 333 614 l 301 401 l 510 401 l 543 614 z "},"/":{"ha":476,"x_min":19,"x_max":455,"o":"m 366 1004 l 455 1004 l 108 -62 l 19 -62 l 366 1004 z "},"\\":{"ha":476,"x_min":17,"x_max":453,"o":"m 17 1004 l 106 1004 l 453 -62 l 363 -62 l 17 1004 z "},"(":{"ha":409,"x_min":101,"x_max":372,"o":"m 372 1064 q 253 761 297 921 q 209 444 209 601 q 247 144 209 292 q 360 -165 284 -4 l 287 -165 q 147 137 194 -5 q 101 446 101 279 q 154 770 101 610 q 299 1064 208 929 l 372 1064 z "},")":{"ha":419,"x_min":30,"x_max":301,"o":"m 103 1064 q 248 769 195 928 q 301 446 301 610 q 255 137 301 279 q 115 -165 208 -5 l 42 -165 q 156 143 118 -5 q 193 444 193 292 q 149 761 193 601 q 30 1064 105 921 l 103 1064 z "},"{":{"ha":434,"x_min":10,"x_max":399,"o":"m 167 868 q 189 940 167 909 q 248 988 210 971 q 338 1004 287 1004 l 399 1004 l 399 931 l 352 931 q 285 914 303 931 q 266 860 266 897 l 266 559 q 227 444 265 485 q 132 398 189 403 q 123 393 123 397 q 132 388 123 389 q 227 345 189 383 q 266 228 265 306 l 266 -76 q 285 -133 266 -115 q 353 -150 304 -150 l 399 -150 l 399 -224 l 340 -224 q 214 -186 260 -224 q 167 -84 167 -148 l 167 222 q 150 287 167 256 q 97 338 132 318 q 10 357 61 357 l 10 428 q 128 467 88 428 q 167 570 167 506 l 167 868 z "},"}":{"ha":442,"x_min":28,"x_max":417,"o":"m 260 570 q 300 467 260 506 q 417 428 340 428 l 417 357 q 331 338 367 357 q 278 287 296 318 q 260 222 260 256 l 260 -84 q 214 -186 260 -148 q 88 -224 168 -224 l 28 -224 l 28 -150 l 74 -150 q 143 -133 124 -150 q 162 -76 162 -115 l 162 228 q 201 345 163 306 q 296 388 239 383 q 305 393 305 389 q 296 398 305 397 q 201 444 239 403 q 162 559 163 485 l 162 860 q 143 914 162 897 q 76 931 124 931 l 28 931 l 28 1004 l 90 1004 q 180 988 141 1004 q 239 940 218 971 q 260 868 260 909 l 260 570 z "},"[":{"ha":408,"x_min":131,"x_max":374,"o":"m 374 1004 l 374 931 l 229 931 l 228 -150 l 372 -150 l 372 -224 l 131 -224 l 131 1004 l 374 1004 z "},"]":{"ha":430,"x_min":31,"x_max":274,"o":"m 273 -224 l 32 -224 l 32 -150 l 176 -150 l 175 931 l 31 931 l 31 1004 l 274 1004 l 273 -224 z "},"-":{"ha":523,"x_min":87,"x_max":433,"o":"m 433 315 l 87 315 l 87 403 l 433 403 l 433 315 z "},"­":{"ha":523,"x_min":87,"x_max":433,"o":"m 433 315 l 87 315 l 87 403 l 433 403 l 433 315 z "},"–":{"ha":761,"x_min":87,"x_max":671,"o":"m 671 306 l 87 305 l 87 393 l 671 394 l 671 306 z "},"—":{"ha":1198,"x_min":87,"x_max":1108,"o":"m 1108 306 l 87 305 l 87 393 l 1108 394 l 1108 306 z "},"_":{"ha":706,"x_min":87,"x_max":617,"o":"m 617 -156 l 87 -158 l 87 -69 l 617 -69 l 617 -156 z "},"‚":{"ha":322,"x_min":59,"x_max":226,"o":"m 135 -1 l 78 1 l 78 143 l 226 143 l 226 20 l 115 -168 l 59 -168 l 135 -1 z "},"„":{"ha":563,"x_min":59,"x_max":467,"o":"m 376 -1 l 319 1 l 319 143 l 467 143 l 467 20 l 356 -168 l 300 -168 l 376 -1 m 135 -1 l 78 1 l 78 143 l 226 143 l 226 20 l 115 -168 l 59 -168 l 135 -1 z "},"“":{"ha":560,"x_min":80,"x_max":483,"o":"m 80 817 l 192 1004 l 248 1004 l 171 838 l 228 835 l 228 694 l 80 694 l 80 817 m 315 817 l 427 1004 l 483 1004 l 406 838 l 463 835 l 463 694 l 315 694 l 315 817 z "},"”":{"ha":527,"x_min":69,"x_max":472,"o":"m 146 861 l 89 864 l 89 1004 l 237 1004 l 237 882 l 125 694 l 69 694 l 146 861 m 381 861 l 324 864 l 324 1004 l 472 1004 l 472 882 l 360 694 l 304 694 l 381 861 z "},"‘":{"ha":324,"x_min":80,"x_max":247,"o":"m 171 881 l 228 878 l 228 738 l 80 738 l 80 860 l 192 1049 l 247 1049 l 171 881 z "},"’":{"ha":292,"x_min":69,"x_max":237,"o":"m 146 861 l 89 864 l 89 1004 l 237 1004 l 237 882 l 125 694 l 69 694 l 146 861 z "},"«":{"ha":615,"x_min":52,"x_max":544,"o":"m 301 100 l 238 100 l 52 349 l 239 609 l 303 609 l 156 349 l 301 100 m 542 100 l 478 100 l 292 349 l 479 609 l 544 609 l 397 349 l 542 100 z "},"»":{"ha":614,"x_min":68,"x_max":558,"o":"m 68 609 l 131 609 l 318 349 l 132 100 l 70 100 l 215 349 l 68 609 m 308 609 l 372 609 l 558 349 l 372 100 l 310 100 l 456 349 l 308 609 z "},"‹":{"ha":374,"x_min":52,"x_max":303,"o":"m 301 100 l 238 100 l 52 349 l 239 609 l 303 609 l 156 349 l 301 100 z "},"›":{"ha":374,"x_min":68,"x_max":318,"o":"m 68 609 l 131 609 l 318 349 l 132 100 l 70 100 l 215 349 l 68 609 z "},"\"":{"ha":570,"x_min":99,"x_max":472,"o":"m 433 698 l 367 698 l 330 1004 l 472 1004 l 433 698 m 202 698 l 136 698 l 99 1004 l 241 1004 l 202 698 z "},"'":{"ha":340,"x_min":99,"x_max":241,"o":"m 202 698 l 136 698 l 99 1004 l 241 1004 l 202 698 z "}," ":{"ha":317,"x_min":0,"x_max":0,"o":""},"¢":{"ha":748,"x_min":72,"x_max":678,"o":"m 401 226 q 518 264 469 226 q 581 367 567 302 l 677 367 q 597 211 661 269 q 439 143 532 154 l 439 0 l 355 0 l 355 142 q 205 200 269 152 q 106 328 140 249 q 72 510 72 408 q 106 694 72 613 q 205 825 140 775 q 355 884 269 874 l 355 1004 l 439 1004 l 439 883 q 598 812 533 872 q 678 656 663 753 l 580 653 q 514 760 561 724 q 401 797 466 797 q 282 762 333 797 q 204 663 231 727 q 176 513 176 599 q 203 361 176 426 q 282 261 231 297 q 401 226 333 226 z "},"₡":{"ha":803,"x_min":72,"x_max":678,"o":"m 401 215 q 518 253 469 215 q 581 356 567 291 l 677 356 q 605 208 662 265 q 464 135 548 152 l 427 1 l 352 1 l 385 129 q 308 140 345 131 l 272 1 l 196 1 l 240 167 q 116 297 160 210 q 72 499 72 383 q 102 673 72 595 q 191 802 133 751 q 326 868 249 853 l 363 1003 l 440 1004 l 405 875 q 481 864 446 874 l 520 1003 l 595 1004 l 551 836 q 635 758 601 806 q 678 644 668 710 l 580 642 q 514 749 561 713 q 401 785 466 785 q 282 751 333 785 q 204 652 231 716 q 176 501 176 588 q 203 350 176 415 q 282 250 231 285 q 401 215 333 215 z "}}}
